<?xml version="1.0" standalone="no"?>
<!DOCTYPE svg PUBLIC "-//W3C//DTD SVG 20010904//EN"
 "http://www.w3.org/TR/2001/REC-SVG-20010904/DTD/svg10.dtd">
<svg version="1.0" xmlns="http://www.w3.org/2000/svg"
 width="150.000000pt" height="150.000000pt" viewBox="0 0 512.000000 512.000000"
 preserveAspectRatio="xMidYMid meet">

<g transform="translate(0.000000,512.000000) scale(0.100000,-0.100000)"
fill="#A4D2EF" stroke="none">
<path d="M2315 5089 c-1061 -102 -1959 -877 -2218 -1914 -58 -232 -71 -349
-71 -615 0 -266 13 -383 71 -615 226 -906 942 -1622 1848 -1848 232 -58 349
-71 615 -71 266 0 383 13 615 71 906 226 1622 942 1848 1848 58 232 71 349 71
615 0 266 -13 383 -71 615 -203 816 -806 1483 -1600 1774 -340 124 -742 175
-1108 140z m400 -159 c328 -24 590 -94 890 -240 229 -111 415 -242 604 -425
968 -937 968 -2473 0 -3410 -854 -826 -2171 -897 -3109 -166 -682 531 -1028
1414 -884 2256 81 477 298 910 628 1253 451 468 1022 718 1691 740 22 1 103
-3 180 -8z"/>
<path d="M2413 4520 c-386 -26 -801 -194 -1104 -446 -879 -732 -957 -2046
-170 -2867 175 -182 349 -309 572 -417 630 -303 1363 -250 1949 143 162 108
355 292 471 447 524 705 524 1655 0 2360 -70 94 -234 265 -326 340 -244 199
-566 351 -869 409 -90 18 -364 44 -401 39 -5 0 -61 -4 -122 -8z m67 -280 l0
-120 80 0 80 0 0 120 0 120 31 0 c61 0 245 -31 354 -60 572 -151 1054 -600
1239 -1155 50 -150 96 -377 96 -474 l0 -31 -120 0 -120 0 0 -80 0 -80 120 0
120 0 0 -31 c0 -50 -29 -237 -50 -319 -50 -196 -142 -406 -245 -559 -260 -387
-629 -648 -1075 -761 -82 -21 -269 -50 -319 -50 l-31 0 0 120 0 120 -80 0 -80
0 0 -121 0 -122 -77 7 c-356 31 -717 181 -993 411 -299 249 -504 576 -600 955
-21 82 -50 269 -50 319 l0 31 120 0 120 0 0 80 0 80 -120 0 -120 0 0 31 c0 61
31 245 60 354 153 579 605 1060 1170 1244 149 48 345 88 448 90 l42 1 0 -120z"/>
<path d="M2480 3376 l0 -495 -54 -24 c-69 -32 -131 -94 -164 -166 -34 -73 -37
-183 -5 -251 l21 -45 -297 -297 -296 -298 58 -57 57 -58 298 296 297 297 45
-21 c68 -31 178 -29 252 5 209 96 259 367 98 528 -23 23 -66 53 -96 67 l-54
24 0 495 0 494 -80 0 -80 0 0 -494z m177 -684 c66 -47 83 -162 35 -229 -47
-66 -162 -83 -229 -35 -92 65 -80 225 19 276 46 23 134 17 175 -12z"/>
</g>
</svg>
