<?xml version="1.0" standalone="no"?>
<!DOCTYPE svg PUBLIC "-//W3C//DTD SVG 20010904//EN"
 "http://www.w3.org/TR/2001/REC-SVG-20010904/DTD/svg10.dtd">
<svg version="1.0" xmlns="http://www.w3.org/2000/svg"
 width="150.000000pt" height="150.000000pt" viewBox="0 0 512.000000 512.000000"
 preserveAspectRatio="xMidYMid meet">

<g transform="translate(0.000000,512.000000) scale(0.100000,-0.100000)"
fill="#2DAEFF" stroke="none">
<path d="M3458 5110 c-212 -36 -431 -191 -528 -374 l-35 -66 -320 0 c-357 0
-414 -7 -515 -61 -75 -40 -169 -137 -209 -217 -85 -168 -78 -367 19 -509 19
-28 154 -180 300 -338 146 -157 266 -289 268 -293 1 -4 -76 -176 -172 -382
-152 -329 -177 -375 -197 -378 -13 -1 -208 22 -434 52 -306 40 -413 51 -421
42 -14 -13 -1134 -1754 -1141 -1771 -2 -7 114 -191 260 -409 l264 -396 179
227 179 227 3 -232 2 -232 450 0 450 0 0 734 0 734 133 -34 c72 -19 140 -37
150 -40 16 -5 17 -47 17 -700 l0 -694 155 0 155 0 0 375 0 375 600 0 600 0 0
-375 0 -375 150 0 150 0 0 1423 0 1423 388 128 c213 70 413 142 444 158 110
58 208 189 238 317 8 33 11 90 8 151 -4 86 -9 107 -41 173 -41 87 -98 154
-177 206 -30 21 -155 96 -278 167 l-222 129 6 46 c15 114 -36 316 -112 442
-48 78 -171 201 -246 246 -158 92 -349 130 -520 101z m214 -301 c231 -48 390
-273 357 -506 -21 -147 -116 -277 -254 -344 -68 -33 -74 -34 -190 -34 -114 0
-123 2 -188 32 -181 86 -289 285 -258 477 29 179 158 323 331 368 77 20 130
22 202 7z m-835 -528 c41 -326 278 -584 598 -652 91 -19 246 -15 338 10 148
39 306 140 392 251 22 29 47 61 55 72 15 19 21 16 215 -97 110 -64 217 -128
237 -142 103 -70 103 -251 -1 -318 -20 -13 -251 -94 -514 -180 l-478 -157
-352 -704 -352 -704 -327 0 -328 0 -331 86 c-275 71 -334 83 -344 72 -7 -7
-239 -299 -515 -648 -276 -349 -506 -636 -510 -638 -4 -1 -49 60 -100 137
l-92 140 19 33 c24 40 914 1421 920 1428 2 2 204 -22 450 -53 245 -32 448 -55
451 -53 5 5 532 1137 532 1143 0 1 -151 165 -335 364 -185 199 -343 375 -352
393 -11 19 -17 55 -18 91 0 97 58 178 145 203 19 6 159 11 310 11 l276 1 11
-89z m833 -2271 l0 -350 -175 0 c-96 0 -175 2 -175 5 0 7 344 695 347 695 2 0
3 -157 3 -350z m0 -805 l0 -155 -600 0 -600 0 0 155 0 155 600 0 600 0 0 -155z
m-2110 -445 l0 -460 -150 0 -150 0 0 275 0 274 147 186 c81 102 148 185 150
185 2 0 3 -207 3 -460z"/>
</g>
</svg>
