<?xml version="1.0" standalone="no"?>
<!DOCTYPE svg PUBLIC "-//W3C//DTD SVG 20010904//EN"
 "http://www.w3.org/TR/2001/REC-SVG-20010904/DTD/svg10.dtd">
<svg version="1.0" xmlns="http://www.w3.org/2000/svg"
 width="180.000000pt" height="180.000000pt" viewBox="0 0 512.000000 512.000000"
 preserveAspectRatio="xMidYMid meet">

<g transform="translate(0.000000,512.000000) scale(0.100000,-0.100000)"
fill="#2DAEFF" stroke="none">
<path d="M2432 5105 c-66 -15 -166 -61 -218 -101 -18 -13 -112 -56 -210 -97
-142 -58 -182 -78 -194 -99 -19 -35 -5 -77 33 -98 27 -15 49 -10 159 35 15 6
15 3 2 -42 -9 -26 -18 -92 -21 -145 l-6 -97 -73 -31 c-41 -16 -108 -44 -149
-61 -79 -32 -95 -49 -95 -96 0 -23 33 -61 193 -221 170 -170 196 -192 225
-192 41 0 72 30 72 70 l0 30 85 0 85 0 0 -47 c1 -121 47 -205 135 -248 47 -23
65 -27 119 -23 131 8 212 96 223 243 l6 75 83 0 84 0 0 -30 c0 -40 31 -70 72
-70 29 0 55 22 225 192 160 160 193 198 193 221 0 47 -16 64 -92 95 -40 16
-107 44 -149 61 l-76 32 -6 97 c-3 53 -12 119 -21 145 -10 34 -11 47 -3 44
186 -73 669 -275 689 -289 36 -25 62 -96 53 -145 -6 -33 -52 -84 -370 -403
-235 -236 -371 -381 -386 -410 -24 -45 -24 -48 -27 -422 l-3 -378 -182 0 -182
0 -155 155 c-237 238 -295 275 -431 277 l-67 0 -4 162 c-3 146 -5 165 -27 206
-15 29 -150 173 -386 410 -403 405 -395 394 -360 485 21 56 41 70 190 129 114
46 165 80 165 111 0 29 -24 64 -50 75 -25 10 -44 5 -166 -44 -76 -31 -155 -67
-176 -81 -83 -55 -136 -171 -124 -272 11 -93 41 -135 249 -342 l195 -194 -52
-34 c-65 -43 -113 -112 -126 -182 -6 -33 -10 -330 -10 -782 l0 -729 -36 0
c-49 0 -100 -26 -132 -68 -26 -34 -27 -42 -30 -174 -4 -125 -2 -142 18 -182
35 -72 54 -80 215 -86 l140 -5 3 -277 2 -277 27 -20 c34 -27 56 -26 90 3 l28
24 3 277 3 276 82 -3 82 -3 3 -692 2 -693 -84 0 -85 0 -3 276 -3 276 -24 19
c-30 25 -76 24 -101 -1 -19 -19 -20 -33 -20 -316 0 -284 1 -298 21 -331 12
-18 39 -43 61 -54 35 -18 55 -20 163 -17 134 3 153 10 199 72 21 27 21 38 24
747 l2 719 85 0 85 0 0 -712 c0 -795 -3 -757 69 -805 33 -22 40 -23 301 -23
261 0 268 1 301 23 72 48 69 17 69 747 l0 655 85 -85 85 -84 2 -577 c3 -566 3
-578 24 -605 46 -62 65 -69 199 -72 108 -3 128 -1 163 17 22 11 49 36 61 54
21 34 21 44 21 497 l0 463 170 172 170 172 0 49 c0 36 -7 59 -25 86 l-25 37
24 17 c14 8 35 36 46 60 20 40 22 57 18 182 -3 132 -4 140 -30 174 -32 42 -83
68 -132 68 l-35 0 -3 345 c-3 339 -3 345 -25 366 -26 27 -77 28 -104 3 -18
-16 -19 -36 -19 -366 l0 -348 -123 0 -123 0 -67 68 -67 68 0 606 c0 397 4 616
10 634 6 15 52 70 102 121 76 77 97 93 122 93 41 0 95 -28 120 -63 20 -27 21
-45 26 -294 5 -247 6 -266 24 -279 29 -21 80 -18 102 7 17 19 19 41 22 255 2
137 -1 258 -8 291 -13 74 -59 142 -126 186 l-52 34 195 194 c202 201 235 246
248 331 15 101 -37 222 -120 280 -22 15 -242 111 -490 212 -298 122 -471 198
-513 226 -127 85 -304 119 -450 85z m233 -150 c83 -22 147 -60 206 -122 235
-249 96 -657 -245 -716 -279 -48 -537 209 -489 487 43 254 284 414 528 351z
m-611 -698 c17 -28 50 -73 74 -99 l45 -48 -84 0 -85 0 -69 70 c-38 38 -67 71
-64 73 12 9 126 55 139 56 8 1 28 -23 44 -52z m1126 26 c36 -15 67 -28 69 -30
3 -2 -26 -35 -64 -73 l-69 -70 -85 0 -84 0 45 48 c24 26 57 71 74 99 16 29 34
53 39 53 6 0 39 -12 75 -27z m-532 -383 c-5 -75 -33 -110 -88 -110 -55 0 -83
35 -88 110 l-4 60 92 0 92 0 -4 -60z m-860 -353 c50 -51 96 -106 102 -121 5
-15 10 -102 10 -192 l0 -165 -30 -26 c-77 -64 -122 -168 -122 -278 1 -94 28
-164 97 -248 l55 -66 0 -163 c1 -110 5 -175 14 -200 l14 -38 -204 0 -204 0 2
749 c3 740 3 750 24 778 25 35 79 63 120 63 25 0 46 -16 122 -93z m422 -588
c42 -21 1311 -1289 1291 -1289 -18 0 -279 -257 -287 -283 -5 -16 -122 96 -641
614 -370 370 -643 650 -655 673 -27 53 -27 131 2 190 51 106 183 150 290 95z
m860 -514 c0 -58 -1 -105 -3 -105 -1 0 -49 47 -107 105 l-105 105 108 0 107 0
0 -105z m-862 -353 c-15 -47 -36 -54 -89 -27 -51 27 -69 69 -69 160 l0 80 86
-86 85 -85 -13 -42z m572 -1052 l0 -535 -220 0 -220 0 0 755 0 755 220 -220
220 -220 0 -535z m-590 755 l0 -105 -435 0 -435 0 0 105 0 105 435 0 435 0 0
-105z m1610 0 l0 -105 -43 0 c-41 0 -47 4 -147 105 l-105 105 148 0 147 0 0
-105z m-99 -311 l54 -54 -153 -152 -152 -153 -54 54 c-88 87 -84 106 52 245
142 143 165 149 253 60z m-302 -509 c21 -6 21 -12 21 -416 l0 -409 -85 0 -85
0 0 476 0 476 64 -60 c36 -33 74 -63 85 -67z m-658 -628 c29 -22 39 -55 39
-126 l0 -71 -220 0 -220 0 0 71 c0 71 10 104 39 126 22 17 340 17 362 0z"/>
</g>
</svg>
