<?xml version="1.0" standalone="no"?>
<!DOCTYPE svg PUBLIC "-//W3C//DTD SVG 20010904//EN"
 "http://www.w3.org/TR/2001/REC-SVG-20010904/DTD/svg10.dtd">
<svg version="1.0" xmlns="http://www.w3.org/2000/svg"
 width="180.000000pt" height="180.000000pt" viewBox="0 0 512.000000 512.000000"
 preserveAspectRatio="xMidYMid meet">

<g transform="translate(0.000000,512.000000) scale(0.100000,-0.100000)"
fill="#2DAEFF" stroke="none">
<path d="M1285 5105 c-358 -61 -662 -313 -792 -657 -45 -121 -63 -234 -63
-405 0 -123 -3 -149 -20 -182 -30 -60 -34 -111 -15 -176 21 -74 98 -154 172
-181 l50 -18 7 -68 c12 -131 51 -253 117 -365 49 -83 172 -208 262 -266 l78
-51 -3 -70 -3 -71 -95 -47 c-57 -28 -139 -57 -205 -74 -266 -65 -353 -104
-450 -199 -76 -75 -120 -160 -140 -270 -8 -44 -53 -424 -101 -845 -61 -545
-84 -785 -80 -833 9 -115 66 -214 159 -273 76 -49 123 -54 508 -54 345 0 357
1 383 21 36 28 36 80 0 108 -24 19 -40 21 -175 21 l-149 0 0 33 c0 17 16 337
36 711 25 479 33 685 26 701 -13 27 -59 45 -89 34 -43 -16 -51 -45 -59 -206
-5 -101 -11 -153 -18 -153 -26 1 -369 39 -371 42 -7 9 77 679 90 718 22 65 59
118 115 165 62 51 133 80 297 120 l131 32 114 -145 c140 -178 128 -165 158
-185 15 -11 44 -17 76 -17 44 0 59 5 98 35 l46 35 0 -195 c0 -187 1 -195 22
-215 24 -22 58 -26 88 -10 32 17 40 67 40 248 l0 176 28 -26 c39 -37 65 -48
112 -48 60 0 89 20 155 104 33 41 60 74 61 73 1 -1 -4 -31 -12 -67 -7 -36 -14
-102 -14 -147 0 -70 -3 -85 -23 -110 -92 -112 -47 -286 90 -347 21 -9 44 -20
52 -24 8 -5 20 -32 28 -61 29 -117 130 -255 233 -321 48 -30 50 -34 50 -76 0
-39 -3 -44 -27 -50 -384 -90 -466 -133 -534 -279 -27 -58 -44 -164 -77 -470
l-7 -70 -155 -5 c-85 -3 -163 -10 -172 -15 -43 -26 -38 -103 8 -124 18 -8 349
-11 1225 -11 l1200 0 24 25 c30 29 32 64 6 96 -18 23 -27 24 -163 29 l-143 5
-27 230 c-27 241 -43 306 -87 366 -67 91 -144 133 -326 178 -228 56 -205 45
-205 96 0 41 3 47 39 70 63 39 109 84 155 149 44 62 96 178 96 214 0 14 13 24
47 37 62 24 128 86 149 141 16 43 16 126 0 165 -5 13 0 18 25 23 46 9 164 71
238 125 35 25 69 50 76 55 8 6 36 -9 86 -47 79 -59 189 -118 254 -136 53 -14
138 -14 187 1 52 15 127 83 161 146 32 59 62 168 72 265 3 37 8 67 9 67 1 0
27 -7 57 -16 177 -53 282 -160 309 -314 13 -77 79 -654 75 -658 -5 -5 -368
-42 -373 -38 -2 3 -8 73 -13 156 -5 83 -13 159 -19 170 -13 24 -59 39 -87 29
-12 -4 -29 -18 -37 -31 -14 -21 -12 -88 19 -673 19 -358 36 -678 38 -712 l5
-63 -175 0 c-171 0 -174 0 -198 -25 -32 -31 -32 -69 0 -100 l24 -25 375 0
c462 0 486 4 583 93 54 50 87 112 105 197 12 60 8 107 -76 859 -48 438 -95
828 -103 866 -45 207 -182 346 -408 413 -38 12 -146 39 -240 62 -321 77 -322
80 -17 80 125 0 243 5 263 10 57 16 101 51 126 100 21 42 24 77 53 565 33 575
35 627 19 656 -15 29 -57 42 -90 29 -34 -15 -49 -48 -49 -114 0 -53 -44 -833
-56 -984 -4 -52 -11 -88 -21 -97 -12 -12 -54 -15 -238 -15 -123 0 -226 4 -229
9 -3 4 29 31 72 59 133 87 226 191 296 329 64 128 78 195 83 403 4 173 3 187
-16 217 -32 51 -63 65 -169 75 -337 32 -614 161 -820 383 -79 85 -102 99 -153
92 -29 -4 -54 -19 -101 -62 -84 -75 -157 -119 -256 -150 -93 -30 -126 -56
-141 -111 -12 -44 -13 -217 -2 -474 7 -159 10 -183 38 -263 17 -49 53 -125 80
-170 59 -100 184 -228 271 -277 34 -19 62 -41 62 -47 0 -19 -449 -18 -474 0
-16 12 -21 69 -52 573 -18 307 -34 602 -34 654 0 259 60 479 163 596 48 55 94
85 165 108 43 15 60 28 97 77 122 157 336 240 585 225 144 -8 231 -28 325 -76
248 -123 442 -368 502 -632 25 -111 82 -150 138 -93 31 30 31 39 1 158 -63
249 -225 477 -439 620 -160 107 -267 148 -438 168 -308 35 -598 -55 -756 -236
-36 -41 -68 -65 -128 -94 -196 -96 -308 -289 -350 -605 -20 -149 -19 -231 10
-715 37 -627 45 -741 54 -764 9 -22 7 -22 -98 -22 -58 0 -131 -6 -161 -14 -76
-18 -226 -92 -278 -136 -51 -44 -61 -43 -198 22 l-94 44 0 77 1 77 62 35 c35
20 99 72 147 120 140 140 223 316 237 498 l6 83 62 28 c153 70 215 223 146
359 -19 36 -21 59 -21 194 0 110 -5 178 -19 243 -50 241 -188 458 -385 607
-223 168 -507 238 -781 193z m337 -155 c233 -51 434 -186 557 -374 92 -141
141 -305 141 -471 l0 -95 -47 6 c-27 4 -58 13 -71 21 -37 23 -80 99 -87 156
-11 89 -23 119 -62 159 -55 57 -88 62 -251 41 -182 -23 -518 -23 -697 -1 -168
22 -214 12 -269 -52 -26 -32 -46 -87 -46 -130 0 -46 -21 -100 -52 -136 -38
-43 -50 -50 -112 -59 l-49 -7 6 124 c10 233 101 434 268 594 80 75 140 117
232 159 178 82 362 104 539 65z m-506 -706 c194 -22 536 -21 698 0 131 17 146
14 146 -33 1 -87 61 -213 134 -276 l49 -44 -6 -248 c-5 -205 -9 -262 -26 -326
-81 -311 -343 -512 -666 -510 -191 0 -336 62 -475 202 -98 98 -147 186 -180
315 -17 68 -20 113 -20 326 l0 247 59 59 c63 64 98 137 108 229 5 42 17 75 28
75 1 0 69 -7 151 -16z m2326 -209 c224 -213 509 -340 837 -370 l73 -7 -4 -152
c-6 -173 -24 -247 -88 -357 -190 -323 -588 -437 -915 -262 -109 58 -226 177
-280 284 -70 137 -88 253 -83 544 l3 199 62 22 c90 32 173 79 240 134 32 27
60 49 62 49 2 1 44 -37 93 -84z m-2826 -383 c-10 -9 -56 28 -71 59 -22 42 -11
81 33 121 l37 32 3 -103 c1 -57 0 -106 -2 -109z m1705 188 c24 -13 49 -61 49
-94 0 -25 -53 -96 -71 -96 -5 0 -9 45 -9 100 0 55 3 100 6 100 3 0 14 -5 25
-10z m-953 -1179 c77 -9 197 -3 280 15 l32 7 0 -54 0 -54 -114 -107 -114 -108
-110 103 -110 102 -1 59 -1 58 28 -6 c15 -3 64 -10 110 -15z m2210 -1 c69 -9
196 -2 280 16 l32 7 0 -61 c0 -86 17 -156 44 -181 13 -13 50 -30 82 -40 l59
-18 -49 -46 c-173 -162 -446 -187 -642 -58 -32 21 -74 54 -93 74 l-33 35 56
13 c96 21 126 69 126 200 l0 82 33 -7 c17 -4 65 -11 105 -16z m-288 -100 c0
-9 -13 -14 -162 -50 l-86 -22 -52 41 -52 41 176 0 c106 0 176 -4 176 -10z
m-611 -45 c99 -24 186 -72 261 -145 97 -96 151 -207 166 -347 l7 -65 -74 39
c-53 28 -83 51 -104 82 -58 83 -100 121 -135 121 -45 0 -80 -24 -118 -81 -88
-133 -282 -191 -510 -153 -106 17 -111 17 -137 0 l-28 -19 6 76 c16 192 128
357 300 444 120 60 244 76 366 48z m-1439 -162 l102 -98 -55 -53 -54 -54 -97
124 c-53 68 -96 126 -96 130 0 7 75 45 92 47 3 1 52 -43 108 -96z m587 74 l43
-22 -86 -110 c-47 -61 -92 -119 -100 -130 -13 -19 -16 -17 -70 35 l-56 55 104
97 c57 54 108 98 113 97 6 0 29 -10 52 -22z m2443 -111 c0 -58 -23 -193 -41
-241 -50 -135 -147 -150 -319 -50 -62 37 -63 39 -40 48 146 60 243 125 317
214 50 62 83 73 83 29z m-984 -155 c33 -22 90 -52 127 -67 l69 -28 -24 -20
c-27 -22 -131 -72 -169 -81 -26 -6 -26 -6 -33 67 -3 40 -13 94 -21 121 -8 26
-13 47 -11 47 2 0 30 -18 62 -39z m-355 -278 l50 -28 -3 -195 -3 -196 -33 -67
c-63 -126 -176 -213 -315 -238 -159 -29 -334 48 -422 185 -56 89 -67 140 -69
315 l-1 156 45 -5 c95 -11 255 -3 315 15 86 25 184 79 246 135 l54 48 43 -49
c24 -26 66 -61 93 -76z m-951 -170 c0 -65 0 -66 -20 -48 -24 22 -26 72 -3 97
9 10 18 18 20 18 1 0 3 -30 3 -67z m1182 50 c22 -20 23 -70 1 -95 -27 -30 -33
-21 -33 47 0 36 3 65 7 65 3 0 15 -7 25 -17z m-2693 -628 c80 -9 147 -17 149
-20 2 -2 -6 -219 -19 -482 l-24 -478 -130 -3 c-150 -3 -196 9 -244 64 -40 45
-55 103 -47 189 10 114 77 729 82 743 3 9 16 12 46 8 24 -4 108 -13 187 -21z
m4460 -378 c50 -458 50 -476 -17 -546 -48 -50 -89 -61 -239 -61 l-122 0 -5 33
c-9 54 -50 926 -44 932 6 7 324 43 358 41 l25 -1 44 -398z m-2243 203 c3 -25
14 -59 24 -76 l18 -32 -41 -18 c-30 -14 -65 -19 -127 -19 -62 0 -97 5 -127 19
l-41 18 18 32 c10 17 21 51 24 77 l7 45 119 0 120 -1 6 -45z m-296 -272 c46
-19 75 -22 170 -22 138 0 193 17 287 93 l60 49 104 -27 c166 -43 229 -87 254
-176 12 -44 55 -381 55 -435 0 -19 -7 -20 -99 -20 l-99 0 -4 96 c-3 86 -5 98
-27 115 -30 25 -76 24 -101 -1 -17 -17 -20 -33 -20 -115 l0 -95 -411 0 -410 0
2 88 c2 53 -2 96 -10 109 -22 42 -100 43 -122 1 -6 -12 -14 -61 -17 -110 l-5
-88 -98 0 -99 0 0 26 c0 58 42 382 55 430 11 37 26 62 54 87 54 49 66 54 194
86 l112 27 59 -48 c33 -26 85 -58 116 -70z"/>
</g>
</svg>
