<?xml version="1.0" standalone="no"?>
<!DOCTYPE svg PUBLIC "-//W3C//DTD SVG 20010904//EN"
 "http://www.w3.org/TR/2001/REC-SVG-20010904/DTD/svg10.dtd">
<svg version="1.0" xmlns="http://www.w3.org/2000/svg"
 width="512.000000pt" height="512.000000pt" viewBox="0 0 512.000000 512.000000"
 preserveAspectRatio="xMidYMid meet">

<g transform="translate(0.000000,512.000000) scale(0.100000,-0.100000)"
fill="#2DAEFF" stroke="none">
<path d="M1370 5111 c-121 -37 -198 -132 -208 -258 l-5 -62 -336 -3 c-324 -3
-338 -4 -394 -26 -111 -45 -199 -136 -238 -248 -18 -50 -19 -91 -19 -698 l0
-645 26 -20 c35 -27 57 -26 91 3 l28 24 3 151 3 151 2075 0 2074 0 0 -570 0
-569 -97 66 c-227 154 -454 223 -733 223 -217 0 -406 -43 -582 -131 -43 -22
-79 -39 -82 -39 -2 0 -7 17 -11 38 -4 20 -18 52 -31 70 -42 54 -68 62 -211 62
-144 0 -176 -11 -213 -72 -17 -28 -20 -51 -20 -161 0 -75 5 -137 11 -150 20
-38 61 -76 90 -82 l27 -6 -66 -97 c-137 -203 -213 -421 -229 -658 l-6 -94
-892 0 c-979 0 -941 -2 -1017 60 -20 17 -48 53 -62 82 l-26 52 0 696 c0 483
-3 707 -11 729 -19 53 -81 69 -119 31 -20 -20 -20 -29 -18 -928 l3 -907 27
-57 c31 -67 92 -136 156 -177 76 -48 139 -61 289 -61 130 0 135 1 160 26 20
20 24 31 19 57 -12 57 -23 61 -184 67 -124 5 -153 9 -187 27 -52 28 -89 67
-114 123 -20 44 -29 116 -13 108 4 -2 39 -19 77 -38 l70 -35 927 -3 926 -2 12
-68 c6 -37 14 -77 17 -89 l5 -23 -666 0 -667 0 -24 -25 c-32 -31 -33 -74 -2
-103 l23 -22 692 0 692 0 49 -97 c258 -513 808 -801 1369 -717 493 73 899 413
1057 887 47 140 65 255 65 412 0 306 -85 557 -270 804 l-60 79 -2 1143 -3
1144 -32 67 c-36 76 -108 155 -171 187 -90 46 -137 51 -468 51 l-311 0 -6 65
c-14 145 -116 250 -256 262 -157 14 -285 -99 -306 -269 l-6 -58 -670 0 -669 0
0 58 c0 172 -187 312 -350 263z m131 -156 c16 -9 39 -30 49 -48 18 -29 20 -52
20 -277 0 -228 -1 -247 -20 -278 -21 -34 -72 -62 -112 -62 -37 0 -90 34 -110
71 -16 30 -18 60 -18 269 0 204 2 240 18 270 30 61 111 87 173 55z m1908 -3
c66 -36 71 -58 71 -323 0 -229 -1 -237 -23 -270 -52 -77 -140 -88 -203 -25
-42 42 -47 83 -42 342 3 221 7 235 71 274 40 25 82 25 126 2z m-2249 -402 l0
-90 -54 0 c-70 0 -109 -29 -109 -80 0 -52 30 -70 117 -70 l71 0 23 -40 c47
-82 166 -139 265 -126 87 12 163 61 212 139 16 25 22 27 90 27 68 0 75 2 94
26 26 33 27 65 2 95 -15 19 -30 24 -85 27 l-66 4 0 89 0 89 670 0 670 0 0 -89
0 -89 -61 -4 c-49 -4 -66 -9 -80 -27 -25 -31 -24 -70 3 -98 19 -20 31 -23 94
-23 70 0 74 -1 88 -27 35 -67 132 -130 215 -140 96 -11 211 44 261 126 l25 40
73 1 c85 0 112 18 112 74 0 50 -37 76 -106 76 l-54 0 0 91 0 90 328 -3 327 -3
53 -29 c28 -16 64 -44 78 -63 51 -67 54 -85 54 -343 l0 -240 -2075 0 -2075 0
0 243 c0 243 0 243 27 296 28 58 87 108 151 128 25 8 140 12 350 12 l312 1 0
-90z m3310 -830 l0 -90 -2075 0 -2075 0 0 90 0 90 2075 0 2075 0 0 -90z
m-1650 -1304 c0 -59 -2 -66 -31 -90 -25 -22 -41 -26 -90 -26 l-59 0 0 90 0 90
90 0 90 0 0 -64z m1115 30 c437 -118 773 -483 850 -925 22 -123 19 -311 -6
-434 -72 -359 -318 -671 -651 -827 -453 -212 -1003 -105 -1343 262 -583 630
-321 1635 498 1907 122 41 200 51 382 47 147 -3 184 -7 270 -30z"/>
<path d="M3428 2280 c-205 -43 -410 -166 -544 -328 -290 -349 -310 -840 -49
-1207 49 -69 179 -197 245 -242 378 -256 885 -218 1227 91 120 109 239 306
284 471 32 120 37 320 11 445 -41 201 -120 348 -267 496 -151 152 -304 236
-508 278 -103 22 -288 20 -399 -4z m400 -150 c320 -77 562 -328 627 -649 24
-114 16 -297 -15 -396 -90 -284 -296 -489 -575 -570 -234 -68 -483 -29 -686
107 -409 273 -500 817 -201 1207 117 154 292 263 487 306 94 21 265 18 363 -5z"/>
<path d="M3585 1945 c-25 -24 -25 -26 -25 -213 l0 -190 -29 -12 c-16 -6 -43
-26 -61 -43 -99 -96 -93 -261 11 -350 67 -58 175 -74 254 -38 43 19 109 85
120 120 6 20 13 21 110 21 95 0 106 2 131 23 35 31 38 82 5 109 -19 15 -41 18
-126 18 l-102 0 -31 50 c-20 32 -50 62 -82 82 l-50 31 0 187 c0 182 -1 187
-23 208 -31 29 -72 28 -102 -3z m94 -550 c83 -42 49 -165 -46 -165 -80 0 -114
102 -52 154 35 30 58 32 98 11z"/>
<path d="M600 3289 c-14 -6 -36 -20 -48 -32 -45 -42 -52 -68 -52 -204 0 -144
11 -176 72 -213 29 -17 51 -20 163 -20 154 0 186 12 222 80 20 37 23 58 23
154 0 140 -19 188 -90 224 -38 19 -59 22 -155 21 -60 0 -121 -5 -135 -10z
m230 -229 l0 -90 -90 0 -90 0 0 90 0 90 90 0 90 0 0 -90z"/>
<path d="M1275 3293 c-35 -9 -87 -55 -101 -89 -9 -22 -14 -73 -14 -149 0 -133
15 -178 73 -214 31 -19 50 -21 169 -21 124 0 138 2 168 23 61 41 71 75 68 224
-3 143 -9 161 -72 207 -24 18 -44 21 -149 23 -67 1 -131 -1 -142 -4z m215
-233 l0 -90 -90 0 -90 0 0 90 0 90 90 0 90 0 0 -90z"/>
<path d="M1910 3278 c-33 -17 -51 -35 -68 -68 -21 -41 -23 -56 -20 -167 3
-134 11 -155 78 -200 30 -21 45 -23 164 -23 113 0 135 3 164 20 61 38 72 69
72 216 0 119 -2 134 -22 164 -46 67 -67 75 -201 78 -111 3 -126 1 -167 -20z
m240 -218 l0 -90 -90 0 -90 0 0 90 0 90 90 0 90 0 0 -90z"/>
<path d="M2573 3279 c-72 -35 -83 -65 -83 -220 0 -116 3 -138 20 -167 38 -61
69 -72 216 -72 119 0 134 2 164 23 69 46 75 64 75 210 0 156 -12 188 -85 225
-38 19 -60 22 -155 22 -91 0 -117 -4 -152 -21z m245 -221 l3 -88 -91 0 -90 0
0 90 0 91 88 -3 87 -3 3 -87z"/>
<path d="M3250 3289 c-14 -6 -36 -20 -48 -32 -45 -42 -52 -68 -52 -204 0 -144
11 -176 72 -213 29 -17 51 -20 163 -20 154 0 186 11 223 81 21 41 23 54 20
169 -3 113 -5 128 -27 159 -39 55 -88 71 -216 70 -60 0 -121 -5 -135 -10z
m230 -229 l0 -90 -90 0 -90 0 0 90 0 90 90 0 90 0 0 -90z"/>
<path d="M3925 3293 c-35 -9 -87 -55 -101 -89 -9 -22 -14 -73 -14 -149 0 -133
15 -178 73 -214 31 -19 50 -21 169 -21 124 0 138 2 168 23 59 39 70 75 70 218
0 114 -2 129 -22 159 -46 67 -66 75 -201 77 -67 1 -131 -1 -142 -4z m215 -233
l0 -90 -90 0 -90 0 0 90 0 90 90 0 90 0 0 -90z"/>
<path d="M572 2610 c-61 -37 -72 -69 -72 -213 0 -145 8 -169 67 -214 36 -27
39 -28 167 -28 155 0 187 12 224 85 19 38 22 60 22 154 0 127 -19 181 -74 216
-29 17 -50 20 -167 20 -116 0 -138 -3 -167 -20z m256 -217 l-3 -88 -87 -3 -88
-3 0 91 0 90 90 0 91 0 -3 -87z"/>
<path d="M1230 2608 c-61 -42 -71 -76 -68 -225 3 -147 12 -168 79 -208 29 -17
52 -20 159 -20 107 0 130 3 159 20 67 40 76 61 79 208 3 150 -7 184 -67 224
-31 21 -45 23 -171 23 -126 0 -140 -2 -170 -22z m260 -218 l0 -90 -90 0 -90 0
0 90 0 90 90 0 90 0 0 -90z"/>
<path d="M1893 2609 c-55 -35 -73 -89 -73 -215 0 -131 17 -178 76 -215 36 -22
49 -24 171 -24 146 0 164 6 211 75 20 30 22 45 22 164 0 147 -11 178 -72 216
-29 17 -51 20 -168 20 -119 0 -139 -3 -167 -21z m257 -219 l0 -91 -87 3 -88 3
-3 88 -3 87 91 0 90 0 0 -90z"/>
<path d="M580 1952 c-19 -9 -45 -32 -57 -51 -21 -31 -23 -45 -23 -164 0 -114
3 -134 22 -168 35 -62 81 -79 216 -79 131 0 167 11 208 66 29 37 29 39 29 175
0 153 -6 169 -75 217 -30 20 -45 22 -159 22 -100 0 -133 -4 -161 -18z m250
-222 l0 -90 -90 0 -90 0 0 90 0 90 90 0 90 0 0 -90z"/>
<path d="M1239 1948 c-20 -11 -47 -38 -59 -60 -20 -35 -21 -50 -18 -168 3
-140 10 -158 72 -204 25 -19 42 -21 166 -21 154 0 170 6 218 75 20 30 22 45
22 159 0 112 -3 130 -23 165 -36 64 -71 76 -217 76 -109 0 -130 -3 -161 -22z
m251 -218 l0 -90 -90 0 -90 0 0 90 0 90 90 0 90 0 0 -90z"/>
<path d="M1900 1948 c-66 -45 -75 -67 -78 -195 -4 -138 10 -188 66 -231 34
-26 42 -27 161 -30 116 -3 129 -1 170 20 70 37 81 69 81 223 0 146 -11 177
-72 215 -29 17 -51 20 -164 20 -119 0 -134 -2 -164 -22z m250 -218 l0 -90 -90
0 -90 0 0 90 0 90 90 0 90 0 0 -90z"/>
</g>
</svg>
