<?xml version="1.0" standalone="no"?>
<!DOCTYPE svg PUBLIC "-//W3C//DTD SVG 20010904//EN"
 "http://www.w3.org/TR/2001/REC-SVG-20010904/DTD/svg10.dtd">
<svg version="1.0" xmlns="http://www.w3.org/2000/svg"
 width="20.000000pt" height="20.000000pt" viewBox="0 0 820.000000 600.000000"
 preserveAspectRatio="xMidYMid meet">

<g transform="translate(0.000000,600.000000) scale(0.100000,-0.100000)"
fill="#000000" stroke="none">
<path d="M3955 5990 c-536 -48 -999 -208 -1427 -493 -542 -361 -950 -851
-1168 -1402 -159 -401 -225 -859 -191 -1325 53 -713 307 -1313 778 -1835 248
-274 510 -473 838 -635 401 -197 773 -283 1285 -297 518 -13 1222 58 1692 172
130 32 291 77 300 84 7 6 -166 679 -177 689 -3 3 -60 -11 -127 -31 -301 -90
-612 -150 -973 -188 -286 -30 -847 -34 -1025 -6 -498 77 -858 254 -1186 581
-353 354 -559 787 -630 1326 -24 183 -25 549 -1 700 68 434 237 794 540 1146
401 465 907 742 1485 809 470 55 1013 -31 1392 -220 230 -114 475 -308 621
-490 179 -224 297 -513 345 -845 24 -163 24 -465 1 -589 -24 -132 -77 -314
-132 -456 -151 -391 -337 -594 -555 -603 -99 -4 -135 14 -171 85 -33 65 -43
154 -30 261 6 44 69 380 141 744 192 971 219 1109 226 1156 l7 42 -392 0 -391
0 -4 -22 c-3 -13 -15 -72 -26 -133 -11 -60 -23 -121 -26 -135 l-6 -25 -21 30
c-109 153 -319 292 -519 344 -257 67 -575 40 -838 -72 -404 -171 -752 -574
-909 -1053 -77 -236 -106 -443 -98 -708 4 -149 9 -198 30 -276 50 -192 133
-360 249 -507 121 -153 306 -298 459 -360 250 -101 550 -109 861 -23 169 46
366 141 488 235 65 50 230 220 230 238 0 7 19 -24 41 -69 81 -164 219 -286
401 -352 67 -25 85 -27 228 -27 166 0 232 11 372 61 308 111 606 390 821 770
260 461 334 968 231 1593 -85 515 -304 955 -653 1315 -144 147 -248 235 -404
340 -348 235 -773 384 -1257 441 -154 18 -590 28 -725 15z m459 -2379 c162
-57 278 -187 326 -364 34 -125 33 -308 -3 -441 -83 -302 -275 -538 -502 -616
-161 -55 -322 -48 -461 20 -93 45 -155 106 -217 211 -66 112 -82 182 -81 349
1 127 5 156 28 235 55 180 188 388 314 490 71 57 182 112 264 130 88 21 255
13 332 -14z"/>
</g>
</svg>
