<?xml version="1.0" standalone="no"?>
<!DOCTYPE svg PUBLIC "-//W3C//DTD SVG 20010904//EN"
 "http://www.w3.org/TR/2001/REC-SVG-20010904/DTD/svg10.dtd">
<svg version="1.0" xmlns="http://www.w3.org/2000/svg"
 width="20.000000pt" height="20.000000pt" viewBox="0 0 920.000000 920.000000"
 preserveAspectRatio="xMidYMid meet">

<g transform="translate(0.000000,920.000000) scale(0.100000,-0.100000)"
fill="#000000" stroke="none">
<path d="M7360 8030 c-77 -19 -142 -44 -404 -154 -83 -35 -248 -105 -366 -154
-118 -50 -471 -198 -785 -330 -313 -132 -797 -335 -1075 -452 -278 -117 -721
-304 -985 -415 -264 -112 -622 -262 -795 -335 -173 -73 -403 -169 -510 -215
-107 -45 -491 -207 -853 -360 -362 -152 -686 -293 -720 -313 -181 -108 -289
-276 -289 -447 1 -157 48 -263 172 -385 114 -113 196 -154 515 -260 556 -185
1159 -390 1166 -397 4 -5 50 -152 104 -328 199 -656 426 -1386 449 -1447 57
-152 133 -271 208 -325 127 -91 306 -104 456 -33 61 29 122 82 687 599 116
106 215 195 222 198 6 2 49 -24 95 -59 461 -355 1214 -933 1258 -965 103 -76
279 -121 436 -110 217 15 378 99 499 261 95 128 90 109 225 806 28 146 62 319
75 385 13 66 54 273 90 460 36 187 106 545 155 795 49 250 168 860 265 1355
193 988 250 1282 325 1665 71 361 77 416 58 532 -20 124 -63 213 -143 294
-132 135 -331 185 -535 134z m107 -592 c-3 -13 -60 -302 -127 -643 -66 -341
-140 -721 -165 -845 -54 -275 -199 -1016 -226 -1160 -35 -181 -109 -559 -139
-710 -16 -80 -50 -253 -75 -385 -25 -132 -109 -559 -185 -950 -76 -390 -142
-727 -145 -747 -4 -21 -19 -49 -33 -64 -23 -22 -33 -25 -68 -21 -22 2 -52 10
-67 18 -15 8 -194 142 -397 299 -204 157 -415 319 -469 360 -54 41 -259 199
-456 350 -197 151 -364 279 -372 283 -9 5 -26 -3 -52 -25 -38 -33 -541 -491
-636 -579 -168 -155 -340 -309 -347 -309 -4 0 -5 6 -3 13 4 10 63 379 135 842
11 72 34 216 50 320 l30 190 48 45 c26 25 175 164 332 310 157 146 555 517
885 825 330 308 733 683 895 834 162 152 324 303 360 337 36 34 116 108 178
165 139 128 165 163 156 210 -9 47 -21 59 -59 59 -71 0 -34 21 -940 -540 -198
-122 -472 -292 -610 -378 -338 -210 -684 -424 -985 -610 -58 -36 -143 -88
-190 -117 -123 -77 -593 -368 -747 -463 -72 -45 -136 -82 -141 -82 -5 0 -182
58 -393 129 -211 71 -586 197 -833 280 -247 83 -451 153 -453 155 -2 2 43 22
99 46 57 23 166 69 243 102 122 52 314 133 663 279 133 56 237 100 602 254
435 184 568 240 675 285 50 21 151 63 225 95 74 31 187 78 250 105 63 27 304
128 535 225 231 97 474 199 540 227 66 28 165 70 220 93 55 24 154 65 220 93
193 81 494 207 720 302 190 80 669 281 980 411 66 28 149 63 185 79 82 36 94
37 87 8z"/>
</g>
</svg>
