<?xml version="1.0" standalone="no"?>
<!DOCTYPE svg PUBLIC "-//W3C//DTD SVG 20010904//EN"
 "http://www.w3.org/TR/2001/REC-SVG-20010904/DTD/svg10.dtd">
<svg version="1.0" xmlns="http://www.w3.org/2000/svg"
 width="150.000000pt" height="150.000000pt" viewBox="0 0 512.000000 512.000000"
 preserveAspectRatio="xMidYMid meet">

<g transform="translate(0.000000,512.000000) scale(0.100000,-0.100000)"
fill="#2DAEFF" stroke="none">
<path d="M992 4863 c-34 -31 -512 -839 -512 -867 0 -20 241 -315 1001 -1228
550 -662 1012 -1213 1025 -1225 l23 -22 -48 -16 c-34 -11 -64 -31 -94 -64 -52
-56 -87 -60 -107 -12 -17 42 -99 117 -155 143 -76 35 -191 33 -267 -5 -52 -25
-111 -79 -135 -121 -9 -16 -16 -14 -75 17 -37 19 -92 41 -123 48 l-58 13 -94
145 c-52 80 -110 162 -129 182 -33 34 -36 43 -59 180 -32 191 -50 242 -119
332 l-35 46 34 72 c19 39 39 97 46 128 17 82 7 243 -20 311 -32 82 -232 420
-262 443 -24 17 -31 18 -63 7 -34 -11 -41 -22 -132 -202 -117 -232 -133 -278
-141 -390 -6 -84 -7 -88 -29 -88 -35 0 -64 -34 -64 -74 0 -55 59 -416 77 -471
8 -27 24 -67 35 -88 l18 -37 -39 0 c-49 0 -80 -25 -87 -70 -5 -32 5 -52 111
-215 137 -212 214 -294 323 -347 l71 -34 -54 -27 c-65 -32 -89 -64 -80 -106 8
-38 11 -40 205 -159 174 -106 262 -152 295 -152 16 0 12 -8 -22 -40 -33 -30
-43 -47 -43 -70 0 -65 -2 -64 277 -164 84 -30 180 -60 213 -67 80 -16 190 -6
273 24 l65 24 5 -56 c7 -66 42 -121 106 -166 38 -27 51 -30 119 -32 l77 -1 51
-49 c34 -34 65 -53 97 -62 88 -25 188 6 245 75 30 36 32 37 105 38 63 1 80 5
123 31 60 38 102 103 111 172 l6 51 41 -18 c118 -52 256 -51 411 3 260 91 340
122 357 139 10 10 18 32 18 52 0 27 -8 41 -40 70 -45 40 -48 46 -22 46 31 0
118 47 301 160 196 121 211 137 186 198 -10 22 -30 39 -69 59 l-56 28 71 34
c112 54 167 113 306 324 68 104 126 201 129 216 9 43 -30 82 -88 88 -45 5 -46
6 -33 27 34 52 56 139 89 349 38 238 37 265 -3 286 -11 6 -29 11 -40 11 -19 0
-21 6 -21 73 0 40 -7 96 -15 123 -19 65 -208 456 -229 473 -21 18 -83 18 -101
0 -20 -21 -214 -354 -241 -415 -63 -143 -57 -320 17 -466 34 -68 35 -65 -27
-153 -49 -72 -69 -132 -94 -290 -22 -138 -23 -139 -69 -195 -25 -31 -84 -115
-131 -187 -83 -130 -85 -131 -127 -138 -24 -3 -78 -24 -121 -45 l-77 -40 -18
23 c-79 96 -147 137 -243 145 -118 9 -225 -43 -292 -143 -46 -69 -71 -74 -112
-23 -28 35 -77 65 -134 82 -17 6 -17 7 2 24 12 9 289 339 617 732 l595 715
-57 52 c-32 29 -61 51 -64 50 -4 -1 -210 -246 -459 -545 -249 -299 -454 -541
-456 -539 -2 2 140 433 315 958 l318 954 481 3 c265 1 482 0 482 -3 0 -3 -63
-81 -140 -173 l-140 -167 57 -52 c32 -29 61 -51 64 -50 4 1 100 113 213 250
150 180 206 254 206 273 0 28 -478 836 -512 867 -19 16 -108 17 -1568 17
-1460 0 -1549 -1 -1568 -17z m1158 -449 c-210 -168 -383 -304 -384 -302 -1 2
-125 139 -275 306 l-272 302 657 0 656 0 -382 -306z m1714 264 c-31 -33 -462
-512 -505 -562 -4 -4 -179 130 -388 298 l-381 306 657 0 657 0 -40 -42z
m-2545 -308 l262 -290 -440 0 -440 0 160 268 c178 296 188 312 193 312 2 0
121 -130 265 -290z m2934 -12 l166 -278 -440 0 -439 0 261 291 c211 234 264
288 274 277 7 -7 87 -138 178 -290z m-1402 -53 l281 -225 -572 0 -572 0 278
224 c154 124 285 225 292 225 7 1 139 -100 293 -224z m-829 -1345 c175 -525
317 -958 316 -961 -2 -3 -364 428 -806 958 l-802 963 487 -2 486 -3 319 -955z
m885 -65 c-188 -564 -344 -1025 -347 -1025 -3 0 -159 461 -347 1025 l-341
1025 688 0 688 0 -341 -1025z m-2033 101 c103 -176 117 -292 56 -435 -25 -56
-23 -55 -48 -41 -9 5 -60 30 -113 54 -104 47 -97 39 -114 138 -10 66 13 152
77 283 33 68 64 122 68 120 5 -3 38 -56 74 -119z m3514 -3 c70 -144 86 -211
72 -300 -6 -32 -10 -62 -10 -66 0 -6 -222 -117 -234 -117 -2 0 -15 26 -29 58
-36 79 -44 170 -23 252 15 56 141 299 157 300 3 0 33 -57 67 -127z m-3670
-572 c67 -29 140 -70 163 -89 77 -66 126 -165 143 -290 6 -39 4 -43 -11 -38
-48 15 -133 26 -204 26 -77 0 -78 0 -109 38 -49 60 -71 116 -91 235 -10 62
-21 127 -24 146 -4 18 -2 32 3 30 5 -2 64 -28 130 -58z m3797 -88 c-26 -151
-49 -213 -106 -278 l-32 -36 -66 6 c-44 5 -90 2 -140 -9 -41 -9 -76 -14 -78
-12 -2 2 1 34 7 72 14 93 53 168 119 234 47 46 77 64 186 112 71 31 131 56
131 55 1 -1 -8 -66 -21 -144z m-3514 -496 c84 -41 125 -81 205 -201 l74 -111
-27 -12 c-17 -7 -77 -12 -148 -12 -135 -1 -197 17 -275 79 -33 26 -200 255
-200 274 0 8 92 14 206 12 98 -2 117 -5 165 -29z m3482 20 c15 -4 -151 -244
-190 -276 -90 -74 -183 -97 -339 -82 -58 5 -108 12 -111 15 -10 10 140 227
181 262 49 42 110 72 167 82 36 7 263 5 292 -1z m-2396 -444 c48 -35 51 -49
16 -85 -41 -42 -63 -96 -63 -152 0 -54 -17 -63 -82 -46 -52 15 -105 68 -114
115 -14 75 24 151 91 181 40 19 120 12 152 -13z m1099 8 c80 -36 112 -122 76
-203 -25 -57 -71 -90 -133 -96 l-49 -5 0 49 c0 55 -34 137 -69 168 -27 24 -27
37 2 64 47 44 108 53 173 23z m-1642 -84 c108 -50 131 -70 148 -131 l16 -57
-67 -34 c-101 -50 -173 -68 -251 -63 -78 6 -133 29 -274 116 l-99 60 104 53
c153 77 199 90 293 84 52 -3 95 -12 130 -28z m2412 -38 c74 -34 136 -65 138
-68 8 -12 -234 -150 -290 -167 -96 -28 -184 -16 -297 38 l-95 46 14 53 c15 58
28 71 109 116 70 38 139 53 218 48 58 -3 90 -14 203 -66z m-1361 55 c14 -6 45
-53 45 -69 0 -3 -36 -5 -80 -5 -90 0 -100 11 -55 55 24 24 57 31 90 19z m-277
-126 c18 -18 -86 -122 -105 -106 -20 16 -16 75 7 98 22 22 79 27 98 8z m579
-10 c25 -24 30 -65 10 -92 -12 -16 -17 -13 -65 35 -55 54 -60 64 -39 72 30 13
72 6 94 -15z m-266 -108 c47 -13 114 -72 141 -124 29 -54 31 -155 4 -206 -47
-89 -119 -134 -216 -134 -79 0 -131 24 -184 86 -153 179 24 442 255 378z
m-764 -117 l62 -27 -5 -60 c-4 -42 -1 -75 10 -105 9 -24 15 -46 13 -47 -15
-15 -140 -35 -187 -31 -47 5 -255 72 -296 95 -15 9 99 102 126 103 8 0 58 22
110 49 52 27 97 49 100 49 3 1 33 -11 67 -26z m1532 -17 c50 -24 106 -49 125
-56 34 -11 136 -85 136 -99 0 -4 -64 -29 -142 -55 -132 -45 -147 -48 -213 -43
-38 3 -85 11 -103 18 -28 9 -33 15 -27 33 24 76 28 108 18 151 -7 33 -7 45 1
45 6 0 34 11 61 24 28 14 51 25 52 25 1 1 43 -19 92 -43z m-1239 -96 c0 -44
-2 -80 -5 -80 -16 0 -63 31 -69 45 -12 33 -5 66 19 90 44 45 55 35 55 -55z
m855 55 c27 -26 32 -70 12 -96 -15 -19 -57 -43 -64 -35 -4 4 -7 121 -4 151 2
14 35 2 56 -20z m-736 -336 c56 -57 56 -79 -2 -79 -41 0 -77 35 -77 75 0 24
14 55 26 55 0 0 24 -23 53 -51z m629 39 c20 -20 14 -67 -13 -93 -27 -28 -62
-32 -89 -12 -17 13 -15 17 30 64 55 57 55 58 72 41z m-276 -180 c-4 -43 -59
-70 -107 -52 -17 7 -48 60 -41 72 2 4 37 6 78 5 70 -1 73 -2 70 -25z"/>
<path d="M3907 3339 c-32 -38 -60 -75 -63 -82 -5 -15 103 -110 115 -102 4 2
35 37 69 78 l61 74 -42 34 c-92 75 -75 75 -140 -2z"/>
</g>
</svg>
