<?xml version="1.0" encoding="UTF-8"?>
<svg version="1.1" viewBox="0 0 1600 896" width="1280" height="1280" xmlns="http://www.w3.org/2000/svg">
<path transform="translate(1269,430)" d="m0 0c11.5 9.5 11.5 9.5 13 14 1.21 1.18 1.21 1.18 2.44 2.38 2.52 2.59 3.39 4.29 4.56 7.62 0.66 0.66 1.32 1.32 2 2 1.83 3.93 3.39 7.97 5 12 0.474 1.13 0.474 1.13 0.957 2.29 1.87 4.63 2.53 8.8 3.04 13.7 0.33 0.33 0.66 0.66 1 1 2.13 11.5 2.26 24.7-1 36-0.402 1.53-0.402 1.53-0.812 3.1-6.01 21.4-20.6 38.9-39.8 50.1-23.7 12.5-51.5 16.2-77.4 8.21-19.9-6.4-37.4-17.7-49.1-35.4-0.357-0.898-0.714-1.8-1.08-2.72-0.691-2.44-0.691-2.44-2.92-3.28-0.625-2.56-0.625-2.56-1-5-0.99-0.33-1.98-0.66-3-1-0.741-2.31-1.4-4.65-2-7-0.661-1.34-1.33-2.67-2-4-3.98-13.6-3.65-28.2-1-42 0.173-0.917 0.345-1.83 0.523-2.78 5-21.6 19.2-41.3 37.9-53 33.8-20.2 78.5-20.5 111 3.81zm-95.4 39.9c-8.33 11.1-10.8 24.4-9.56 38.1 1.64 9.86 4.51 17.2 12 24 0.65 0.63 1.3 1.26 1.97 1.91 10.7 10 21.6 13.6 36.2 13.4 11.4-0.908 22.2-5.42 30.2-13.7 4-4.8 7.37-9.79 9.68-15.6 0.354-0.864 0.709-1.73 1.07-2.62 3.89-14.2 1.1-30.2-5.46-43.1-6.08-9.92-15.4-16.1-26.4-19.4-19.2-4.53-37.1 1.87-49.6 17zm81.4 17.1 1 2z" fill="#0BADB4"/>
<path transform="translate(1313,415)" d="m0 0h49c0.495 1.98 0.495 1.98 1 4 2.13 5.48 4.84 10.7 7.5 15.9 2.38 4.71 4.52 9.43 6.4 14.4 1.44 3.54 3.04 7 4.66 10.5 0.293 0.626 0.587 1.25 0.889 1.9 1.33 2.83 2.7 5.64 4.11 8.44 1.43 2.89 2.67 5.8 3.88 8.79 2 4.83 4.16 9.48 6.56 14.1 1.21 2.37 2.42 4.75 3.62 7.12 0.886 1.74 0.886 1.74 1.79 3.51 1.59 3.37 1.59 3.37 2.67 6.73 0.621 2.78 0.621 2.78 2.91 3.63 0.33 0.33 0.66 0.66 1 1-0.00222-1.21-0.00444-2.42-0.00673-3.66-0.0202-11.4-0.0353-22.7-0.0451-34.1-0.00522-5.85-0.0123-11.7-0.0236-17.5-0.0108-5.64-0.0168-11.3-0.0194-16.9-0.00185-2.16-0.00547-4.31-0.0109-6.47-0.00723-3.01-0.00826-6.02-0.0078-9.04-0.0036-0.896-0.00719-1.79-0.0109-2.72 0.00137-0.82 0.00275-1.64 0.00417-2.49-9.22e-4 -0.713-0.00184-1.43-0.00279-2.16 0.123-1.88 0.123-1.88 1.12-4.88h41c-0.495 83.2-0.495 83.2-1 168h-48v-2c-0.99-0.33-1.98-0.66-3-1-0.124-1.13-0.247-2.27-0.375-3.44-0.309-1.76-0.309-1.76-0.625-3.56l-2-1c-1.43-2.59-2.77-5.16-4.06-7.81-0.364-0.725-0.728-1.45-1.1-2.2-1.65-3.33-2.97-6.37-3.83-9.99-0.649-1.34-1.32-2.67-2-4-0.289-0.784-0.578-1.57-0.875-2.38-1.07-2.74-1.07-2.74-3-5.31-2.24-3.49-3.65-6.88-5.13-10.7-2.21-5.71-4.8-11.2-7.56-16.7-5.55-11-5.55-11-6.44-16.9h-2c-1.65-4.29-3.3-8.58-5-13-1.72 3.45-1.18 7.43-1.21 11.2-0.0099 0.956-0.0198 1.91-0.03 2.9-0.0317 3.17-0.0564 6.34-0.0811 9.51-0.0206 2.19-0.0416 4.39-0.063 6.58-0.0553 5.78-0.105 11.6-0.153 17.4-0.0502 5.9-0.106 11.8-0.161 17.7-0.108 11.6-0.209 23.2-0.307 34.7h-40c-1.42-2.84-1.13-5.23-1.13-8.41-0.00156-0.665-0.00312-1.33-0.00473-2.02-4e-3 -2.24-8.23e-4 -4.48 0.00232-6.72-0.00135-1.6-0.00313-3.2-0.00531-4.8-0.00457-4.36-0.00279-8.71 3.79e-4 -13.1 0.00253-4.55 1.85e-4 -9.11-0.00139-13.7-0.00182-7.65 5.83e-4 -15.3 0.00534-22.9 0.00544-8.85 0.00368-17.7-0.00183-26.6-0.00453-7.59-0.00518-15.2-0.00256-22.8 0.00156-4.54 0.00176-9.07-0.00154-13.6-0.00288-4.27-8.93e-4 -8.53 0.00489-12.8 0.00132-1.57 9.38e-4 -3.14-0.00126-4.7-0.00272-2.14 6.83e-4 -4.27 0.00568-6.41 3.77e-4 -1.2 7.54e-4 -2.39 0.00114-3.63 0.126-2.91 0.126-2.91 1.13-5.91z" fill="#0BAFB6"/>
<path transform="translate(447,415)" d="m0 0c9.96-0.0698 19.9-0.123 29.9-0.155 4.63-0.0156 9.25-0.0367 13.9-0.0709 4.47-0.0328 8.95-0.0506 13.4-0.0583 1.7-0.0055 3.4-0.0162 5.09-0.0326 15.8-0.146 30.3 1.87 43.3 11.9 2.37 2.43 3.45 4.19 4.38 7.44h2c0.113 0.561 0.227 1.12 0.344 1.7 0.743 2.6 1.89 4.72 3.16 7.11 4.78 10.4 4.73 23.3 1.5 34.2-3.64 7.94-8.78 13.2-16 18 0.892 0.519 1.78 1.04 2.7 1.57 1.18 0.704 2.36 1.41 3.55 2.11 0.587 0.34 1.17 0.679 1.78 1.03 3.83 2.3 6.36 4.68 8.97 8.28 0.536 0.474 1.07 0.949 1.62 1.44 2 2.27 2.5 4.67 3.38 7.56 0.516 1.13 1.03 2.27 1.56 3.44 4.29 11.5 3.11 25.2-1.79 36.3-7.24 13.1-18.8 20.7-32.8 25.2-4.81 1.01-9.5 1.14-14.4 1.11-1.23 2.19e-4 -1.23 2.19e-4 -2.49 4.43e-4 -2.69-6.93e-4 -5.39-0.00846-8.08-0.0163-1.87-0.00187-3.75-0.00329-5.62-0.00429-4.92-0.00381-9.84-0.0136-14.8-0.0247-5.03-0.0102-10.1-0.0148-15.1-0.0198-9.86-0.0107-19.7-0.0278-29.6-0.0488-1.42-2.84-1.13-5.23-1.13-8.41-0.00156-0.665-0.00312-1.33-0.00473-2.02-4e-3 -2.24-8.23e-4 -4.48 0.00232-6.72-0.00135-1.6-0.00313-3.2-0.00531-4.8-0.00457-4.36-0.00279-8.71 3.79e-4 -13.1 0.00253-4.55 1.85e-4 -9.11-0.00139-13.7-0.00182-7.65 5.83e-4 -15.3 0.00534-22.9 0.00544-8.85 0.00368-17.7-0.00183-26.6-0.00453-7.59-0.00518-15.2-0.00256-22.8 0.00156-4.54 0.00176-9.07-0.00154-13.6-0.00288-4.27-8.93e-4 -8.53 0.00489-12.8 0.00132-1.57 9.38e-4 -3.14-0.00126-4.7-0.00272-2.14 6.83e-4 -4.27 0.00568-6.41 3.77e-4 -1.2 7.54e-4 -2.39 0.00114-3.63 0.126-2.91 0.126-2.91 1.13-5.91zm44 36c-1.07 3.22-1.13 5.56-1.13 8.95-0.00129 1.16-0.00258 2.32-0.00391 3.51 0.00387 1.21 0.00773 2.42 0.0117 3.67-0.00387 1.22-0.00773 2.44-0.0117 3.69 0.00129 1.16 0.00258 2.31 0.00391 3.5 0.00113 1.06 0.00226 2.13 0.00342 3.23-0.148 2.4-0.148 2.4 1.13 3.45 3.51 0.31 7.04 0.279 10.6 0.312 0.978 0.029 1.96 0.058 2.96 0.0879 7.42 0.0646 13-1.04 18.5-6.32 2.27-4.62 1.64-10.3 0.555-15.2-1.31-3.61-3.26-6.01-6.48-8.07-4.55-1.78-9.61-1.2-14.4-1.05-1.68 0.0271-1.68 0.0271-3.39 0.0547-2.75 0.047-5.49 0.113-8.24 0.195zm0 65c-1.11 3.34-1.13 5.87-1.13 9.38-0.00129 1.25-0.00258 2.5-0.00391 3.79 0.00387 1.31 0.00773 2.61 0.0117 3.96-0.00387 1.31-0.00773 2.63-0.0117 3.98 0.00129 1.25 0.00258 2.49 0.00391 3.78 0.00113 1.15 0.00226 2.3 0.00342 3.48-0.17 2.56-0.17 2.56 1.13 3.64 4.39 0.283 8.79 0.232 13.2 0.25 1.85 0.0309 1.85 0.0309 3.74 0.0625 1.79 0.00773 1.79 0.00773 3.62 0.0156 1.09 0.00935 2.19 0.0187 3.31 0.0283 4.98-0.564 8.24-2.59 12-5.79 3.51-4.53 2.77-10.2 2.12-15.6-0.837-4.16-2.35-6.48-5.72-9.17-5.73-3.12-12.4-2.24-18.7-2.08-1.96 0.0271-1.96 0.0271-3.95 0.0547-3.2 0.047-6.41 0.113-9.61 0.195z" fill="#0BADB4"/>
<path transform="translate(628,415)" d="m0 0h50c0.99 3.3 1.98 6.6 3 10 2.24 6.87 4.62 13.7 7 20.5 6.42 18.4 6.42 18.4 8.5 25.5 1.9 6.4 4.01 12.7 6.32 19 2.33 6.39 4.48 12.8 6.62 19.3 0.394 1.19 0.788 2.37 1.19 3.59 1.66 4.99 3.31 9.98 4.96 15 2.33 7.11 2.33 7.11 4.91 14.1 1.77 4.58 3.15 9.3 4.59 14 1.25 4.05 2.6 8.04 4.1 12 1.73 4.65 2.95 9.18 3.81 14.1-1 1-1 1-2.79 1.12-0.779-0.00222-1.56-0.00444-2.36-0.00673-0.881-7.55e-5 -1.76-1.51e-4 -2.67-2.29e-4 -0.957-0.00516-1.91-0.0103-2.9-0.0156-0.975-0.00141-1.95-0.00283-2.96-0.00429-3.13-0.00562-6.26-0.0182-9.38-0.0309-2.12-0.00501-4.23-0.00958-6.35-0.0137-5.2-0.0111-10.4-0.0278-15.6-0.0488v-2h-2c-0.182-0.905-0.182-0.905-0.367-1.83-0.168-0.799-0.335-1.6-0.508-2.42-0.162-0.789-0.325-1.58-0.492-2.39-0.539-2.34-0.539-2.34-1.6-4.25-1.37-2.79-1.97-5.58-2.66-8.61-0.26-1.12-0.521-2.25-0.789-3.41-0.586-3.09-0.586-3.09-0.586-7.09-25.2 0.495-25.2 0.495-51 1-4.46 15.3-4.46 15.3-9 31h-46c1.12-8.93 1.12-8.93 2.31-12.1 1.81-5.08 3.21-10.2 4.62-15.4 0.912-2.94 2.01-5.68 3.25-8.49 1.62-3.9 2.87-7.93 4.18-11.9 0.622-1.89 1.24-3.77 1.87-5.66 0.301-0.917 0.603-1.83 0.913-2.78 1.11-3.36 2.22-6.71 3.34-10.1 0.392-1.18 0.784-2.35 1.19-3.56 1-3 2-6 3-9 0.297-0.89 0.593-1.78 0.899-2.7 0.607-1.82 1.21-3.64 1.82-5.46 1.34-4.02 2.68-8.04 4.01-12.1 2.13-6.45 4.32-12.9 6.69-19.2 1.02-2.81 1.96-5.63 2.89-8.46 0.589-1.77 1.18-3.54 1.77-5.31 0.329-0.988 0.659-1.98 0.998-2.99 0.706-2.12 1.41-4.24 2.12-6.36 1.58-4.73 3.15-9.45 4.71-14.2 0.23-0.694 0.459-1.39 0.696-2.1 0.598-1.81 1.2-3.62 1.79-5.43 0.91-2.63 0.91-2.63 1.91-4.63zm25 48c-2.89 6.17-4.66 12.5-6.44 19.1-0.616 2.24-1.23 4.47-1.85 6.71-0.294 1.07-0.588 2.14-0.891 3.25-1.31 4.75-2.7 9.48-4.1 14.2-0.766 2.92-1.35 5.78-1.73 8.77 1.09 1.32 1.09 1.32 3.78 1.11 1.81-0.00786 1.81-0.00786 3.67-0.0159 1.31-0.00322 2.61-0.00645 3.96-0.00977 1.39-0.00836 2.78-0.0168 4.17-0.0254 1.39-0.00501 2.79-0.00958 4.18-0.0137 3.42-0.0118 6.84-0.0283 10.3-0.0488-0.277-1.07-0.554-2.15-0.84-3.25-0.366-1.44-0.732-2.87-1.1-4.31-0.182-0.704-0.365-1.41-0.553-2.13-0.862-3.4-1.56-6.65-2.01-10.1-0.294-3.31-0.294-3.31-2.5-6.16-0.604-2.38-1.14-4.78-1.62-7.19-0.26-1.27-0.521-2.54-0.789-3.86-0.193-0.976-0.387-1.95-0.586-2.96h-2c-0.049-0.771-0.098-1.54-0.148-2.34-0.0748-1-0.15-2.01-0.227-3.04-0.0696-0.998-0.139-2-0.211-3.02-0.178-2.76-0.178-2.76-2.41-4.6z" fill="#0BAEB5"/>
<path transform="translate(920,415)" d="m0 0h51c0.99 4.95 0.99 4.95 2 10 0.652 2.09 1.31 4.17 2.03 6.23 1.29 3.7 2.52 7.42 3.75 11.1 0.519 1.56 1.04 3.12 1.56 4.68 0.802 2.41 1.6 4.82 2.4 7.23 2.97 8.95 5.96 17.9 9.26 26.7 2.49 6.67 4.75 13.4 6.81 20.2 2.28 7.44 4.82 14.8 7.3 22.2 0.863 2.58 1.72 5.16 2.57 7.74 0.265 0.8 0.53 1.6 0.803 2.43 0.493 1.49 0.985 2.98 1.48 4.47 1.14 3.45 2.34 6.85 3.65 10.2 1.37 3.6 2.18 7.13 2.87 10.9 0.424 2.11 0.424 2.11 2.53 3.88 0.75 2.33 1.43 4.69 2.06 7.06 0.837 4.29 0.837 4.29 2.94 7.94 0.0406 1.67 0.0427 3.33 0 5-6.37 0.0506-12.7 0.0857-19.1 0.11-2.17 0.0101-4.34 0.0237-6.51 0.041-3.11 0.0242-6.23 0.0356-9.34 0.0444-0.974 0.0103-1.95 0.0206-2.95 0.0313-0.901 1.51e-4 -1.8 3.02e-4 -2.73 4.58e-4 -0.795 0.00444-1.59 0.00888-2.41 0.0135-1.95-0.241-1.95-0.241-3.95-2.24-0.347-2-0.68-4-1-6-0.309-0.592-0.619-1.18-0.938-1.79-1.36-2.82-1.91-5.59-2.56-8.64-0.697-3.27-1.37-6.26-2.66-9.35-0.278-0.731-0.557-1.46-0.844-2.21 0.33-0.66 0.66-1.32 1-2-25.2 0.495-25.2 0.495-51 1-4.46 15.3-4.46 15.3-9 31h-46c-1.23-3.68-0.294-5.22 1.11-8.7 0.912-2.37 1.63-4.74 2.32-7.18 0.972-3.33 2.09-6.49 3.44-9.69 1.84-4.45 3.19-8.94 4.5-13.6 2.04-7.19 4.49-14.1 7.2-21.1 1.62-4.21 3.02-8.49 4.43-12.8 0.633-1.89 1.27-3.78 1.9-5.67 4.34-12.9 4.34-12.9 8.41-25.9 0.948-3.15 1.94-6.03 3.25-9.06 1.63-3.83 2.64-7.67 3.7-11.7 0.797-2.88 1.77-5.61 2.86-8.39 3.21-8.34 6.1-16.8 8.88-25.3 0.99-2.97 1.98-5.94 3-9zm25 48c-2.76 5.88-4.37 11.8-5.94 18.1-1.9 7.47-3.92 14.8-6.25 22.2-1.18 3.87-2.09 7.7-2.82 11.7 1.09 1.32 1.09 1.32 3.78 1.11 1.81-0.00786 1.81-0.00786 3.67-0.0159 1.31-0.00322 2.61-0.00645 3.96-0.00977 1.39-0.00836 2.78-0.0168 4.17-0.0254 1.39-0.00501 2.79-0.00958 4.18-0.0137 3.42-0.0118 6.84-0.0283 10.3-0.0488-0.312-1.73-0.625-3.46-0.938-5.19-0.174-0.963-0.348-1.93-0.527-2.92-0.488-2.64-1-5.27-1.54-7.89h-2c-0.121-0.678-0.242-1.36-0.367-2.05-1.14-6.33-2.35-12.6-3.63-18.9h-2c-0.121-0.82-0.242-1.64-0.367-2.48-0.168-1.08-0.335-2.16-0.508-3.27-0.162-1.07-0.325-2.13-0.492-3.23-0.565-2.69-1.27-4.65-2.63-7.02z" fill="#0BAEB5"/>
<path transform="translate(1e3 415)" d="m0 0h124c-0.33 13.2-0.66 26.4-1 40h-39c-0.33 42.2-0.66 84.5-1 128h-44c-1.25-2.49-1.14-4.19-1.16-6.99-0.00979-1.05-0.0196-2.11-0.0297-3.2-0.00576-1.16-0.0115-2.32-0.0174-3.52-0.0099-1.22-0.0198-2.44-0.03-3.7-0.0262-3.35-0.0481-6.7-0.068-10-0.0218-3.5-0.0492-7-0.0761-10.5-0.0499-6.63-0.0949-13.3-0.138-19.9-0.0494-7.54-0.104-15.1-0.16-22.6-0.114-15.5-0.22-31-0.323-46.6-18.3-0.495-18.3-0.495-37-1-1.55-3.09-1.14-6.35-1.13-9.75-9.57e-4 -0.767-0.00191-1.53-0.0029-2.32-6.81e-4 -1.62 0.00117-3.25 0.00534-4.87 0.00534-2.48 5.59e-5 -4.97-0.00635-7.45 6.61e-4 -1.58 0.00194-3.15 0.00391-4.73-0.00202-0.744-0.00405-1.49-0.00613-2.25 0.0143-3.14 0.137-5.62 1.14-8.62z" fill="#0BADB4"/>
<path transform="translate(745,415)" d="m0 0h45v128c30.2 0.495 30.2 0.495 61 1v39h-106c-1.42-2.84-1.13-5.23-1.13-8.41-0.00156-0.665-0.00312-1.33-0.00473-2.02-4e-3 -2.24-8.23e-4 -4.48 0.00232-6.72-0.00135-1.6-0.00313-3.2-0.00531-4.8-0.00457-4.36-0.00279-8.71 3.79e-4 -13.1 0.00253-4.55 1.85e-4 -9.11-0.00139-13.7-0.00182-7.65 5.83e-4 -15.3 0.00534-22.9 0.00544-8.85 0.00368-17.7-0.00183-26.6-0.00453-7.59-0.00518-15.2-0.00256-22.8 0.00156-4.54 0.00176-9.07-0.00154-13.6-0.00288-4.27-8.93e-4 -8.53 0.00489-12.8 0.00132-1.57 9.38e-4 -3.14-0.00126-4.7-0.00272-2.14 6.83e-4 -4.27 0.00568-6.41 3.77e-4 -1.2 7.54e-4 -2.39 0.00114-3.63 0.126-2.91 0.126-2.91 1.13-5.91z" fill="#0BAEB4"/>
<path transform="translate(149,419)" d="m0 0c8.61-0.783 16.9 2.04 23.7 7.38 1.07 0.899 1.07 0.899 2.16 1.82 7.24 6.09 13.9 10.2 23.6 9.75 6.93-0.838 11-3.85 16.3-8.13 11.2-8.8 21-12.2 35.3-10.8 8.69 1.47 14.9 5.86 21.8 11.1 7.82 5.88 13.5 8.73 23.4 7.57 6.4-1.5 11.5-5.35 16.3-9.73 8.4-7.6 18.8-9.44 29.7-9.21 10.6 0.735 17.7 5.94 25.9 12.3 1.55 1.14 3.11 2.27 4.69 3.38 0.965 0.692 0.965 0.692 1.95 1.4 3.15 1.75 3.15 1.75 10.4 3.23-0.33 8.25-0.66 16.5-1 25-11.5-1.28-17.8-3.63-26.6-11-6.91-5.69-12.7-8.44-21.7-8.3-8.12 1.01-14.1 6.34-20.1 11.4-8.97 6.7-18.6 8.7-29.6 7.93-10.6-1.63-18.6-7.2-26.8-13.8-5.71-4.5-10.4-5.4-17.5-5.55-6.4 0.873-11.1 4.21-15.9 8.24-10.3 8.27-20.5 12.1-33.8 11.1-10.1-1.65-17.8-6.35-25.6-12.7-4.52-3.62-8.82-5.58-14.5-6.76-0.605-0.183-1.21-0.366-1.83-0.555-1.15-2.31-1.13-3.65-1.13-6.21-0.00129-0.833-0.00258-1.67-0.00391-2.52 0.00387-0.871 0.00773-1.74 0.0117-2.64-0.00387-0.864-0.00773-1.73-0.0117-2.62 0.00129-0.835 0.00258-1.67 0.00391-2.53 0.00113-0.762 0.00226-1.52 0.00342-2.31 0.13-2.17 0.533-4.08 1.13-6.17z" fill="#0BA7AE"/>
<path transform="translate(149,473)" d="m0 0c12.6 0.537 20.6 5.01 30.3 12.8 6.93 5.48 12.9 7.05 21.7 6.24 6.54-1.48 10.6-5 15.6-9.3 8.78-7.55 17.9-10.2 29.4-9.95 10.8 0.884 19.4 6.26 27.7 12.9 5.99 4.73 11 6.63 18.6 6.71 7.19-1.05 12.2-4.17 17.6-8.84 9.97-8.21 20.1-11.7 33.1-10.6 10.2 1.86 17 6.58 25 13 1.4 1.01 2.81 1.99 4.25 2.94 0.812 0.539 0.812 0.539 1.64 1.09 3.19 1.47 6.7 2.12 10.1 2.97-0.33 8.25-0.66 16.5-1 25-12.8-1.28-20.1-5.1-29.8-13.2-5.97-4.82-11.7-6.26-19.2-5.77-7.37 1.07-12.3 5.36-17.8 9.94-10.2 8.28-20.2 10-33.2 9.06-7.47-1.48-13-4.32-18.8-9.19-7.16-6.02-13.8-10.1-23.4-9.87-8.64 1.01-14.9 6.52-21.4 11.8-3.96 3.17-7.47 4.77-12.3 6.25-0.599 0.183-1.2 0.366-1.82 0.555-10.6 2.17-21.5 0.651-30.6-5.24-2.46-1.73-4.84-3.53-7.22-5.38-5.36-4.1-9.82-6.88-16.4-8.37-0.626-0.188-1.25-0.376-1.9-0.57-1.18-2.37-1.13-3.83-1.13-6.46-0.00129-0.882-0.00258-1.76-0.00391-2.67 0.0058-1.39 0.0058-1.39 0.0117-2.8-0.00387-0.92-0.00773-1.84-0.0117-2.79 0.00129-0.884 0.00258-1.77 0.00391-2.68 0.00113-0.809 0.00226-1.62 0.00342-2.45 0.129-2.14 0.129-2.14 1.13-5.14z" fill="#0BA8AF"/>
<path transform="translate(149,527)" d="m0 0c12.5 1.44 19.5 4.47 29.2 12.4 6.53 5.26 12.5 7.22 20.9 6.95 8.11-0.936 13.7-6.41 20-11.2 9.41-6.93 19.4-8.97 31-7.65 7.85 1.43 13.6 4.69 19.7 9.72 7.53 6.1 13.2 9.27 23 9.15 8.47-0.892 14.5-6.23 20.8-11.5 8.91-7.02 19.3-8.65 30.4-7.4 8.35 1.53 14.4 5.31 20.9 10.5 1.63 1.27 3.28 2.52 4.94 3.75 1.13 0.859 1.13 0.859 2.28 1.73 3.62 2.14 3.62 2.14 11.8 3.52-0.33 7.92-0.66 15.8-1 24-11.9 0-19-4.25-27.9-11.6-7.09-5.5-12.3-7.21-21.4-6.95-7.83 1.07-12.8 5.71-18.7 10.6-9.99 8.07-20.6 9.16-33.1 7.88-10-1.63-17.6-8.56-25.3-14.7-6.3-4.56-13.3-3.88-20.7-3.27-6.14 1.55-10 5.82-14.6 10-9.75 7.86-21.4 9.04-33.4 7.97-6.41-1.44-11.7-4.06-17-8-1.87-1.38-3.75-2.75-5.62-4.12-0.92-0.683-1.84-1.37-2.79-2.07-3.6-2.52-5.89-3.71-10.3-4.3-1.09-0.165-2.19-0.33-3.31-0.5-1.18-2.37-1.13-3.83-1.13-6.46-0.00129-0.882-0.00258-1.76-0.00391-2.67 0.0058-1.39 0.0058-1.39 0.0117-2.8-0.00387-0.92-0.00773-1.84-0.0117-2.79 0.00129-0.884 0.00258-1.77 0.00391-2.68 0.00113-0.809 0.00226-1.62 0.00342-2.45 0.129-2.14 0.129-2.14 1.13-5.14z" fill="#0BA8AE"/>
<path transform="translate(597 332)" d="m0 0c6.11 4.36 10.3 9.61 12.1 17 1.42 9.22 0.929 16.8-4.6 24.6-5.69 6.44-12.2 10.5-20.8 11.4-9.61 0.427-17.9-0.802-25.7-6.88-2.14-2.09-3.99-3.97-5.56-6.5v-2h-2c-3.62-8.45-3.86-14.9-0.965-23.6 3-7.41 7.94-11.7 15-15.4 10.7-4.54 22.3-4.54 32.5 1.44zm-30.8 14.3c-2.97 5.11-3.85 10.5-2.68 16.3 2.04 3.04 2.04 3.04 5 5 0.763 0.577 1.53 1.15 2.31 1.75 5.13 2.39 9.61 2.87 14.9 1.12 4.35-1.85 6.65-4.67 8.75-8.88 0.761-7.11-1.09-12-5-18-3.07-2.98-5.74-3.22-9.88-3.44-5.74 0.213-9.85 1.5-13.4 6.13z" fill="#0BABB2"/>
<path transform="translate(918 333)" d="m0 0c5.9 4.77 9.25 11 11.6 18.1 0.147 2.43 0.221 4.87 0.25 7.31 0.0258 1.3 0.0516 2.59 0.0781 3.93-0.345 3.96-1.33 6.37-3.33 9.76h-2c-0.242 0.759-0.485 1.52-0.734 2.3-1.45 3.1-2.66 4.07-5.52 5.89-0.748 0.489-1.5 0.977-2.27 1.48-7.62 4.08-16 4.53-24.5 3.33-7.34-2.32-14.6-6.54-19-13v-3h-2c-3.62-7.91-2.75-16.8 0.0312-24.9 1.45-3.17 3.25-4.94 5.97-7.11 0.577-0.503 1.15-1.01 1.75-1.52 11.7-9.65 26.6-9.82 39.6-2.6zm-31.7 14.8c-2.62 5.25-3.15 10.4-2.25 16.2 3.23 4.52 8.13 7.2 13.6 8.19 6.29 0 10.1-1.48 15-5.44 3.35-4.55 2.77-10.2 2-15.6-1.26-4.01-3.21-6.42-6.62-8.94-8.96-2.82-15.4-1.61-21.7 5.56z" fill="#0BABB2"/>
<path transform="translate(619,329)" d="m0 0c3.95-0.1 7.89-0.172 11.8-0.22 1.99-0.0296 3.98-0.0805 5.97-0.132 8.4-0.0849 16.4 0.232 23.1 5.97 1.62 1.69 2.87 3.42 4.13 5.39 0.619 0.901 0.619 0.901 1.25 1.82 4.18 7.41 3.98 17 2.75 25.2-2.24 6.86-6.49 11-12.5 14.8-7.9 3.6-15.5 3.4-24 3.28-1.2-0.00902-2.41-0.018-3.65-0.0273-2.95-0.0234-5.9-0.0562-8.85-0.0977-0.988-2.96-1.13-4.9-1.13-7.99-0.00315-1.01-0.0063-2.03-0.00955-3.07 0.00202-1.09 0.00405-2.19 0.00613-3.31-9.57e-4 -1.12-0.00191-2.25-0.0029-3.4-6.81e-4 -2.37 0.00117-4.75 0.00534-7.12 0.00535-3.65 4.89e-5 -7.29-0.00635-10.9 6.61e-4 -2.3 0.00194-4.61 0.00391-6.91-0.00202-1.1-0.00405-2.19-0.00613-3.32 0.00315-1.01 0.0063-2.02 0.00955-3.06 7.96e-4 -0.893 0.00159-1.79 0.00241-2.7 0.127-2.16 0.127-2.16 1.13-4.16zm16 12c-2.21 6.2-2.24 11.9-2.12 18.4 0.00902 1.02 0.018 2.04 0.0273 3.08 0.0234 2.49 0.0562 4.99 0.0977 7.48 3.46 1.73 7.21 1.36 11 1 4.23-1.57 6.73-3.09 9-7 0.4-3.4 0.4-3.4 0.25-7.06-0.0155-1.23-0.0309-2.46-0.0469-3.72-0.0666-3.23-0.0666-3.23-1.2-6.21h-2c-0.186-0.619-0.371-1.24-0.562-1.88-2.2-3.25-4.68-3.37-8.44-4.12-3.29-0.168-3.29-0.168-6 0z" fill="#0BADB4"/>
<path transform="translate(790,329)" d="m0 0h17c1.28 3.84 2.54 7.67 3.77 11.5 0.329 1.03 0.658 2.06 0.997 3.13 0.345 1.08 0.69 2.17 1.05 3.28 2.29 7.18 4.59 14.4 7 21.5 1.85 5.49 3.58 11 5.19 16.6-2.27 0.135-4.54 0.232-6.81 0.312-1.9 0.087-1.9 0.087-3.83 0.176-3.36-0.488-3.36-0.488-5.24-2.7-1.11-2.79-1.11-2.79-2.11-7.79-5.61-0.33-11.2-0.66-17-1-0.99 3.63-1.98 7.26-3 11h-14c-1.08-6.5-1.08-6.5 1.11-11 1.34-2.99 2.16-6.11 3.05-9.26 0.682-2.2 1.43-4.32 2.25-6.47 1.96-5.15 3.65-10.4 5.34-15.6 0.371-1.13 0.371-1.13 0.75-2.28 0.217-0.667 0.433-1.33 0.656-2.02 1.15-3.16 2.52-6.23 3.84-9.32zm8 16c-2.57 5.26-3.95 10.1-4 16 0.983 1.21 0.983 1.21 2.85 1.1 2.05-0.0326 4.1-0.0651 6.15-0.0977 0.234-4.79 0.234-4.79-2-9-0.165-1.2-0.33-2.39-0.5-3.62-0.165-1.11-0.33-2.23-0.5-3.38l-2-1z" fill="#0BAEB5"/>
<path transform="translate(697 329)" d="m0 0c0.686-0.029 1.37-0.058 2.08-0.0879 2.01-0.0254 2.01-0.0254 5.55 0.4 2.54 2.7 3.65 5.41 4.72 8.92 0.439 1.42 0.439 1.42 0.887 2.86 0.443 1.47 0.443 1.47 0.895 2.97 1.99 6.5 4.03 12.9 6.5 19.2 5.56 14.7 5.56 14.7 6 22h-14v-3h-2c-0.66-2.31-1.32-4.62-2-7-5.61-0.33-11.2-0.66-17-1-0.66 3.63-1.32 7.26-2 11h-14c-1.61-8.07 1.68-14.5 5.03-21.8 2.93-6.63 4.62-13.6 6.23-20.6 0.746-2.6 0.746-2.6 2.75-5.6 0.683-2.33 1.35-4.66 2-7 1.99-1.99 5.67-1.27 8.38-1.31zm0.625 16.3c-3.21 5.39-4.07 10.8-5 17h10c-0.724-5.91-2.12-11.4-4-17h-1z" fill="#0BAEB5"/>
<path transform="translate(536 331)" d="m0 0c2.66 1.81 3.31 3.24 4 6.36-0.898 2.02-0.898 2.02-2.38 3.81-0.723 0.907-0.723 0.907-1.46 1.83-0.384 0.447-0.768 0.895-1.16 1.36-4.6-0.767-4.6-0.767-6.81-2.06-3.39-1.45-6.52-1.06-10.2-0.938 0.33 2.31 0.66 4.62 1 7 1.16 0.238 1.16 0.238 2.34 0.48 8.7 1.95 15.7 3.94 20.7 11.7 2.48 5.07 2.68 9.45 0.938 14.8-2.43 4.3-5.95 7.87-10.7 9.56-8.98 1.7-18.5 1.68-26.3-3.56-1.89-1.57-3.39-3.13-5-5 0.956-1.29 1.92-2.58 2.88-3.88 0.534-0.719 1.07-1.44 1.62-2.18 1.51-1.95 1.51-1.95 3.51-3.95 1.39 0.959 1.39 0.959 2.81 1.94 4.06 2.63 6.65 3.19 11.4 3.12 0.901-0.00902 1.8-0.018 2.73-0.0273 0.687-0.0116 1.37-0.0232 2.08-0.0352-0.33-2.31-0.66-4.62-1-7-0.797-0.182-1.59-0.364-2.41-0.551-9.96-2.36-16.6-4.83-22.6-13.4-1.84-4.69 0.11-8.59 2-13 6.7-11.6 21.1-10.6 32-6.36z" fill="#0BAAB1"/>
<path transform="translate(973,332)" d="m0 0c1.12 3.37 0.982 4.64 0 8-1.56 2.31-1.56 2.31-3 4-4.6-0.767-4.6-0.767-6.81-2.06-3.39-1.45-6.52-1.06-10.2-0.938-0.33 1.65-0.66 3.3-1 5h2v2c0.75 0.147 1.5 0.294 2.27 0.445 7.37 1.62 13.8 3.72 19.7 8.55 3.11 5.03 2.87 12.2 2 18-2.18 4.42-6 7.89-10.7 9.56-8.98 1.7-18.5 1.68-26.3-3.56-1.89-1.57-3.39-3.13-5-5 0.956-1.29 1.92-2.58 2.88-3.88 0.534-0.719 1.07-1.44 1.62-2.18 1.51-1.95 1.51-1.95 3.51-3.95 1.39 0.959 1.39 0.959 2.81 1.94 4.06 2.63 6.65 3.19 11.4 3.12 0.901-0.00902 1.8-0.018 2.73-0.0273 0.687-0.0116 1.37-0.0232 2.08-0.0352-0.33-2.31-0.66-4.62-1-7-0.797-0.182-1.59-0.364-2.41-0.551-9.95-2.36-16.7-4.77-22.6-13.4-1.47-3.78-1.49-5.71-0.0547-9.48 3.02-5.82 6.36-9.19 12.4-11.7 8.15-2.4 16.2-0.81 23.6 3.22z" fill="#0BA9B0"/>
<path transform="translate(489,331)" d="m0 0c2.62 2.19 2.62 2.19 4 4-1.65 3.58-3.78 6.75-6 10-0.763-0.309-1.53-0.619-2.31-0.938-7.28-2.88-14.4-3.14-21.7-0.0625v2c-0.66 0.33-1.32 0.66-2 1-2.49 5.25-3.37 11.3-2 17 3.35 3.88 7.9 6.05 12.9 7.12 5.35 0.358 10.3-2.06 15.1-4.12 0.289 0.619 0.577 1.24 0.875 1.88 1.06 2.26 1.06 2.26 3.12 4.12 1.03 1.98 2.04 3.98 3 6-9.41 5.99-17.2 7.31-28 6-9.22-2.25-15.4-7.52-21-15-3.11-5.6-3.68-13-2.31-19.2 2.43-7.96 7.27-15 14.6-19.1 10.3-4.77 21.1-5.32 31.7-0.707z" fill="#0BAAB1"/>
<path transform="translate(825,329)" d="m0 0c5.52-0.074 11-0.129 16.6-0.165 1.88-0.0151 3.76-0.0356 5.63-0.0615 2.7-0.0363 5.39-0.0534 8.09-0.0667 1.26-0.0232 1.26-0.0232 2.55-0.0469 2.37-6.87e-4 2.37-6.87e-4 6.17 0.34 2.8 4.2 2.14 7 2 12h-13c-0.33 14.5-0.66 29-1 44h-14c-0.886-2.66-1.15-4.28-1.21-7.01-0.0199-0.801-0.0399-1.6-0.0604-2.43-0.0167-0.859-0.0334-1.72-0.0506-2.6-0.0208-0.884-0.0416-1.77-0.063-2.68-0.0654-2.82-0.124-5.64-0.183-8.47-0.0432-1.91-0.0868-3.83-0.131-5.74-0.107-4.69-0.208-9.38-0.307-14.1-1.17-0.0735-1.17-0.0735-2.37-0.148-1.01-0.0748-2.02-0.15-3.07-0.227-1.01-0.0696-2.02-0.139-3.06-0.211-0.826-0.137-1.65-0.273-2.5-0.414-1.12-2.25-1.13-3.51-1.12-6-0.00387-1.05-0.00387-1.05-0.00781-2.12 0.133-1.88 0.133-1.88 1.13-3.88z" fill="#0BAFB6"/>
<path transform="translate(732,329)" d="m0 0c1.96-0.0269 3.92-0.0464 5.88-0.0625 1.09-0.0116 2.18-0.0232 3.3-0.0352 2.82 0.0977 2.82 0.0977 4.82 1.1 0.33 13.2 0.66 26.4 1 40 6.93 0.33 13.9 0.66 21 1-0.33 4.62-0.66 9.24-1 14h-35c-1.25-2.49-1.13-4.18-1.13-6.97-0.00315-1.03-0.0063-2.07-0.00955-3.13 0.00202-1.12 0.00405-2.24 0.00613-3.4-9.57e-4 -1.15-0.00191-2.29-0.0029-3.47-6.81e-4 -2.43 0.00117-4.86 0.00534-7.28 0.00535-3.73 5.37e-5 -7.45-0.00635-11.2 6.61e-4 -2.35 0.00194-4.71 0.00391-7.06-0.00202-1.12-0.00405-2.24-0.00613-3.4 0.00315-1.03 0.0063-2.07 0.00955-3.13 7.96e-4 -0.913 0.00159-1.83 0.00241-2.77 0.127-2.2 0.127-2.2 1.13-4.2z" fill="#0BACB3"/>
<path transform="translate(703 309)" d="m0 0c3.34 0.314 5.82 1.18 8.75 2.81h-2c-0.309 1.02-0.309 1.02-0.625 2.06-1.87 3.99-3.69 7.38-7.38 9.94-3.74 0.586-7.25 0.421-11 0-1-3-1-3 0.301-5.7 6.1-9.06 6.1-9.06 11.9-9.11z" fill="#0BAEB5"/>
<path transform="translate(1117,497)" d="m0 0h1v7h-1v-7z" fill="#0CB0B7"/>
<path transform="translate(733,582)" d="m0 0 2 1z" fill="#000102"/>
</svg>
