<?xml version="1.0" encoding="UTF-8"?>
<svg version="1.1" viewBox="0 0 1600 264" width="1280" height="1280" xmlns="http://www.w3.org/2000/svg">
<path transform="translate(1493,69)" d="m0 0c2.39 2.48 4.24 5.05 6 8 0.619 0.99 1.24 1.98 1.88 3 0.371 0.66 0.743 1.32 1.12 2 3.59-0.555 4.75-1.61 6.88-4.5 8.86-10.6 22.6-16.9 36.1-18.5 12.8-0.734 26.3 0.277 37 8 9 9.15 9 9.15 9 14h2c0.988 3.18 1.96 6.37 2.94 9.56 0.278 0.895 0.556 1.79 0.842 2.71 0.401 1.32 0.401 1.32 0.811 2.67 0.246 0.801 0.492 1.6 0.746 2.43 1.65 6.53 1.8 12.9 1.78 19.6 1.46e-4 0.976 2.92e-4 1.95 4.43e-4 2.96-6.93e-4 3.21-0.00846 6.42-0.0163 9.63-0.00187 2.23-0.00329 4.46-0.00429 6.7-0.00381 5.86-0.0136 11.7-0.0247 17.6-0.0102 5.99-0.0148 12-0.0198 18-0.0107 11.7-0.0278 23.5-0.0488 35.2-3.65 0.0588-7.29 0.0939-10.9 0.125-1.02 0.0168-2.04 0.0335-3.1 0.0508-14.5 0.0924-14.5 0.0924-20.3-3.69-0.527-0.572-1.05-1.14-1.6-1.73-0.545-0.562-1.09-1.12-1.65-1.7-3.45-5-3.7-10.3-3.67-16.2-0.00543-1.19-0.00543-1.19-0.011-2.41-0.00687-1.72-0.0094-3.43-0.00805-5.15 9.7e-4 -2.73-0.012-5.45-0.029-8.18-0.0461-7.75-0.0709-15.5-0.0775-23.2-0.00504-4.75-0.0294-9.49-0.0653-14.2-0.00975-1.8-0.0122-3.6-0.00683-5.4 0.421-15.3 0.421-15.3-6.61-28.4-8.53-2.54-16.2-0.92-23.9 3.12-5.41 3-8.37 6.37-11 12-0.423 0.839-0.846 1.68-1.28 2.54-9.45 19.5-6.95 43.4-7.28 64.5-0.0433 2.62-0.0869 5.24-0.131 7.86-0.106 6.36-0.208 12.7-0.307 19.1-3.1 1.55-6.38 1.18-9.78 1.2-0.769 0.0057-1.54 0.0114-2.33 0.0173-1.63 0.00945-3.25 0.016-4.88 0.0198-2.5 0.00973-4.99 0.0408-7.49 0.0723-1.58 0.00653-3.16 0.0118-4.74 0.0156-1.12 0.0185-1.12 0.0185-2.27 0.0374-2.1-0.00909-2.1-0.00909-5.51-0.366-2.56-3.84-2.29-7-2.29-11.5-0.00683-0.864-0.0137-1.73-0.0207-2.62-0.0136-1.88-0.0226-3.76-0.0277-5.63-0.00829-2.98-0.0288-5.95-0.0525-8.93-0.0483-6.33-0.0811-12.7-0.112-19-0.0357-7.31-0.0778-14.6-0.136-21.9-0.02-2.92-0.0284-5.85-0.0363-8.77-0.013-1.81-0.0265-3.62-0.0406-5.43 9.82e-4 -0.804 0.00196-1.61 0.00298-2.44-0.0819-7.57-1.03-14.4-5.29-20.8v-2c-6.6-3.04-14-3.27-20.9-1.09-6.72 3.13-10 6.99-14.1 13.1h-2c-0.186 1.07-0.186 1.07-0.375 2.16-0.844 3.84-2.27 7.37-3.69 11-1.83 5.5-2.18 11.1-2.46 16.9-0.062 1.21-0.062 1.21-0.125 2.45-0.59 12.6-0.714 25.1-0.91 37.7-0.0433 2.61-0.0869 5.22-0.131 7.83-0.106 6.33-0.208 12.7-0.307 19-5.23 0.0494-10.5 0.0857-15.7 0.11-1.78 0.0101-3.56 0.0237-5.34 0.041-2.56 0.0242-5.11 0.0356-7.67 0.0444-0.799 0.0103-1.6 0.0206-2.42 0.0313-1.96 3.99e-4 -3.91-0.104-5.87-0.227-2-2-2-2-2.25-4.46 5.45e-4 -1.04 0.00109-2.09 0.00165-3.16-0.00419-1.19-0.00839-2.39-0.0127-3.62 0.00562-1.32 0.0112-2.63 0.017-3.99-0.00107-1.4-0.00301-2.79-0.00575-4.19-0.00486-3.8 0.00282-7.59 0.013-11.4 0.00877-3.97 0.00702-7.94 0.00664-11.9 9.37e-4 -6.66 0.00963-13.3 0.0233-20 0.0157-7.71 0.021-15.4 0.0203-23.1-6.1e-4 -7.41 0.00449-14.8 0.0128-22.2 0.00354-3.16 0.00536-6.32 0.00589-9.47 1e-3 -3.72 0.00709-7.43 0.0172-11.1 0.00433-2.02 0.00375-4.04 0.00306-6.06 0.00426-1.19 0.00853-2.39 0.0129-3.62 0.00168-1.04 0.00335-2.09 0.00508-3.16 0.129-2.46 0.129-2.46 1.13-4.46 3.17-0.0588 6.33-0.0939 9.5-0.125 0.887-0.0168 1.77-0.0335 2.69-0.0508 8.18-0.0601 15.3 0.737 21.8 6.18 1.73 3.2 2.39 6.43 3 10 2.66-0.0805 4.45-0.475 6.4-2.34 0.508-0.567 1.02-1.13 1.54-1.72 17.7-18.7 47.8-20 68.1-4.94z" fill="#479FDD"/>
<path transform="translate(28.2 5.44)" d="m0 0c1.89 0.0035 1.89 0.0035 3.81 0.00706 2.66 0.00971 5.31 0.0287 7.97 0.0645 4.02 0.0538 8.03 0.0615 12.1 0.0671 47.6 0.211 47.6 0.211 64.3 15.6 10.6 11.3 15.1 22.3 15.2 37.6 0.00645 0.97 0.0129 1.94 0.0195 2.94-0.229 12.9-5.71 23.3-13.5 33.3-2.69 2.45-3.32 3-7 3v4l2.62 0.688c10.8 4.22 16.6 14.9 22.2 24.4 3.06 7.42 3.53 14.9 3.5 22.8l0.0488 2.8c0.0101 14.4-5.78 26.4-15.6 36.7-4.21 3.9-8.75 6.77-13.8 9.55l-1.88 1.17c-12.9 7.51-28.9 7.39-43.4 7.22-1.88-0.00748-3.76-0.0132-5.64-0.0172-4.89-0.0151-9.78-0.0542-14.7-0.0988-5.01-0.0413-10-0.0593-15-0.0793-9.8-0.0426-19.6-0.111-29.4-0.195-0.0467-23.6-0.082-47.1-0.104-70.7-0.0103-10.9-0.0244-21.9-0.0473-32.8-0.02-9.54-0.0328-19.1-0.0373-28.6-0.0026-5.05-0.00871-10.1-0.0233-15.2-0.0136-4.76-0.0178-9.52-0.0148-14.3-5.48e-4 -1.74-0.0045-3.49-0.0122-5.23-0.0842-20.1-0.0842-20.1 3.8-26.9 7.59-7 14.6-7.97 24.7-7.81zm13.3 36.3c-3.64 5.24-3.81 10.5-3.57 16.7 0.0227 0.788 0.0453 1.58 0.0686 2.39 0.0497 1.65 0.105 3.31 0.165 4.96 0.0914 2.54 0.166 5.09 0.238 7.63 0.0504 1.61 0.102 3.22 0.154 4.83 0.023 0.763 0.046 1.53 0.0697 2.31-0.176 3.52-0.176 3.52 1.32 6.45 2.57 0.138 5.12 0.213 7.69 0.238 0.779 0.00807 1.56 0.0161 2.36 0.0245 1.66 0.0139 3.31 0.0246 4.97 0.0324 2.51 0.0171 5.02 0.0609 7.53 0.105 1.61 0.0101 3.22 0.0186 4.83 0.0254 1.11 0.0263 1.11 0.0263 2.25 0.0531 6.9-0.0282 11.9-2.44 17.2-6.79 5.25-6.46 6.52-13.5 6.19-21.7-1.46-6.94-4.36-13.5-10-18-3.34-1.5-3.34-1.5-7-2-1.16-0.206-2.31-0.412-3.5-0.625-16.1-1.81-16.1-1.81-30.9 3.38zm-0.387 80.4c-2.7 3.49-2.86 5.5-2.99 9.88-0.0237 0.666-0.0474 1.33-0.0718 2.02-0.0629 1.97-0.0899 3.95-0.116 5.92-0.0271 0.972-0.0541 1.94-0.082 2.95-0.103 6.59 0.219 13.2 0.52 19.7 0.0392 0.899 0.0783 1.8 0.119 2.72 0.0631 1.26 0.0631 1.26 0.127 2.54 0.0367 0.756 0.0733 1.51 0.111 2.29 0.0239 1.78 0.0239 1.78 1.21 2.76 2.84 0.139 5.65 0.213 8.5 0.238 1.29 0.0121 1.29 0.0121 2.61 0.0245 1.84 0.0139 3.67 0.0246 5.51 0.0324 2.78 0.0171 5.56 0.0609 8.34 0.105 14.6 0.141 14.6 0.141 27.5-6.22 6.27-7.61 8.15-14.5 7.89-24.3-0.422-4.12-1.54-7.1-3.29-10.9-0.454-1.07-0.908-2.14-1.38-3.25-3.69-6.25-9.85-8.86-16.6-10.8-4.93-0.509-9.8-0.47-14.8-0.375l-3.9 0.00391c-10.2 0.0211-10.2 0.0211-19.2 4.55z" fill="#233A7D"/>
<path transform="translate(955,70)" d="m0 0c1.98 0.0508 1.98 0.0508 4-1 1.08-1.18 1.08-1.18 2.19-2.38 5.04-4.7 10.7-5.86 17.5-5.7 1.96 0.111 3.92 0.24 5.87 0.387 1.51 0.0918 1.51 0.0918 3.06 0.186 2.46 0.152 4.92 0.319 7.38 0.502-0.11 12.8-0.223 25.5-0.339 38.3-0.0542 5.93-0.107 11.9-0.158 17.8-0.108 12.6-0.23 25.2-0.384 37.8-0.0682 5.59-0.131 11.2-0.178 16.8-0.0453 5.32-0.109 10.6-0.188 15.9-0.0257 1.96-0.0449 3.91-0.057 5.87-0.117 17.8-2.94 34-15.6 47.5-19.9 18.7-43.7 22.7-70.1 22.1-15-0.649-31.8-5.26-44-14.1 2.38-8.35 5.18-16.2 9-24h2v-2c4.27-2.73 7.29-3.32 12.3-2.59 2.7 0.594 2.7 0.594 5.77 1.56 8.14 2.55 15.6 3.46 24.2 3.53 0.993 0.0181 1.99 0.0363 3.01 0.0549 9.33-0.075 18.4-2.28 25.3-8.85 5.48-6.53 6.6-13.4 6.43-21.7-2.31 0.864-4.54 1.74-6.69 2.95-5.1 2.86-9.89 3.86-15.7 4.65-2.74 0.332-2.74 0.332-5.64 1.39-2.14 0.095-4.29 0.13-6.44 0.125-1.13 0.00258-2.27 0.00516-3.43 0.00781-2.63-0.111-4.63-0.423-7.13-1.13-1.71-0.276-3.42-0.546-5.12-0.812-10.4-1.93-18.8-6.14-26.9-13.2v-2c-0.57-0.229-1.14-0.459-1.73-0.695-8.96-5.14-15-17.3-18.1-26.8-0.462-1.81-0.839-3.63-1.19-5.46h-1c-1.41-7.24-1.3-14.5-1.35-21.9-0.0164-1.7-0.0436-3.4-0.082-5.1-0.358-16 2.3-28.5 11.4-42 0.681-1.09 1.36-2.19 2.06-3.31 8.47-11.7 22.5-20.7 36.7-23.3 0.732-0.112 1.46-0.224 2.22-0.34 0.732-0.122 1.46-0.245 2.22-0.371 17.7-2.39 34 1.5 48.8 11.4zm-53.1 32.8c-8.01 9.61-9.56 22.5-8.58 34.6 0.978 9.51 4.01 18.9 11.7 25.2 8.87 5.78 17.8 6.19 28 5.39 7.23-1.6 12-5.92 16-12 3.24-6.12 4.73-12.1 5-19 0.0425-1.09 0.0425-1.09 0.0859-2.21 0.0398-2.27-0.00878-4.52-0.0859-6.79-0.00773-1.14-0.00773-1.14-0.0156-2.3-0.429-9.37-3.95-19.4-10.9-26-12.2-9.13-30.1-6.15-41.2 3z" fill="#233A7D"/>
<path transform="translate(486,6)" d="m0 0c4.35-0.117 8.71-0.187 13.1-0.25 1.84-0.0503 1.84-0.0503 3.72-0.102 6.97-0.0752 11.6 0.0217 17.2 4.35 4.77 5.28 5.16 8.72 5.19 15.7 0.00829 0.896 0.0166 1.79 0.0251 2.72 0.0174 1.95 0.0326 3.9 0.0458 5.85 0.021 3.08 0.048 6.16 0.0767 9.24 0.0699 7.65 0.129 15.3 0.189 22.9 0.0508 6.46 0.106 12.9 0.166 19.4 0.0267 3.04 0.0474 6.09 0.068 9.13 0.0166 1.85 0.0335 3.71 0.0507 5.56 0.00628 1.28 0.00628 1.28 0.0127 2.59-0.323 3.78-0.323 3.78 1.18 6.94 1.6 0.0992 3.21 0.13 4.81 0.125 0.873 0.00258 1.75 0.00516 2.64 0.00781 2.36-0.123 4.32-0.343 6.54-1.13 0.33-0.66 0.66-1.32 1-2h2c0.227-0.681 0.454-1.36 0.688-2.06 1.37-3.07 3.05-5.45 5.04-8.14 1.53-2.16 2.78-4.44 4.07-6.75 2.14-3.64 4.54-7.11 6.97-10.6 1.61-2.39 2.66-4.46 3.84-7.15 1.84-4.06 3.75-7.65 7.4-10.3 7.19-2.32 15.1-1.31 22.6-0.875 2.08 0.0703 4.16 0.134 6.24 0.191 5.07 0.154 10.1 0.395 15.2 0.684 1 3 1 3 0.363 4.87-0.347 0.663-0.694 1.33-1.05 2.01-0.501 0.986-0.501 0.986-1.01 1.99-1.3 2.13-1.3 2.13-3.08 4.35-2.91 3.65-5.46 7.51-8.03 11.4-0.529 0.795-1.06 1.59-1.6 2.41-3.54 5.33-6.97 10.7-10.3 16.2-0.431 0.585-0.861 1.17-1.3 1.77h-2c-0.0877 0.552-0.175 1.1-0.266 1.67-0.957 3.03-2.56 5.05-4.48 7.58-3.33 4.47-6.37 8.98-9.25 13.8 0.519 0.834 1.04 1.67 1.57 2.53 5.16 8.31 10 16.6 14.4 25.4 2.33 4.7 4.87 9.19 7.61 13.7 1.49 2.44 2.92 4.91 4.33 7.39 0.41 0.722 0.82 1.44 1.24 2.19 0.883 1.81 0.883 1.81 0.883 3.81h2c0.439 0.802 0.439 0.802 0.886 1.62 1.33 2.42 2.66 4.84 3.99 7.25 0.46 0.842 0.92 1.68 1.39 2.55 0.667 1.21 0.667 1.21 1.35 2.44 0.613 1.12 0.613 1.12 1.24 2.25 1.13 2.02 1.13 2.02 3.15 3.88v3c-5.43 0.0745-10.9 0.129-16.3 0.165-1.84 0.015-3.69 0.0355-5.53 0.0615-2.66 0.0366-5.32 0.0535-7.98 0.0667-0.817 0.0155-1.63 0.031-2.48 0.0469-7.51 0.00218-13.2-2.16-18.7-7.34-6.59-8.51-11.2-18.7-16.2-28.2-1.19-2.28-2.39-4.56-3.59-6.84-0.737-1.4-1.47-2.81-2.21-4.22-0.996-1.9-2-3.8-3.02-5.69-0.354-0.662-0.708-1.32-1.07-2.01-1.79-3.61-1.79-3.61-4.93-5.9-0.99-0.0174-0.99-0.0174-2-0.0352-0.66-0.0296-1.32-0.0593-2-0.0898-0.66 0.00902-1.32 0.018-2 0.0273h-4v60h-41c-1.53-3.07-1.14-6.29-1.13-9.65-0.00227-0.799-0.00453-1.6-0.00687-2.42-0.00636-2.69-0.00551-5.39-0.00469-8.08-0.00299-1.92-0.00639-3.85-0.0102-5.77-0.00886-5.24-0.0112-10.5-0.0118-15.7-9.48e-4 -4.37-0.00462-8.74-0.00817-13.1-0.00815-10.3-0.0106-20.6-0.00987-30.9 6.01e-4 -10.6-0.00995-21.3-0.0257-31.9-0.0131-9.13-0.0184-18.3-0.0178-27.4 2.55e-4 -5.46-0.00262-10.9-0.0132-16.4-0.00966-5.13-0.00978-10.3-0.00248-15.4 0.00105-1.89-0.00133-3.77-0.00736-5.66-0.00768-2.57-0.0031-5.14 0.00463-7.71-0.00772-1.12-0.00772-1.12-0.0156-2.27 0.0247-3.71 0.205-6.49 2.26-9.64z" fill="#233A7D"/>
<path transform="translate(820,69)" d="m0 0c11.9 12.4 16.2 27.5 16.1 44.3 0.00263 1.52 0.00263 1.52 0.00531 3.07 0.00438 3.33 0.00149 6.67-0.00189 10 6.74e-4 2.32 0.00164 4.64 0.0029 6.96 0.00147 4.85-6.63e-4 9.7-0.00534 14.6-0.00572 6.23-0.0024 12.5 0.00357 18.7 0.0036 4.78 0.00247 9.57-1.28e-4 14.3-6.69e-4 2.3 1.58e-4 4.6 0.00248 6.9 0.00252 3.2-0.00131 6.4-0.0069 9.6 0.00202 0.958 0.00405 1.92 0.00613 2.9-0.00282 0.866-0.00564 1.73-0.00854 2.63-5.66e-4 1.14-5.66e-4 1.14-0.00114 2.29-0.126 1.73-0.126 1.73-1.13 2.73-3.49 0.255-7 0.185-10.5 0.188-0.969 0.0122-1.94 0.0245-2.94 0.0371-7.11 0.0143-14.2-0.178-20.4-3.91-4.88-5.16-7.32-10.4-7.29-17.5 0.0033-1.3 0.00661-2.59 0.01-3.93 0.00412-0.696 0.00824-1.39 0.0125-2.11 0.0128-2.19 0.0193-4.38 0.0241-6.56 0.0134-5.45 0.0373-10.9 0.0614-16.3 0.0199-4.59 0.0355-9.17 0.0456-13.8 0.00638-2.13 0.0189-4.26 0.0317-6.4 0.716-19.7 0.716-19.7-6.34-37.5-4.47-3.27-12-2.52-17.3-2.07-9.03 1.68-16.8 6.64-22.5 13.8-8.48 13.1-8.14 28.6-8.32 43.6-0.0206 1.49-0.0416 2.98-0.063 4.46-0.0547 3.88-0.104 7.77-0.153 11.6-0.0506 3.98-0.106 7.95-0.161 11.9-0.107 7.78-0.209 15.6-0.307 23.3-3.29 0.165-6.58 0.327-9.86 0.488-0.916 0.0461-1.83 0.0922-2.78 0.14-6.18 0.301-12.4 0.485-18.5 0.559-0.755 0.0132-1.51 0.0263-2.29 0.0399-1.84 0.00264-3.69-0.103-5.52-0.227-2-2-2-2-2.25-4.46 5.45e-4 -1.04 0.00109-2.09 0.00165-3.16-0.00419-1.19-0.00839-2.39-0.0127-3.62 0.00562-1.32 0.0112-2.63 0.017-3.99-0.00107-1.4-0.00301-2.79-0.00575-4.19-0.00486-3.8 0.00282-7.59 0.013-11.4 0.00877-3.97 0.00702-7.94 0.00664-11.9 9.37e-4 -6.66 0.00963-13.3 0.0233-20 0.0157-7.71 0.021-15.4 0.0203-23.1-6.1e-4 -7.41 0.00449-14.8 0.0128-22.2 0.00354-3.16 0.00536-6.32 0.00589-9.47 1e-3 -3.72 0.00709-7.43 0.0172-11.1 0.00433-2.02 0.00375-4.04 0.00306-6.06 0.00426-1.19 0.00853-2.39 0.0129-3.62 0.00168-1.04 0.00335-2.09 0.00508-3.16 0.129-2.46 0.129-2.46 1.13-4.46 4.02-0.0877 8.04-0.141 12.1-0.188 1.7-0.0377 1.7-0.0377 3.44-0.0762 7.49-0.0655 13.1-0.0405 18.7 5.42 0.568 0.773 1.14 1.55 1.72 2.34 0.88 1.16 0.88 1.16 1.78 2.34 1.29 2.16 1.29 2.16 1.29 5.16 3.66-1.03 5.86-2.69 8.56-5.25 4.88-4.46 10.5-7 16.4-9.75 0.951-0.547 0.951-0.547 1.92-1.11 16-6.9 41.9-2.54 55.1 8.11z" fill="#233A7C"/>
<path transform="translate(1334,72)" d="m0 0v2c0.859 0.371 0.859 0.371 1.73 0.75 2.62 1.44 4.41 3.13 6.52 5.25 0.706 0.701 1.41 1.4 2.14 2.12 1.61 1.88 1.61 1.88 1.61 3.88h2c1.45 1.97 2.72 3.93 4 6 0.468 0.692 0.936 1.38 1.42 2.1 7.16 11 10.4 22.8 10.6 35.9 0.0271 0.935 0.0541 1.87 0.082 2.83 0.0429 2.73 0.00358 5.44-0.082 8.17-0.0284 0.955-0.0567 1.91-0.0859 2.89-0.532 9.66-2.71 18.9-7.91 27.1-1.02 1.99-2.02 3.99-3 6h-2c-0.155 0.874-0.155 0.874-0.312 1.77-2.72 8.85-14.3 17.1-21.9 21.4-20.9 10.7-45.2 13.7-67.8 6.49-15.1-5.28-27-15.3-36.9-27.7-0.468-0.558-0.936-1.12-1.42-1.69-12.1-15.5-12.8-37.6-11.6-56.3 2.28-15.3 10.9-30.4 22-41 0.646-0.63 1.29-1.26 1.96-1.91 9.43-8.73 19.8-13.7 32-17.1 0.879-0.248 1.76-0.495 2.66-0.75 21.4-4.89 46.2-0.769 64.3 11.8zm-70 31c-0.99 0.66-1.98 1.32-3 2-1.57 2.29-1.57 2.29-3 5-0.495 0.908-0.99 1.82-1.5 2.75-1.56 3.38-2.73 6.75-3.85 10.3-0.648 1.95-0.648 1.95-1.65 3.95-0.0701 12.3 0.469 26.4 9 36 8.58 8.37 19 12.4 30.8 12.2 8.59-0.573 14.8-3.59 21.2-9.21 1.36-1.18 1.36-1.18 2.75-2.38 7.44-8.68 8.41-18.8 8.5-29.8 0.00935-0.76 0.0187-1.52 0.0283-2.3-0.06-10.6-4.24-21.1-11.4-28.9-14.9-12.8-33.2-10.8-47.9 0.398zm-52 18 1 3zm110 1 1 2z" fill="#479FDD"/>
<path transform="translate(277,74)" d="m0 0c0.99 1.48 0.99 1.48 2 3 0.99 0.33 1.98 0.66 3 1 1.04 1.64 2.04 3.31 3 5 1.23 1.5 2.48 2.97 3.75 4.44 11.6 14.3 15.4 29.9 15.4 47.8 0.0122 1.07 0.0245 2.14 0.0371 3.24 0.0183 10.1-1.17 19-5.35 28.2-0.539 1.2-1.08 2.4-1.63 3.64-0.41 0.883-0.82 1.77-1.24 2.68h-2c-0.249 0.892-0.498 1.78-0.754 2.7-3.91 10.3-16.6 21.2-26.2 26.2-1.65 0.736-3.32 1.44-5 2.12-0.851 0.367-1.7 0.735-2.58 1.11-18.3 7.37-42.5 7.41-61.1 0.527-6.07-2.71-11.9-5.8-17.3-9.64v-2c-1.08-0.34-1.08-0.34-2.19-0.688-11.5-5.36-19.9-21.9-24.2-33.2-2.71-7.72-2.81-15.1-2.81-23.2-0.0184-1.6-0.0184-1.6-0.0371-3.23-0.0348-19.1 5.07-34 17.2-48.6 0.69-0.878 1.38-1.76 2.09-2.66 10.9-13.3 28.7-20.9 45.4-23.1 21.5-1.71 42.9 1.17 60.5 14.7zm-74.9 30.9c-2.58 3.18-4.54 6.26-6.12 10.1-0.398 0.924-0.398 0.924-0.805 1.87-1.9 4.64-2.89 9.12-3.2 14.1-0.0529 0.737-0.106 1.47-0.16 2.23-0.348 9.27 0.765 20.7 7.16 27.8 1.8 1.63 3.62 3.19 5.51 4.7 1.49 1.3 1.49 1.3 2.49 3.3 1.71 0.923 3.47 1.77 5.25 2.56 0.954 0.434 1.91 0.869 2.89 1.32 9.35 3.67 19.7 3.05 28.9-0.879 9.73-5.06 15.4-12.7 19-23 3.46-13.7 0.8-28.4-6.2-40.5-4.96-6.99-11.7-12.5-20.2-14.2-13.1-1.13-25.2 0.463-34.5 10.6z" fill="#243A7D"/>
<path transform="translate(386 58.9)" d="m0 0c20.1-0.734 38.7 3.01 55.1 15.1v2c0.593 0.0838 1.19 0.168 1.8 0.254 2.85 0.964 3.72 2.26 5.45 4.68 0.781 1.07 0.781 1.07 1.58 2.15 1.17 1.91 1.17 1.91 1.17 3.91 0.99 0.33 1.98 0.66 3 1 2.3 3.15 4.11 6.59 6 10 0.375 0.632 0.75 1.26 1.14 1.91 6.25 11.2 7.24 22.7 7.3 35.3 0.00999 1.18 0.02 2.35 0.0303 3.56-0.0994 10.1-1.93 19.4-5.97 28.7-0.402 0.947-0.804 1.89-1.22 2.87-1.28 2.7-2.6 5.22-4.28 7.69h-2c-0.34 1.05-0.34 1.05-0.688 2.12-1.65 3.62-3.6 5.96-6.31 8.88h-2c-0.33 0.99-0.66 1.98-1 3-1.67 0.667-3.33 1.33-5 2-0.33 0.99-0.66 1.98-1 3-2.31 1.52-4.54 2.75-7 4-0.887 0.49-1.77 0.98-2.69 1.48-19 9.79-42.9 9.86-63.3 4.52-3.17-1.09-6.07-2.39-9-4-0.633-0.343-1.27-0.686-1.92-1.04-1.71-0.956-3.4-1.96-5.08-2.96-0.969-0.536-1.94-1.07-2.94-1.62-0.681-0.454-1.36-0.908-2.06-1.38v-2c-0.804-0.268-1.61-0.536-2.44-0.812-1.27-0.588-1.27-0.588-2.56-1.19-0.33-0.99-0.66-1.98-1-3-1.33-0.672-2.66-1.34-4-2-13.1-13.1-19-30.9-19.2-49 0.0208-16.1 3.07-28.2 9.19-43h2c0.371-1.05 0.371-1.05 0.75-2.12 3.02-6.95 7.5-11.2 13.2-15.9 0.692-0.59 1.38-1.18 2.1-1.79 12.1-10 27.1-15.6 42.8-16.3zm-19.7 45.7c-8.57 10.7-11.3 23.9-10.2 37.4 1.72 10.8 5.27 18.4 14 25 0.464 0.496 0.928 0.993 1.41 1.5 1.87 1.75 3.62 2.6 5.97 3.62 0.75 0.333 1.5 0.665 2.27 1.01 9.27 3.42 19.3 2.64 28.4-1.13 2.82-1.46 5.57-2.94 8-5v-2c0.606-0.254 1.21-0.508 1.84-0.77 4.65-2.64 6.73-7.98 8.41-12.9 1.39-6.25 1.93-12.1 1.94-18.5 0.0122-0.798 0.0245-1.6 0.0371-2.42 0.0101-4.03-0.00778-6.97-2.22-10.5-0.413-1.24-0.825-2.47-1.25-3.75-3.27-8.86-10.2-16.5-18.7-20.5-13-4.97-30.3-1.23-39.9 8.84z" fill="#243A7D"/>
<path transform="translate(1186 69.1)" d="m0 0c5.99 5.15 11.4 11 13 18.9 0.0914 1.87 0.131 3.74 0.133 5.61 0.00129 1.07 0.00258 2.13 0.00391 3.23-0.00387 1.11-0.00773 2.21-0.0117 3.35 0.00387 1.12 0.00773 2.24 0.0117 3.39-0.00193 1.59-0.00193 1.59-0.00391 3.22-0.00113 0.975-0.00226 1.95-0.00342 2.95-0.129 2.25-0.129 2.25-1.13 3.25-3.01 0.155-5.99 0.232-9 0.25-0.826 0.0206-1.65 0.0412-2.5 0.0625-7.16 0.0448-13.6-1.01-19.3-5.56-6.19-7.78-6.19-7.78-6.19-11.8-11.9-1.91-25.9-3.05-36.5 3.58-11.5 8.56-15.2 18.6-17.5 32.4-1.11 8.37 1.01 18 4.69 25.4 8.69 9.63 19.2 16.2 32.3 17.6 0.691 0.0825 1.38 0.165 2.09 0.25 13.4 0.802 26.8-5.34 36.9-13.7 2.4-2.14 4.74-4.31 7.04-6.55 0.269 0.568 0.539 1.14 0.816 1.72 1.23 2.37 2.62 4.51 4.12 6.71 2.12 3.14 4.11 6.31 6.06 9.56 0.766 1.05 0.766 1.05 1.55 2.12 0.562 0.784 1.12 1.57 1.7 2.38 0.812 1.1 0.812 1.1 1.64 2.22 1.11 2.28 1.11 2.28 0.961 4.89-1.45 4.07-4.49 5.85-7.85 8.39-1.27 1-1.27 1-2.56 2.02-5.9 4.51-11.5 7.51-18.4 9.98-1.07 0.516-2.14 1.03-3.25 1.56-12.5 5.38-29.3 7.3-42.6 3.96-2.23-0.587-2.23-0.587-5-1-19.4-3.41-36.4-14.6-48.1-30.5-13-19.4-15-40.4-11-63 1.91-9.13 7.24-21.6 14-28 0.981-1.21 1.96-2.42 2.94-3.62 8.28-9.44 18.8-15.3 30.1-20.4 0.717-0.339 1.43-0.678 2.17-1.03 19.8-8.5 51.2-6.27 68.8 6.14z" fill="#479FDD"/>
<path transform="translate(992,69)" d="m0 0c2.57 2.57 2.24 4.26 2.26 7.77-0.00562 0.809-0.0112 1.62-0.017 2.45 0.0019 0.853 0.0038 1.71 0.00575 2.58 0.00373 2.85-0.00707 5.7-0.0182 8.56-0.0012 2.02-0.00164 4.03-0.00139 6.05-0.00157 4.27-0.00988 8.53-0.0233 12.8-0.0165 5.32-0.0207 10.6-0.0202 16-1.15e-4 12.6-0.0572 25.1-0.16 37.7-0.0257 3.22-0.0472 6.44-0.0687 9.67-0.0384 5.28-0.1 10.6-0.178 15.8-0.0265 1.97-0.0467 3.94-0.06 5.91-0.132 17.9-2.91 34.1-15.6 47.8-4.34 4.06-9.02 7.95-14.1 11-0.99-0.33-1.98-0.66-3-1v-4h-3c-0.495-4.45-0.495-4.45-1-9h-2v4h-2c-0.495-4.45-0.495-4.45-1-9h-2v4c-0.99-0.33-1.98-0.66-3-1 0.165-0.598 0.33-1.2 0.5-1.81 0.611-2.3 0.611-2.3 0.5-5.19 0.33-0.66 0.66-1.32 1-2h2c0.33-0.99 0.66-1.98 1-3h3c0.186-1.39 0.186-1.39 0.375-2.81 0.625-3.19 0.625-3.19 2.62-6.19 2.46-7.23 2.67-12.1-0.344-19.1-0.656-1.93-0.656-1.93-0.656-5.93-6.93-0.495-6.93-0.495-14-1v4l3-3v4c-3.73 0.575-7.21 1-11 1 1.49 1.48 1.49 1.48 3 3-7.43 2.38-14.5 2.49-22 0v2c-1.81 0.625-1.81 0.625-4 1-0.99-0.66-1.98-1.32-3-2h5v-2c4.72-0.652 9.22-1.12 14-1l-6-3c0.33-1.65 0.66-3.3 1-5 8.91-0.99 8.91-0.99 18-2v-2h3c0.103-0.619 0.206-1.24 0.312-1.88 0.688-2.12 0.688-2.12 3.69-4.12h3v-2c0.784-0.454 1.57-0.908 2.38-1.38 2.81-1.74 3.36-2.7 4.62-5.62 0.66-0.33 1.32-0.66 2-1-0.33-0.33-0.66-0.66-1-1-0.99 0.33-1.98 0.66-3 1-0.33 1.65-0.66 3.3-1 5-2.88 0.961-4.7 1.11-7.69 1.06-0.808-0.00902-1.62-0.018-2.45-0.0273-0.615-0.0116-1.23-0.0232-1.86-0.0352 0.99-0.33 1.98-0.66 3-1v-2c2.5-1.62 2.5-1.62 5-3-0.812 0.246-0.812 0.246-1.64 0.496-2.76 0.59-5.29 0.6-8.11 0.566-0.985-0.00902-1.97-0.018-2.98-0.0273-0.748-0.0116-1.5-0.0232-2.27-0.0352v5h-6c0.312-1.94 0.312-1.94 1-4 1.49-0.495 1.49-0.495 3-1-0.33-0.99-0.66-1.98-1-3 0.58-0.208 1.16-0.415 1.76-0.629 8.03-3.17 12.1-7.35 15.6-15.2 1.72-4.71 2.49-9.13 2.69-14.1 0.0284-0.73 0.0567-1.46 0.0859-2.21 0.0398-2.27-0.00878-4.52-0.0859-6.79-0.00773-1.14-0.00773-1.14-0.0156-2.3-0.453-9.9-4.79-19.1-11-26.7v-2h3v3c0.99-0.33 1.98-0.66 3-1-0.598-0.681-1.2-1.36-1.81-2.06-2.97-3.99-5.19-7.84-5.19-12.9-0.763-0.124-1.53-0.248-2.31-0.375-2.69-0.625-2.69-0.625-5.69-2.62-1.57 0.204-3.13 0.422-4.68 0.707-5.06 0.64-10.2 0.362-15.3 0.293v-1c-2.31-0.33-4.62-0.66-7-1 0.639-0.309 1.28-0.619 1.94-0.938 2-0.897 2-0.897 3.06-2.06 8.54-0.475 17.2 0.0534 25.8 0.375 1.47 0.0462 1.47 0.0462 2.96 0.0933 0.916 0.0388 1.83 0.0777 2.77 0.118 0.822 0.0314 1.64 0.0628 2.49 0.0952 2.02 0.319 2.02 0.319 4.02 2.32h-3v3c2.97 0.33 5.94 0.66 9 1 0.495 2.97 0.495 2.97 1 6 6.6 0.427 6.6 0.427 12-3h3c0.33-1.98 0.66-3.96 1-6 8.57 1 8.57 1 12 2v4c1.65 0.33 3.3 0.66 5 1v2h-4c0.495 0.99 0.495 0.99 1 2 2.53 0.656 2.53 0.656 5 1-0.165-0.701-0.33-1.4-0.5-2.12-0.524-3.01-0.571-5.82-0.5-8.88-0.99-0.33-1.98-0.66-3-1v-3h-2c0.33-0.66 0.66-1.32 1-2 0.33-0.99 0.66-1.98 1-3h-2c0.33-0.66 0.66-1.32 1-2 1.94-0.562 1.94-0.562 4-1 0.66-0.33 1.32-0.66 2-1z" fill="#243A7D"/>
<path transform="translate(633,62)" d="m0 0c4.17-0.0878 8.33-0.141 12.5-0.188 1.17-0.0251 2.35-0.0503 3.55-0.0762 7.49-0.0631 14.1-0.0821 20 5.03 8.58 12.7 5.09 33.4 5.07 48.1 6.75e-4 2.6 0.00165 5.19 0.0029 7.79 0.00147 5.41-5.51e-4 10.8-0.00534 16.2-0.00547 6.25-0.00365 12.5 0.00183 18.8 0.00508 6.04 0.00455 12.1 0.00162 18.1-6.68e-4 2.56 1.54e-4 5.13 0.00248 7.69 0.00253 3.57-0.00132 7.13-0.0069 10.7 0.00202 1.06 0.00405 2.12 0.00613 3.22-0.00282 0.968-0.00564 1.94-0.00854 2.93-3.77e-4 0.842-7.54e-4 1.68-0.00114 2.55-0.126 2.16-0.126 2.16-1.13 5.16-5.52 0.074-11 0.129-16.6 0.165-1.88 0.0151-3.76 0.0356-5.63 0.0615-2.7 0.0363-5.39 0.0534-8.09 0.0667-0.843 0.0155-1.69 0.031-2.55 0.0469-2.37 6.87e-4 -2.37 6.87e-4 -6.17-0.34-2.29-3.43-2.25-4.66-2.25-8.7-0.00419-1.19-0.00839-2.38-0.0127-3.6 0.00562-1.3 0.0112-2.61 0.017-3.95-0.00107-1.39-0.00301-2.77-0.00575-4.16-0.00485-3.77 0.00281-7.53 0.013-11.3 0.00878-3.94 0.00702-7.88 0.00664-11.8 9.37e-4 -6.61 0.00962-13.2 0.0233-19.8 0.0157-7.65 0.021-15.3 0.0203-23-6.1e-4 -7.35 0.00449-14.7 0.0128-22.1 0.00354-3.13 0.00536-6.27 0.00589-9.4 1e-3 -3.69 0.00709-7.37 0.0172-11.1 0.00433-2 0.00375-4.01 0.00306-6.01 0.00426-1.18 0.00853-2.37 0.0129-3.59 0.00168-1.03 0.00335-2.07 0.00508-3.13 0.129-2.44 0.129-2.44 1.13-4.44z" fill="#233A7C"/>
<path transform="translate(277,74)" d="m0 0c0.99 1.48 0.99 1.48 2 3 0.99 0.33 1.98 0.66 3 1 1.05 1.64 2.04 3.31 3 5 1.29 1.64 2.6 3.27 3.94 4.88 3.15 3.91 6.03 7.52 8.06 12.1-0.75 2.44-0.75 2.44-2 4-2-3-2-3-2-6h-2c-0.33-1.32-0.66-2.64-1-4-0.598-0.0412-1.2-0.0825-1.81-0.125-3.27-1.31-3.71-3.79-5.19-6.88-0.99-0.33-1.98-0.66-3-1l-1-2c-0.99-0.309-1.98-0.619-3-0.938-0.99-0.351-1.98-0.701-3-1.06-0.495-1.48-0.495-1.48-1-3-1.66-1.01-3.33-2.01-5-3v-2c-1.98-0.33-3.96-0.66-6-1v-2c-0.603 0.0116-1.21 0.0232-1.83 0.0352-1.2 0.0135-1.2 0.0135-2.42 0.0273-1.18 0.0174-1.18 0.0174-2.39 0.0352-2.27-0.0938-4.19-0.465-6.36-1.1v3h8v2h-3v3h8c0.495 2.47 0.495 2.47 1 5-3.96-0.33-7.92-0.66-12-1-0.495-1.48-0.495-1.48-1-3h-9c1.32 0.66 2.64 1.32 4 2 0.333 1.33 0.667 2.67 1 4 1.98 1.28 1.98 1.28 4 2v5h2v-3h3v3c0.949 0.268 1.9 0.536 2.88 0.812 3.12 1.19 3.12 1.19 5.12 4.19 0.394 2.32 0.735 4.66 1 7h-3c0.99 2.47 0.99 2.47 2 5h3c0.33-0.99 0.66-1.98 1-3 4.47 6.68 5.65 12.1 6 20 0.28 2.34 0.637 4.67 1 7h2v3c-0.99 0.495-0.99 0.495-2 1-0.658 3.03-0.658 3.03-1 6-1.49 0.495-1.49 0.495-3 1 0.66 0.33 1.32 0.66 2 1v3c-0.99 0.495-0.99 0.495-2 1 0.66 0.33 1.32 0.66 2 1 0.503 5.29-0.653 7.91-4 12-1.33 0.667-2.67 1.33-4 2-1.16 2.47-1.16 2.47-2 5-2.76 2.76-5.21 2.58-9 3v3h-2v2h-5c-0.33 2.31-0.66 4.62-1 7-2.27 0.336-4.54 0.669-6.81 1-1.26 0.186-2.53 0.371-3.83 0.562-4.32 0.564-6.57 0.526-10.4-1.56v-3h-2v-3h-12c-0.66-1.32-1.32-2.64-2-4l-1.94-0.438c-2.06-0.562-2.06-0.562-3.81-3-1.25-2.56-1.25-2.56-1.25-4.56h-3c-1.84-3.78-2.16-5.95-1-10 1.67 1.67 3.33 3.33 5 5 0.908 0.866 1.82 1.73 2.75 2.62 2.25 2.38 2.25 2.38 3.25 5.38 1.73 0.561 1.73 0.561 4 1 1.13 0.495 2.27 0.99 3.44 1.5 8.72 3.67 18.2 3.57 27.1 0.539 10.3-4.41 15.2-10.9 19.6-20.8 4.24-11.8 2.34-25.9-2.46-37.2-4.28-8.57-9.92-14.2-18.7-18.1-3.65-0.778-3.65-0.778-7.38-1.19-1.25-0.159-2.49-0.317-3.77-0.48-0.941-0.11-1.88-0.219-2.85-0.332 1.32-0.66 2.64-1.32 4-2-0.33-0.33-0.66-0.66-1-1-0.0406-1.67-0.0427-3.33 0-5h-2c0.165-0.578 0.33-1.16 0.5-1.75 0.645-2.52 0.645-2.52 0.5-6.25-0.33-0.33-0.66-0.66-1-1-2.01 0.0652-2.01 0.0652-4.31 0.375-0.78 0.0902-1.56 0.18-2.36 0.273-2.16 0.326-4.22 0.783-6.32 1.35v2c-0.687-0.0348-1.37-0.0696-2.08-0.105-1.35-0.0406-1.35-0.0406-2.73-0.082-0.893-0.0348-1.79-0.0696-2.71-0.105-2.97 0.35-3.52 1.16-5.48 3.29-3.19 0.188-3.19 0.188-6 0v3c-1.28 0.206-2.56 0.412-3.88 0.625-2.21 0.473-2.21 0.473-4.12 1.38-1.49 2.88-1.49 2.88-2 6-0.66 0.99-1.32 1.98-2 3-1.32-0.66-2.64-1.32-4-2 0.33-1.98 0.66-3.96 1-6-0.99 1.48-0.99 1.48-2 3h-2c-0.33 0.66-0.66 1.32-1 2-1.18 1.05-1.18 1.05-2.38 2.12-3.15 3.45-4.2 6.52-5.62 10.9-0.334 0.726-0.668 1.45-1.01 2.2-1.35 3.82-1.7 7.6-2.11 11.6-0.0864 0.788-0.173 1.58-0.262 2.39-0.211 1.93-0.413 3.87-0.613 5.8h-2c0.144 1.07 0.289 2.15 0.438 3.25 0.188 1.44 0.375 2.87 0.562 4.31 0.0954 0.704 0.191 1.41 0.289 2.13 0.578 4.48 0.806 8.79 0.711 13.3h2c1.62 1.38 1.62 1.38 3 3v2h2c0.33 1.65 0.66 3.3 1 5h-2v7h-2v2c2.65 1.46 3.89 2 7 2 1.46 2.65 2 3.89 2 7 3.46-0.495 3.46-0.495 7-1 0.495 0.99 0.495 0.99 1 2h-2c0.33 2.31 0.66 4.62 1 7l2.88-0.0625c3.12 0.0625 3.12 0.0625 5.12 1.06v3c1.46-0.141 2.92-0.288 4.38-0.438 0.812-0.0812 1.62-0.162 2.46-0.246 2.21-0.207 2.21-0.207 4.16-1.32v2c0.784-0.206 1.57-0.412 2.38-0.625 1.3-0.186 1.3-0.186 2.62-0.375l2 2c2.19 0.457 4.41 0.82 6.62 1.12 1.19 0.168 2.38 0.335 3.6 0.508 0.915 0.121 1.83 0.242 2.77 0.367v2c1.65 0.33 3.3 0.66 5 1 0.495 3.46 0.495 3.46 1 7 0.99 0.33 1.98 0.66 3 1-0.33 0.99-0.66 1.98-1 3-17.9 1.04-34.3-3.64-49-14v-2c-1.08-0.34-1.08-0.34-2.19-0.688-11.5-5.36-19.9-21.9-24.2-33.2-2.71-7.72-2.81-15.1-2.81-23.2-0.0184-1.6-0.0184-1.6-0.0371-3.23-0.0348-19.1 5.07-34 17.2-48.6 0.69-0.878 1.38-1.76 2.09-2.66 10.9-13.3 28.7-20.9 45.4-23.1 21.5-1.71 42.9 1.17 60.5 14.7z" fill="#223A7B"/>
<path transform="translate(386 58.9)" d="m0 0c20.1-0.734 38.7 3.01 55.1 15.1v2c0.874 0.0947 0.874 0.0947 1.77 0.191 3.16 1.14 4.13 2.99 5.98 5.75 0.92 1.34 0.92 1.34 1.86 2.71 1.39 2.35 1.39 2.35 1.39 4.35-4.75-1.88-4.75-1.88-7-3v-3c-1.98-0.33-3.96-0.66-6-1v-3c-0.619-0.144-1.24-0.289-1.88-0.438-2.12-0.562-2.12-0.562-4.12-1.56v-2c-1.99 0.0326-3.97 0.0651-5.96 0.0977-2.04-0.0977-2.04-0.0977-5.04-1.1v3c1.65 0.66 3.3 1.32 5 2v3h2c-0.33 0.66-0.66 1.32-1 2-2.64-0.33-5.28-0.66-8-1-0.495-1.98-0.495-1.98-1-4-3.63-0.66-7.26-1.32-11-2v-2h-13c-0.33 1.32-0.66 2.64-1 4h13c-0.33 1.32-0.66 2.64-1 4-3.87 2.25-7.42 2.21-11.8 2.12-1.16-0.018-2.32-0.0361-3.52-0.0547-0.88-0.0232-1.76-0.0464-2.67-0.0703-0.495-3.96-0.495-3.96-1-8-2.97-0.33-5.94-0.66-9-1v2c2.31 0.33 4.62 0.66 7 1-3.13 2.09-4.07 2.28-7.67 2.41-0.893 0.0387-1.79 0.0773-2.71 0.117-0.929 0.0309-1.86 0.0619-2.81 0.0938-0.94 0.0387-1.88 0.0773-2.85 0.117-2.32 0.0942-4.64 0.18-6.96 0.258 1.32-1.98 2.64-3.96 4-6-1.44 0.31-2.88 0.623-4.31 0.938-0.801 0.174-1.6 0.348-2.43 0.527-2.41 0.534-2.41 0.534-5.26 1.54v3c-0.897 0.402-0.897 0.402-1.81 0.812-2.23 1.07-2.23 1.07-3.75 2.81-1.44 1.38-1.44 1.38-4.44 1.38-0.289 0.784-0.577 1.57-0.875 2.38-1.12 2.62-1.12 2.62-3.12 4.62h-3c-0.33 1.32-0.66 2.64-1 4h-2c-0.103 0.701-0.206 1.4-0.312 2.12-0.781 3.27-2.11 5.92-3.69 8.88h-2c-1.15 5.25-1.38 10.4-1.62 15.8-0.0516 0.971-0.103 1.94-0.156 2.94-0.0438 0.922-0.0877 1.84-0.133 2.79-0.0408 0.843-0.0815 1.69-0.124 2.55-0.189 1.97-0.189 1.97 1.04 2.96 0.0867 1.49 0.107 2.98 0.0977 4.47-0.00322 0.899-0.00645 1.8-0.00977 2.72-0.00838 0.946-0.0168 1.89-0.0254 2.87-0.00451 0.949-0.00902 1.9-0.0137 2.88-0.0118 2.35-0.0283 4.71-0.0488 7.06-0.99 0.495-0.99 0.495-2 1 0.576 2.39 1.22 4.67 2 7 0.99 0.33 1.98 0.66 3 1l1-2v2c1.32 0.33 2.64 0.66 4 1h-4c0.66 1.65 1.32 3.3 2 5 1.49-0.495 1.49-0.495 3-1v2c1.32 0.66 2.64 1.32 4 2-0.33 0.66-0.66 1.32-1 2-1.32-0.66-2.64-1.32-4-2v6h4c1.77 0.602 3.52 1.27 5.25 2 0.892 0.371 1.78 0.742 2.7 1.12 0.675 0.289 1.35 0.577 2.05 0.875v4c0.99 0.33 1.98 0.66 3 1v2c0.784 0.0825 1.57 0.165 2.38 0.25 2.62 0.75 2.62 0.75 3.94 2.81 0.34 0.959 0.34 0.959 0.688 1.94h5v-1c5.75-0.125 5.75-0.125 8 1 1.33 0.352 2.66 0.688 4 1v2h2v2h6v3h3c-0.33-0.99-0.66-1.98-1-3 0.33-0.33 0.66-0.66 1-1h-3c-2.19-1-2.19-1-4-2v-2h9c0.33-0.66 0.66-1.32 1-2 0.969 0.186 1.94 0.371 2.94 0.562 4.45 0.656 8.64 0.0888 13.1-0.562v2h8v2h-8v2c1.65-0.33 3.3-0.66 5-1v2c1.26 0.0206 2.52 0.0412 3.81 0.0625 1.06 0.0174 1.06 0.0174 2.14 0.0352 2.25-0.015 2.25-0.015 5.04-1.1-1.49-0.99-1.49-0.99-3-2 1.65-0.33 3.3-0.66 5-1-0.495-3.46-0.495-3.46-1-7h3c0.66-1.65 1.32-3.3 2-5 3.47-0.495 3.47-0.495 7-1-2.14-2.14-3.13-2.43-6-3 0.33-0.66 0.66-1.32 1-2-0.33-0.99-0.66-1.98-1-3 1.07-1.97 1.07-1.97 2.69-4.06 0.519-0.692 1.04-1.38 1.57-2.1 1.84-1.94 3.25-2.89 5.74-3.84h3v6h2c0.99-2.97 1.98-5.94 3-9h4v5h-3v2h2c-0.66 2.97-1.32 5.94-2 9h-2v-2c-0.99 0.495-0.99 0.495-2 1 0.33 1.65 0.66 3.3 1 5 0.928-0.99 0.928-0.99 1.88-2 2.12-2 2.12-2 4.12-2 0.75 2.19 0.75 2.19 1 5-1.81 2.81-1.81 2.81-4 5h-2c-0.33 0.99-0.66 1.98-1 3-1.67 0.667-3.33 1.33-5 2-0.33 0.99-0.66 1.98-1 3-2.31 1.52-4.54 2.75-7 4-0.887 0.49-1.77 0.98-2.69 1.48-19 9.79-42.9 9.86-63.3 4.52-3.17-1.09-6.07-2.39-9-4-0.633-0.343-1.27-0.686-1.92-1.04-1.71-0.956-3.4-1.96-5.08-2.96-0.969-0.536-1.94-1.07-2.94-1.62-0.681-0.454-1.36-0.908-2.06-1.38v-2c-0.804-0.268-1.61-0.536-2.44-0.812-1.27-0.588-1.27-0.588-2.56-1.19-0.33-0.99-0.66-1.98-1-3-1.33-0.672-2.66-1.34-4-2-13.1-13.1-19-30.9-19.2-49 0.0208-16.1 3.07-28.2 9.19-43h2c0.371-1.05 0.371-1.05 0.75-2.12 3.02-6.95 7.5-11.2 13.2-15.9 0.692-0.59 1.38-1.18 2.1-1.79 12.1-10 27.1-15.6 42.8-16.3z" fill="#223A7C"/>
<path transform="translate(955,70)" d="m0 0c1.98 0.0508 1.98 0.0508 4-1 1.08-1.18 1.08-1.18 2.19-2.38 5.04-4.7 10.7-5.86 17.5-5.7 1.96 0.111 3.92 0.24 5.87 0.387 1.51 0.0918 1.51 0.0918 3.06 0.186 2.46 0.152 4.92 0.325 7.38 0.502-0.33 2.97-0.66 5.94-1 9-0.99-0.495-0.99-0.495-2-1-0.99 0.66-1.98 1.32-3 2-2.19 0.625-2.19 0.625-4 1h2v3c0.66 0.33 1.32 0.66 2 1-1.32 0.33-2.64 0.66-4 1h2v3h4v12h-5c-0.33-0.99-0.66-1.98-1-3h4v-2h-6c0.33-1.65 0.66-3.3 1-5-1.05-0.144-2.1-0.289-3.19-0.438-2.97-0.438-5.88-0.941-8.81-1.56-0.0206 0.907-0.0412 1.81-0.0625 2.75-0.938 3.25-0.938 3.25-4 5.62-4.08 2.04-7.44 2.01-11.9 1.62-1-1-1-1-1.06-4.06 0.0206-0.969 0.0412-1.94 0.0625-2.94-2.97-0.33-5.94-0.66-9-1 0.33-1.32 0.66-2.64 1-4-18-1.14-18-1.14-36-1l-1 1c4.35 2.16 8.36 2.27 13.1 2.19 0.715-6.45e-4 1.43-0.00129 2.17-0.00195 3.16-0.0266 5.69-0.18 8.71-1.19 2 1.38 2 1.38 4 3 1.49 0.495 1.49 0.495 3 1 1.03 2.11 1.03 2.11 1.94 4.75 1.5 4.04 3.09 7.06 6.06 10.2-1.32 0.33-2.64 0.66-4 1v-3h-3c0.33 0.99 0.66 1.98 1 3-0.495-0.289-0.99-0.578-1.5-0.875-8.64-3.89-19.3-4.67-28.5-2.38-3.32 1.38-6.06 3.2-9 5.25h-2c0.278-0.866 0.278-0.866 0.562-1.75 0.483-2.48 0.155-3.86-0.562-6.25v-2c1.65-0.66 3.3-1.32 5-2v2c0.99-0.99 1.98-1.98 3-3-3.11 0-4.35 0.539-7 2 0.506-2.17 1-4 2-6-1.27 0.0619-1.27 0.0619-2.56 0.125-3.86-0.14-6.77-0.953-10.4-2.12-0.133 0.638-0.266 1.28-0.402 1.93-0.177 0.826-0.353 1.65-0.535 2.5-0.261 1.24-0.261 1.24-0.527 2.5-0.535 2.07-0.535 2.07-1.54 3.07-2 0.0408-4 0.0425-6 0-0.0619 0.619-0.124 1.24-0.188 1.88-0.812 2.12-0.812 2.12-3.19 3.19-0.866 0.309-1.73 0.619-2.62 0.938-1.77 1.52-1.77 1.52-3 3 0.699-3.15 1.76-6.03 3-9h2v-2c0.99-0.66 1.98-1.32 3-2-1.32-0.33-2.64-0.66-4-1-0.0619 0.619-0.124 1.24-0.188 1.88-0.812 2.12-0.812 2.12-3.19 3.19-0.866 0.309-1.73 0.619-2.62 0.938-1.77 1.52-1.77 1.52-3 3l-1-3 2-1c0.722-1.64 1.39-3.31 2-5h2v-2c1.21-0.34 1.21-0.34 2.44-0.688 0.846-0.433 1.69-0.866 2.56-1.31 0.894-2.55 0.894-2.55 1-5h4c0.33-1.65 0.66-3.3 1-5 4.5-1.76 8.18-2.19 13-2 0.33-2.64 0.66-5.28 1-8h5v-3c-0.66-0.33-1.32-0.66-2-1 15.9-7.95 39.7 1.14 53 10z" fill="#23397C"/>
<path transform="translate(699,65)" d="m0 0h3c1.42 6.8 2.11 13.1 2 20 0.33 0.66 0.66 1.32 1 2 0.433-1.7 0.433-1.7 0.875-3.44 0.371-1.18 0.742-2.35 1.12-3.56 2.71-1.35 5.01-1.07 8-1v-2c1.44-2.12 1.44-2.12 4-4 5.61-0.91 10.7 0.196 16 2-0.33 1.32-0.66 2.64-1 4h2c0.33-0.66 0.66-1.32 1-2 0.66 0.33 1.32 0.66 2 1 1.33 0.352 2.66 0.688 4 1-0.66 0.33-1.32 0.66-2 1-2.08 3.12-2.27 3.93-2.25 7.5-0.00516 0.773-0.0103 1.55-0.0156 2.34 0.138 2.45 0.138 2.45 2.27 5.16 2.21 0.364 2.21 0.364 4.62 0.188 0.817-0.0271 1.63-0.0541 2.48-0.082 0.94-0.0522 0.94-0.0522 1.9-0.105v-3h4c0.144-0.784 0.289-1.57 0.438-2.38 0.562-2.62 0.562-2.62 1.56-4.62 2.5-0.414 2.5-0.414 5.56-0.625 1.52-0.112 1.52-0.112 3.07-0.227 0.782-0.049 1.56-0.098 2.37-0.148-0.66-0.33-1.32-0.66-2-1l1-3c0.577 0.619 1.15 1.24 1.75 1.88 4.75 3.1 9.69 3.45 15.2 4.12 0.495 1.98 0.495 1.98 1 4-3.29 1.1-5.74 1.1-9.19 1.06-1.63-0.0135-1.63-0.0135-3.29-0.0273-0.831-0.0116-1.66-0.0232-2.52-0.0352-0.495-1.98-0.495-1.98-1-4-1.65 0.66-3.3 1.32-5 2v-2c-2.65 2.58-4.94 4.92-7 8-0.959 0.433-0.959 0.433-1.94 0.875-2.29 1.02-2.29 1.02-3.5 3.62-1.86 2.98-3.26 3.52-6.56 4.5-0.66-0.99-1.32-1.98-2-3-2.06-0.724-2.06-0.724-4-1v2h-2c-0.66 1.32-1.32 2.64-2 4h-4c0.33 0.99 0.66 1.98 1 3 0.0685 1.89 0.0848 3.79 0.0625 5.69-0.00902 0.994-0.018 1.99-0.0273 3.01-0.0116 0.759-0.0232 1.52-0.0352 2.3h-3c-0.934 3.01-1.04 3.87 0 7 0.577-0.99 1.15-1.98 1.75-3 0.742-0.99 1.49-1.98 2.25-3h4v2h2v13c-0.99 0.33-1.98 0.66-3 1v-3h-4v2h-2v-2h-3c0.33 5.02 0.33 5.02 3 9 0.125 3.12 0.125 3.12 0 6-2.49 0.687-4.38 1-7 1-0.0606-1.12-0.121-2.24-0.184-3.39-0.0844-1.47-0.169-2.95-0.254-4.42-0.0393-0.738-0.0786-1.48-0.119-2.24-0.187-3.18-0.431-5.91-1.44-8.95-1.28-0.0619-2.56-0.124-3.88-0.188-0.719-0.0348-1.44-0.0696-2.18-0.105-0.963 0.145-0.963 0.145-1.95 0.293-0.66 0.99-1.32 1.98-2 3h-2v16c-0.99 0.495-0.99 0.495-2 1-0.144-4.45-0.286-8.89-0.427-13.3-0.0482-1.51-0.0967-3.02-0.146-4.53-0.0704-2.18-0.14-4.36-0.208-6.54-0.0419-1.31-0.0838-2.62-0.127-3.97-0.0814-3.21-0.109-6.41-0.0918-9.62h-3c0.00222 0.615 0.00444 1.23 0.00673 1.86 0.0221 6.41 0.0372 12.8 0.0482 19.2 0.00503 2.39 0.0118 4.78 0.0205 7.17 0.0121 3.44 0.0178 6.88 0.0222 10.3 0.00516 1.07 0.0103 2.14 0.0156 3.24 7.55e-5 1 1.51e-4 2 2.29e-4 3.03 0.00222 0.877 0.00444 1.75 0.00673 2.66-0.124 2.59-0.549 4.98-1.12 7.5h-1v-5h-2c-0.0232-11.7-0.0409-23.5-0.0518-35.2-0.00521-5.45-0.0123-10.9-0.0236-16.4-0.0109-5.26-0.0168-10.5-0.0194-15.8-0.00184-2.01-0.00545-4.01-0.0109-6.02-0.00728-2.81-0.00826-5.63-0.0078-8.44-0.0036-0.826-0.00719-1.65-0.0109-2.5 0.00825-4.65 0.352-9.05 1.12-13.6z" fill="#243A7D"/>
<path transform="translate(1049,165)" d="m0 0c4.72 3.98 8.85 8.8 10 15 0.619 7.76 0.847 13.7-4 20-4.5 5.08-9.32 8.52-16 10-8.82 0.0132-14.7-1.67-21.2-7.75-4.2-4.45-6.72-7.97-6.9-14.3 0.381-8.7 1.88-15.2 8.34-21.3 9.29-7.26 19.7-7.72 29.8-1.69z" fill="#479FDD"/>
<path transform="translate(641)" d="m0 0c0.33 0.66 0.66 1.32 1 2 1.42-0.526 1.42-0.526 2.88-1.06 4.82-1.38 9.24-0.75 14.1 0.0625l3.12 0.5c5.44 2.84 9.73 7.75 12.1 13.4 1.68 6.6 2.07 14.2-0.773 20.5-3.85 6.38-9.13 10.1-16.3 12.1-7.87 1.72-14.4-0.517-21.2-4.52-5.09-4.4-8.29-8.87-9.12-15.6-0.139-8.22 1.87-14.9 7.12-21.4 1.92-1.56 3.86-2.73 6-4 0.33-0.66 0.66-1.32 1-2z" fill="#223B7E"/>
<path transform="translate(784 59.4)" d="m0 0c0.922 0.0522 1.84 0.104 2.79 0.158 2.26 0.129 4.51 0.264 6.77 0.404v1h-16v2c1.92-0.0309 1.92-0.0309 3.88-0.0625 3.88-0.0625 3.88-0.0625 6.12 1.06v3c1.65 0.66 3.3 1.32 5 2v5c-0.949 0.289-1.9 0.578-2.88 0.875-3.18 0.893-3.18 0.893-5.12 3.12-1.8 0.668-1.8 0.668-3.88 1.19-0.678 0.179-1.36 0.358-2.05 0.543-2.3 0.299-3.88-0.0367-6.07-0.73v3h9v2c2.64 0.33 5.28 0.66 8 1v1c-17 0.32-17 0.32-22.1-3.06-0.959-0.959-0.959-0.959-1.94-1.94-0.33 0.66-0.66 1.32-1 2 1.32 0.66 2.64 1.32 4 2h-13c-0.66 2.31-1.32 4.62-2 7h-4v3c-1.43 0.276-2.87 0.52-4.31 0.75-0.801 0.139-1.6 0.278-2.43 0.422-2.26-0.172-2.26-0.172-4.03-1.84-1.41-2.68-1.63-4.38-1.61-7.39-0.0116-1.29-0.0116-1.29-0.0234-2.6 0.467-2.74 1.27-3.62 3.4-5.34-0.66-0.33-1.32-0.66-2-1-0.33 0.66-0.66 1.32-1 2l-1-2c-0.99 0.33-1.98 0.66-3 1 0.33-1.32 0.66-2.64 1-4-1.33 0.0309-1.33 0.0309-2.69 0.0625-2.95-0.0557-5.44-0.473-8.31-1.06-2.63-0.334-2.63-0.334-5 0-0.99 1.48-0.99 1.48-2 3h-2v2l-8 1c0.0619 1.42 0.0619 1.42 0.125 2.88-0.125 3.12-0.125 3.12-2.12 5.12-2.03-4.19-2-7.39-2-12-0.433-3.39-0.891-6.76-2-10-0.99-0.66-1.98-1.32-3-2 0.33-0.66 0.66-1.32 1-2 4.02-0.0877 8.04-0.141 12.1-0.188 1.7-0.0377 1.7-0.0377 3.44-0.0762 7.49-0.0655 13.1-0.0405 18.7 5.42 0.568 0.773 1.14 1.55 1.72 2.34 0.88 1.16 0.88 1.16 1.78 2.34 1.29 2.16 1.29 2.16 1.29 5.16 3.66-1.03 5.86-2.69 8.56-5.25 4.88-4.46 10.5-7 16.4-9.75 0.951-0.547 0.951-0.547 1.92-1.11 6.19-2.66 13-1.87 19.5-1.46z" fill="#233A7C"/>
<path transform="translate(904,61)" d="m0 0v3h-5c-0.33 2.64-0.66 5.28-1 8-4.29 0.66-8.58 1.32-13 2-0.33 1.65-0.66 3.3-1 5h-4c-0.0928 1.18-0.0928 1.18-0.188 2.38-0.268 0.866-0.536 1.73-0.812 2.62-2.56 1.31-2.56 1.31-5 2v2c-0.66 0.33-1.32 0.66-2 1-0.725 1.64-1.38 3.32-2 5-0.516 1.18-1.03 2.35-1.56 3.56-1.06 2.53-1.9 4.77-2.44 7.44h-2c0.0206 1.07 0.0412 2.15 0.0625 3.25-0.0625 3.75-0.0625 3.75-0.559 5.66-1.35 5.61-0.75 11.9 0.0586 17.6 0.438 3.5 0.438 3.5-0.562 6.5-0.0807 1.48-0.108 2.97-0.0977 4.45 0.00322 0.848 0.00645 1.7 0.00977 2.57 0.00838 0.881 0.0168 1.76 0.0254 2.67 0.00451 0.893 0.00902 1.79 0.0137 2.71 0.0118 2.2 0.0282 4.4 0.0488 6.61-0.66-0.33-1.32-0.66-2-1v-4h-2c0.256 1.61 0.531 3.21 0.812 4.81 0.151 0.893 0.302 1.79 0.457 2.71 0.784 2.66 1.62 3.74 3.73 5.48 1.49-0.495 1.49-0.495 3-1v2c1.18-0.309 1.18-0.309 2.38-0.625 1.3-0.186 1.3-0.186 2.62-0.375 2.37 2.37 2.28 3.08 2.5 6.31 0.316 3.56 0.925 6.43 2.5 9.69h3v3c-1.49 0.495-1.49 0.495-3 1-0.66-0.33-1.32-0.66-2-1v3c1.32 0.33 2.64 0.66 4 1v2h2v2c1.32 0.66 2.64 1.32 4 2v2c-3.99-1.37-6.88-3.15-10-6v-2c-0.57-0.229-1.14-0.459-1.73-0.695-8.96-5.14-15-17.3-18.1-26.8-0.462-1.81-0.839-3.63-1.19-5.46h-1c-1.41-7.24-1.3-14.5-1.35-21.9-0.0164-1.7-0.0436-3.4-0.082-5.1-0.358-16 2.3-28.5 11.4-42 0.681-1.09 1.36-2.19 2.06-3.31 7.63-10.6 24.9-25.2 38.9-21.7z" fill="#213B7D"/>
<path transform="translate(539,147)" d="m0 0c2.06 0.438 2.06 0.438 4 1v2c1.07-0.0206 2.14-0.0412 3.25-0.0625 2.9 0.0483 5.04 0.194 7.75 1.06v2h2v5h5c0.506 1.75 1 3.5 1.5 5.25 0.278 0.975 0.557 1.95 0.844 2.95 0.656 2.8 0.656 2.8 0.656 6.8 1.65 0.33 3.3 0.66 5 1 0.33 2.97 0.66 5.94 1 9h2l0.586 6.15c0.205 0.915 0.205 0.915 0.414 1.85l2 1c0.33-1.65 0.66-3.3 1-5 2.97 0.33 5.94 0.66 9 1l1-2h2c0.66 0.99 1.32 1.98 2 3 0.33-0.99 0.66-1.98 1-3h2c0.371 0.495 0.742 0.99 1.12 1.5 3.05 2.44 6.06 1.69 9.88 1.5v11c-1.49 0.495-1.49 0.495-3 1 0.495 2.47 0.495 2.47 1 5 3.47-0.495 3.47-0.495 7-1v-4-7h2c1.47 2.05 1.47 2.05 3.06 4.75 0.527 0.882 1.05 1.76 1.6 2.67 1.18 2.27 1.78 4.11 2.34 6.58-5.43 0.0745-10.9 0.129-16.3 0.165-1.84 0.015-3.69 0.0355-5.53 0.0615-2.66 0.0366-5.32 0.0535-7.98 0.0667-0.817 0.0155-1.63 0.031-2.48 0.0469-7.51 0.00218-13.2-2.16-18.7-7.34-6.58-8.5-11.2-18.7-16.2-28.2-0.801-1.52-1.6-3.04-2.4-4.56-3.54-6.72-7.03-13.5-10.4-20.3 0.33-0.33 0.66-0.66 1-1z" fill="#223A7C"/>
<path transform="translate(486,6)" d="m0 0c4.35-0.117 8.71-0.187 13.1-0.25 1.84-0.0503 1.84-0.0503 3.72-0.102 6.97-0.0752 11.6 0.0159 17.2 4.35 2.44 2.75 2.44 2.75 4 5-0.99 0.33-1.98 0.66-3 1v-2h-4c-0.33 0.66-0.66 1.32-1 2-1.24-0.33-2.48-0.66-3.75-1-5.75-1.3-11.4-1.18-17.2-1-1.13 5.11-1.67 10.3-2.25 15.5-0.643 5.42-0.643 5.42-1.75 6.53-0.368 2.33-0.702 4.66-1 7-0.66-0.99-1.32-1.98-2-3v56c1.32 0.33 2.64 0.66 4 1 0.977 4.07 1.12 7.87 1.1 12.1-0.00141 0.659-0.00283 1.32-0.00429 2-0.00556 2.09-0.0181 4.18-0.0309 6.27-0.00502 1.42-0.00958 2.85-0.0137 4.27-0.011 3.47-0.0282 6.95-0.0488 10.4-0.99 0.495-0.99 0.495-2 1-0.99-2.31-1.98-4.62-3-7-0.867 3.72-1.11 7.11-1.05 10.9 0.0136 1.17 0.0273 2.34 0.0413 3.54 0.0208 1.25 0.0415 2.5 0.0629 3.79 0.0189 1.29 0.0377 2.59 0.0572 3.92 0.0409 2.73 0.0861 5.46 0.134 8.19 0.0607 3.5 0.108 6.99 0.151 10.5 0.0439 3.34 0.102 6.68 0.158 10 0.0147 1.25 0.0294 2.51 0.0445 3.8 0.0231 1.16 0.0462 2.33 0.07 3.53 0.0163 1.02 0.0327 2.05 0.0495 3.1 0.287 2.7 0.903 4.37 2.29 6.69-0.66 0.99-1.32 1.98-2 3 1.98-0.33 3.96-0.66 6-1v12h-9c-1.53-3.07-1.14-6.29-1.13-9.65-0.00227-0.799-0.00453-1.6-0.00687-2.42-0.00636-2.69-0.00551-5.39-0.00469-8.08-0.00299-1.92-0.00639-3.85-0.0102-5.77-0.00886-5.24-0.0112-10.5-0.0118-15.7-9.48e-4 -4.37-0.00462-8.74-0.00817-13.1-0.00815-10.3-0.0106-20.6-0.00987-30.9 6.01e-4 -10.6-0.00995-21.3-0.0257-31.9-0.0131-9.13-0.0184-18.3-0.0178-27.4 2.55e-4 -5.46-0.00262-10.9-0.0132-16.4-0.00966-5.13-0.00978-10.3-0.00248-15.4 0.00105-1.89-0.00133-3.77-0.00736-5.66-0.00768-2.57-0.0031-5.14 0.00463-7.71-0.00772-1.12-0.00772-1.12-0.0156-2.27 0.0247-3.71 0.205-6.49 2.26-9.64z" fill="#223B7E"/>
<path transform="translate(359,158)" d="m0 0c3 0 3 0 4.5 1.46 0.743 0.947 0.743 0.947 1.5 1.91 1.97 2.49 3.29 3.82 6 5.62v2c1.99 0.682 4 1.34 6 2 0.739 0.264 1.48 0.529 2.24 0.801 9.95 3.35 19 3.13 28.8-0.801 1.68-0.979 3.35-1.97 5-3 0.66 0.33 1.32 0.66 2 1-0.33 0.33-0.66 0.66-1 1 3.47-0.495 3.47-0.495 7-1v2c0.371-0.474 0.743-0.949 1.12-1.44 2.5-2.08 4.69-2.21 7.88-2.56-0.66 2.31-1.32 4.62-2 7h-4c0.186 0.598 0.371 1.2 0.562 1.81 0.438 2.19 0.438 2.19-0.562 5.19h-4c-0.33 1.98-0.66 3.96-1 6h-2c-0.66 1.32-1.32 2.64-2 4-1.98-0.66-3.96-1.32-6-2-0.33 0.66-0.66 1.32-1 2-5.03-0.525-10-1.11-15-2v4c-5.49 0.234-10.8-0.182-16-2-0.33-0.66-0.66-1.32-1-2-0.99-0.33-1.98-0.66-3-1-1.35-2.71-1.07-5.01-1-8-1.32-0.66-2.64-1.32-4-2v-3c1.32 0.66 2.64 1.32 4 2v-2c-0.639-0.227-1.28-0.454-1.94-0.688-2.06-1.31-2.06-1.31-2.81-3.94-0.0825-0.784-0.165-1.57-0.25-2.38h-2v-2c-0.99-0.33-1.98-0.66-3-1-2.32-2.58-3-3.45-3-7z" fill="#233A7C"/>
<path transform="translate(942,97)" d="m0 0h3v3h4v2c0.66 0.33 1.32 0.66 2 1 1.12 2.06 1.12 2.06 2 4h1v-2h3c2.13 3.19 2.5 5.27 3 9 0.99 0.33 1.98 0.66 3 1 0.33-0.66 0.66-1.32 1-2 0.0825 0.949 0.165 1.9 0.25 2.88 0.247 1.03 0.495 2.06 0.75 3.12 1.99 1.22 1.99 1.22 4 2 0.0543 2.71 0.0938 5.42 0.125 8.12 0.0168 0.761 0.0335 1.52 0.0508 2.3 0.0394 4.57-0.28 8.31-2.18 12.6l-2 1c0.33 0.66 0.66 1.32 1 2 0.353 6.47 0.353 6.47-2 10-0.495-2.97-0.495-2.97-1-6-0.99-0.33-1.98-0.66-3-1 0.0412 1.11 0.0825 2.23 0.125 3.38-0.159 4.6-1.33 4.87-4.56 7.94-2.65 2.49-2.65 2.49-3.81 5.44-1.75 2.25-1.75 2.25-3.76 2.79-3.98 0.466-7.99 0.594-12 0.465v5h-6c0.312-1.94 0.312-1.94 1-4 1.49-0.495 1.49-0.495 3-1-0.33-0.99-0.66-1.98-1-3 0.58-0.208 1.16-0.415 1.76-0.629 8.03-3.17 12.1-7.35 15.6-15.2 1.72-4.71 2.49-9.13 2.69-14.1 0.0425-1.09 0.0425-1.09 0.0859-2.21 0.0398-2.27-0.00878-4.52-0.0859-6.79-0.00516-0.758-0.0103-1.52-0.0156-2.3-0.453-9.9-4.79-19.1-11-26.7v-2z" fill="#213B7D"/>
<path transform="translate(91,120)" d="m0 0c0.99 0.33 1.98 0.66 3 1v2h2v3h2c0.66 0.99 1.32 1.98 2 3 0.33-1.32 0.66-2.64 1-4 0.99 0.495 0.99 0.495 2 1v5h2v2h2c2.71 6.55 3.35 11.7 2.5 18.8-0.067 0.824-0.134 1.65-0.203 2.5-0.449 4.1-0.921 6.85-3.89 9.83-0.794 0.634-1.59 1.27-2.41 1.92h3c-1.65 1.98-3.3 3.96-5 6-0.99-0.33-1.98-0.66-3-1-0.66 0.99-1.32 1.98-2 3v-2h-4c-0.33 1.65-0.66 3.3-1 5-0.664 0.0258-1.33 0.0516-2.01 0.0781-5.82 0.374-8.47 1.12-13 4.92-6.92 1.34-13.7 0.952-20.8 0.625-1.12-0.0438-2.25-0.0877-3.4-0.133-9.04-0.389-9.04-0.389-12.8-1.49 0.33-2.31 0.66-4.62 1-7h-2v-2c1.22 0.0209 2.44 0.0419 3.7 0.0635 4.57 0.0729 9.13 0.119 13.7 0.156 1.97 0.02 3.94 0.0472 5.91 0.082 2.85 0.049 5.69 0.0713 8.53 0.0889 1.3 0.031 1.3 0.031 2.63 0.0626 7.35 0.00264 14.3-1.66 20-6.57 5.94-8.36 7.47-15.7 6.56-25.9-0.745-2.88-1.77-5.26-3-8-0.495-1.7-0.495-1.7-1-3.44-0.495-1.27-0.495-1.27-1-2.56-0.99-0.33-1.98-0.66-3-1v-2c-0.99-0.33-1.98-0.66-3-1 0.99-0.66 1.98-1.32 3-2z" fill="#213A7B"/>
<path transform="translate(124 171)" d="m0 0c0.866 0.412 1.73 0.825 2.62 1.25v2c0.66-0.33 1.32-0.66 2-1 0.33-0.99 0.66-1.98 1-3 0.99 0.495 0.99 0.495 2 1 1 3.39 1.41 5.21-0.238 8.4-5.84 8.62-12.7 14.5-21.8 19.6-0.62 0.388-1.24 0.776-1.88 1.18-15.7 9.1-35.3 7.3-52.7 7.07-2.67-0.0224-5.34-0.0383-8.01-0.0547-6.48-0.0437-13-0.11-19.4-0.195v-1c10.9-1.14 22.2-2.09 33 0v-2c0.59-0.0501 1.18-0.1 1.79-0.152 2.68-0.232 5.35-0.478 8.02-0.723 0.929-0.0786 1.86-0.157 2.81-0.238 0.893-0.0838 1.79-0.168 2.71-0.254 0.822-0.0733 1.64-0.147 2.49-0.222 2.46-0.317 2.46-0.317 5.18-2.41h4v-2c-1.65 0.33-3.3 0.66-5 1v-3c1.65-0.33 3.3-0.66 5-1v-2c-0.66-0.33-1.32-0.66-2-1 2.85-0.775 5.61-1.24 8.55-1.54 0.844-0.087 1.69-0.174 2.56-0.264 0.873-0.087 1.75-0.174 2.64-0.264 0.888-0.0909 1.78-0.182 2.69-0.275 2.19-0.223 4.37-0.444 6.56-0.662 0.33-1.65 0.66-3.3 1-5h2c0.33-1.98 0.66-3.96 1-6-1.65-0.33-3.3-0.66-5-1 1.62-1.71 3.29-3.37 5-5h2v2c0.866-0.701 1.73-1.4 2.62-2.12 3.38-1.88 3.38-1.88 6.75-1.12z" fill="#223A7C"/>
<path transform="translate(595 61.1)" d="m0 0c2.08 0.0703 4.16 0.134 6.24 0.191 5.07 0.154 10.1 0.395 15.2 0.684 1 3 1 3 0.223 5.04-0.383 0.708-0.766 1.42-1.16 2.14-0.38 0.715-0.761 1.43-1.15 2.17-0.451 0.814-0.451 0.814-0.91 1.64-1.5-1.31-1.5-1.31-3-3v-3c-1.32-0.33-2.64-0.66-4-1 0.66-0.33 1.32-0.66 2-1h-2c-0.33 0.99-0.66 1.98-1 3-3.38 0.188-3.38 0.188-7 0-0.99-1.48-0.99-1.48-2-3-2.63-0.221-5.01-0.282-7.62-0.188-0.706 0.0135-1.41 0.0271-2.14 0.041-1.75 0.0354-3.49 0.0892-5.23 0.146-0.33 0.99-0.66 1.98-1 3h-2c-1.51 3.39-1.51 3.39-2 7-1.04 3.11-1.73 3.82-4 6-0.516 0.722-1.03 1.44-1.56 2.19-0.474 0.598-0.949 1.2-1.44 1.81h-2c-1.7 5.33-2.52 10.4-3 16h-2c-0.33-0.33-0.66-0.66-1-1-0.33 1.32-0.66 2.64-1 4h-2v2h-4c-0.247 0.578-0.495 1.16-0.75 1.75-1.78 3.21-3.95 5.6-7.25 7.25-2.67 0.134-5.32 0.0432-8 0v4c-2.64 0.33-5.28 0.66-8 1-0.99-1.98-1.98-3.96-3-6l4-1c-1.65-0.33-3.3-0.66-5-1v-1c1.07-0.121 2.14-0.242 3.25-0.367 1.4-0.169 2.79-0.338 4.19-0.508 0.707-0.0786 1.41-0.157 2.14-0.238 1.82-0.226 3.62-0.55 5.42-0.887 0.33-0.66 0.66-1.32 1-2h2c0.227-0.681 0.454-1.36 0.688-2.06 1.37-3.07 3.05-5.45 5.04-8.14 1.53-2.16 2.78-4.44 4.07-6.75 2.14-3.64 4.54-7.11 6.97-10.6 1.61-2.39 2.66-4.46 3.84-7.15 6.18-13.7 16.5-12 30-11.2z" fill="#223B7D"/>
<path transform="translate(29,36)" d="m0 0c2 2 2 2 2.19 4.81-0.167 2.84-0.538 5.43-1.19 8.19 1.58-4.33 2.45-8.43 3-13 1.32 0.33 2.64 0.66 4 1-0.526 0.866-0.526 0.866-1.06 1.75-1.15 2.75-0.656 3.42 0.0625 6.25 0.252 4.52 0.231 9.04 0.25 13.6 0.0206 1.24 0.0413 2.49 0.0625 3.77 0.00516 1.19 0.0103 2.38 0.0156 3.61 0.014 1.63 0.014 1.63 0.0283 3.3-0.356 2.76-0.356 2.76-1.88 4.63-0.732 0.555-0.732 0.555-1.48 1.12-0.66-0.33-1.32-0.66-2-1 0.66 1.98 1.32 3.96 2 6 0.99-0.495 0.99-0.495 2-1 0.66 1.98 1.32 3.96 2 6 0.33-8.58 0.66-17.2 1-26h1c0.495 14.4 0.495 14.4 1 29h8c2 2 2 2 2.12 4.62-0.0413 0.784-0.0825 1.57-0.125 2.38-2.68 1.34-5.09 1.03-8.03 0.938-2.19-0.0248-2.19-0.0248-4.97 1.06 0.0413 1.28 0.0825 2.56 0.125 3.88 0.0703 2.18 0.0703 2.18-0.125 4.12-0.99 0.99-0.99 0.99-2 2-0.33-2.97-0.66-5.94-1-9-0.99 0.495-0.99 0.495-2 1v-10c-0.99 0.66-1.98 1.32-3 2-2.19-0.375-2.19-0.375-4-1v-6c-0.33 0.66-0.66 1.32-1 2-1.32-0.33-2.64-0.66-4-1 0.766-7.4 0.766-7.4 2.12-10.9 1.08-3.84 0.61-6.79 0.102-10.7-0.277-2.95 0.0934-5.54 0.773-8.41h2c-0.0619-0.969-0.124-1.94-0.188-2.94-0.0191-4.69 1.56-8.72 3.19-13.1 0.33-0.99 0.66-1.98 1-3z" fill="#243A7D"/>
<path transform="translate(668,13)" d="m0 0h3v2h3c2.16 6.48 2.18 14.5-0.812 20.7-2.19 3.31-2.19 3.31-5.19 5.31-0.33-0.99-0.66-1.98-1-3 0.33-0.66 0.66-1.32 1-2h-3v2c-3 2-3 2-5.69 1.62-0.763-0.206-1.53-0.412-2.31-0.625 0.66-0.33 1.32-0.66 2-1 0.652-2.02 0.652-2.02 1-4-1.98 0.99-1.98 0.99-4 2-0.33-0.99-0.66-1.98-1-3-0.99 2.31-1.98 4.62-3 7-4.29-0.33-8.58-0.66-13-1-0.217-1.61-0.217-1.61-0.438-3.25-0.401-2.67-0.888-5.15-1.56-7.75v-5c2.85-1.9 4.42-2.46 7.69-3.12 0.808-0.168 1.62-0.335 2.45-0.508 0.615-0.121 1.23-0.242 1.86-0.367v-2h14v-3c3 1 3 1 5 3v-4z" fill="#243A7D"/>
<path transform="translate(92,44)" d="m0 0c0.495 0.99 0.495 0.99 1 2 1.32-0.33 2.64-0.66 4-1-0.33 0.99-0.66 1.98-1 3 0.309 0.804 0.619 1.61 0.938 2.44 1.54 5.17 1.22 10.2 1.06 15.6h3c0.503 4.93 0.698 8.67-2.38 12.8-0.467 0.559-0.933 1.12-1.41 1.7-1.4 1.6-1.4 1.6-1.96 4.18-2.17 4.12-5.93 5.93-10.2 7.38-3.45 0.11-6.63-0.29-10-1-0.33 1.32-0.66 2.64-1 4-1.77 0.505-3.54 1-5.31 1.5-0.986 0.278-1.97 0.557-2.99 0.844-2.7 0.656-2.7 0.656-5.7 0.656v2l4 1c-0.33 0.66-0.66 1.32-1 2-1.62 0.054-3.25 0.0928-4.88 0.125l-2.74 0.0703c-2.38-0.195-2.38-0.195-4.38-2.2 1.98-0.495 1.98-0.495 4-1v-2c-1.11 0.0412-2.23 0.0825-3.38 0.125-3.62-0.125-3.62-0.125-5.62-2.12 1.98-0.495 1.98-0.495 4-1v-5c-3.3-0.66-6.6-1.32-10-2v-1c1.57-0.014 1.57-0.014 3.18-0.0283 3.92-0.0401 7.84-0.106 11.8-0.179 1.69-0.0281 3.38-0.0494 5.07-0.0635 2.44-0.0216 4.89-0.0683 7.33-0.12 0.746-0.00123 1.49-0.00246 2.26-0.00372 4.92-0.135 8.37-1.24 12.7-3.65 1.74-0.951 1.74-0.951 4.74-1.95 1.16-1.73 1.16-1.73 2-4 0.351-0.825 0.701-1.65 1.06-2.5 2.38-8.87 2.48-15.8-1.15-24.3-0.91-2.18-0.91-2.18-0.91-4.18h4v-2z" fill="#213A7A"/>
<path transform="translate(784 59.4)" d="m0 0c0.922 0.0522 1.84 0.104 2.79 0.158 2.26 0.129 4.51 0.264 6.77 0.404v1h-16v3c-0.603 0.0258-1.21 0.0516-1.83 0.0781-5.22 0.325-5.22 0.325-9.67 2.86-1.53 1.98-1.53 1.98-2.5 4.06h-4v2h-2v2c-1.65 0.33-3.3 0.66-5 1 0.33-0.66 0.66-1.32 1-2-2.48-0.495-2.48-0.495-5-1 0.495 1.98 0.495 1.98 1 4-1.32-0.33-2.64-0.66-4-1-0.33 0.66-0.66 1.32-1 2h-6c-0.33 0.66-0.66 1.32-1 2l-1-2c-0.99 0.33-1.98 0.66-3 1 0.33-1.32 0.66-2.64 1-4-1.33 0.0309-1.33 0.0309-2.69 0.0625-2.95-0.0557-5.44-0.473-8.31-1.06-2.63-0.334-2.63-0.334-5 0-0.99 1.48-0.99 1.48-2 3h-2v2l-8 1c0.0619 1.42 0.0619 1.42 0.125 2.88-0.125 3.12-0.125 3.12-2.12 5.12-2.03-4.19-2-7.39-2-12-0.433-3.39-0.891-6.76-2-10-0.99-0.66-1.98-1.32-3-2 0.33-0.66 0.66-1.32 1-2 4.02-0.0877 8.04-0.141 12.1-0.188 1.7-0.0377 1.7-0.0377 3.44-0.0762 7.49-0.0655 13.1-0.0405 18.7 5.42 0.568 0.773 1.14 1.55 1.72 2.34 0.88 1.16 0.88 1.16 1.78 2.34 1.29 2.16 1.29 2.16 1.29 5.16 3.66-1.03 5.86-2.69 8.56-5.25 4.88-4.46 10.5-7 16.4-9.75 0.951-0.547 0.951-0.547 1.92-1.11 6.19-2.66 13-1.87 19.5-1.46z" fill="#213A7B"/>
<path transform="translate(412,99)" d="m0 0h6c0.33 1.32 0.66 2.64 1 4h3v5h2c0.33-1.32 0.66-2.64 1-4h2v4c0.804 0.124 1.61 0.248 2.44 0.375 0.846 0.206 1.69 0.412 2.56 0.625 0.33 0.66 0.66 1.32 1 2-0.33 0.66-0.66 1.32-1 2 0.99 0.33 1.98 0.66 3 1 3 12.7 6.41 28.7-0.0234 40.9-1.1 1.68-1.1 1.68-2.98 4.05l1 1c0 3 0 3-2.25 5.69-2.75 2.31-2.75 2.31-6.75 2.31-0.33 0.99-0.66 1.98-1 3-0.99-0.33-1.98-0.66-3-1-2.34 0.278-4.68 0.605-7 1 1.49-3.36 2.79-5.79 5.44-8.38 8.42-8.62 8.78-20 8.67-31.4-0.0274-1.73-0.064-3.45-0.103-5.18h-1c-0.135-0.834-0.271-1.67-0.41-2.53-1.57-8.23-3.97-13.3-9.59-19.5-0.804-1.01-1.61-2.02-2.44-3.06-0.516-0.639-1.03-1.28-1.56-1.94z" fill="#223B7E"/>
<path transform="translate(699,65)" d="m0 0h3c1.42 6.8 2.11 13.1 2 20 0.33 0.66 0.66 1.32 1 2 0.99-3.47 0.99-3.47 2-7h1v16h3c0.33-4.29 0.66-8.58 1-13 2 2 2 2 2.15 4.33-0.046 0.957-0.092 1.91-0.139 2.9-0.0706 1.57-0.0706 1.57-0.143 3.18-0.0599 1.1-0.12 2.2-0.182 3.34-0.0483 1.09-0.0967 2.17-0.146 3.29-0.245 5.07-0.639 9.96-1.54 15-0.33-0.66-0.66-1.32-1-2h-4v30h-1c-0.623-10-1.18-20-1-30h-3c0.00222 0.615 0.00444 1.23 0.00673 1.86 0.0221 6.41 0.0372 12.8 0.0482 19.2 0.00503 2.39 0.0118 4.78 0.0205 7.17 0.0121 3.44 0.0178 6.88 0.0222 10.3 0.00516 1.07 0.0103 2.14 0.0156 3.24 7.55e-5 1 1.51e-4 2 2.29e-4 3.03 0.00222 0.877 0.00444 1.75 0.00673 2.66-0.124 2.59-0.549 4.98-1.12 7.5h-1v-5h-2c-0.0232-11.7-0.0409-23.5-0.0518-35.2-0.00521-5.45-0.0123-10.9-0.0236-16.4-0.0109-5.26-0.0168-10.5-0.0194-15.8-0.00184-2.01-0.00545-4.01-0.0109-6.02-0.00728-2.81-0.00826-5.63-0.0078-8.44-0.0036-0.826-0.00719-1.65-0.0109-2.5 0.00825-4.65 0.352-9.05 1.12-13.6z" fill="#223B7E"/>
<path transform="translate(539,147)" d="m0 0c2.06 0.438 2.06 0.438 4 1v2c1.07-0.0206 2.14-0.0412 3.25-0.0625 2.9 0.0483 5.04 0.194 7.75 1.06v2h2v5h5c0.506 1.75 1 3.5 1.5 5.25 0.278 0.975 0.557 1.95 0.844 2.95 0.656 2.8 0.656 2.8 0.656 6.8 1.65 0.33 3.3 0.66 5 1 0.33 2.97 0.66 5.94 1 9h2c0.369 5.54 0.369 5.54-1.5 7.88-0.495 0.371-0.99 0.743-1.5 1.12-0.66-0.99-1.32-1.98-2-3h-2c0.33 2.31 0.66 4.62 1 7 1.65 0.66 3.3 1.32 5 2l1-2c3.94 3.32 3.94 3.32 4.25 6.75-0.0825 0.743-0.165 1.49-0.25 2.25-4.76 0-5.61-0.832-9-4-6.58-8.5-11.2-18.7-16.2-28.2-0.801-1.52-1.6-3.04-2.4-4.56-3.54-6.72-7.03-13.5-10.4-20.3 0.33-0.33 0.66-0.66 1-1z" fill="#223B7E"/>
<path transform="translate(165,95)" d="m0 0c0.33 0.99 0.66 1.98 1 3 2.02 0.733 2.02 0.733 4 1-0.338 0.813-0.675 1.63-1.02 2.46-3.69 9.47-5.16 18.4-5.98 28.5h-2c0.144 1.1 0.289 2.19 0.438 3.32 0.188 1.45 0.375 2.91 0.562 4.36 0.0954 0.721 0.191 1.44 0.289 2.19 0.478 3.74 0.83 7.35 0.711 11.1-1.32 0.66-2.64 1.32-4 2-0.999-7.36-1.1-14.6-1-22h2v-3c-0.99-0.33-1.98-0.66-3-1 0.138 4.31 0.287 8.63 0.438 12.9 0.0393 1.23 0.0786 2.46 0.119 3.73 0.0419 1.17 0.0838 2.34 0.127 3.54 0.0367 1.08 0.0733 2.17 0.111 3.28-0.071 2.44-0.071 2.44 1.21 3.5 0.347 1.58 0.653 3.16 0.938 4.75 0.69 3.62 1.49 6.89 3.06 10.2-2.33-0.113-2.33-0.113-5-1-1.55-2.73-1.55-2.73-2.75-6.19-0.407-1.13-0.815-2.26-1.23-3.42-2.15-7.2-2.2-14.1-2.2-21.5-0.0122-1.06-0.0245-2.13-0.0371-3.23-0.0188-10.3 0.998-19.9 5.35-29.4 0.539-1.19 1.08-2.38 1.63-3.61 0.615-1.31 0.615-1.31 1.24-2.64 0.99 0.99 1.98 1.98 3 3 0.66-1.98 1.32-3.96 2-6z" fill="#223B7E"/>
<path transform="translate(634,114)" d="m0 0c3 1 3 1 5 3 0.782 8.68-0.199 17.1-1.49 25.7-1.16 8.68-1.22 17.5-1.51 26.3h4c-0.33 0.66-0.66 1.32-1 2-0.99-0.33-1.98-0.66-3-1v3h4c-0.33 5.94-0.66 11.9-1 18 0.99-0.99 1.98-1.98 3-3 0.0606 0.603 0.121 1.21 0.184 1.83 0.126 1.2 0.126 1.2 0.254 2.42 0.0812 0.789 0.162 1.58 0.246 2.39 0.263 2.34 0.263 2.34 0.887 4.49 0.43 1.87 0.43 1.87-0.133 4.49-0.217 1.18-0.217 1.18-0.438 2.38 0.66 0.66 1.32 1.32 2 2-1.79 0.0809-3.58 0.139-5.38 0.188-1.5 0.0522-1.5 0.0522-3.02 0.105-0.859-0.0967-1.72-0.193-2.6-0.293-2.5-3.76-2.28-6.7-2.26-11-0.0035-0.82-0.00701-1.64-0.0106-2.48-0.00881-2.71-0.00297-5.43 0.00378-8.14-0.00135-1.89-0.00329-3.77-0.0058-5.66-0.00295-3.96 0.00134-7.92 0.0107-11.9 0.0114-5.07 0.00485-10.1-0.00714-15.2-0.00724-3.9-0.00492-7.8 2.56e-4 -11.7 0.00133-1.87-2.96e-4 -3.74-0.00496-5.6-0.0051-2.62 0.00269-5.23 0.0138-7.85-0.00405-0.769-0.0081-1.54-0.0123-2.33 0.0346-4.41 0.639-8.01 2.27-12.1z" fill="#223B7E"/>
<path transform="translate(927,59)" d="m0 0c10.5 1.05 19.3 5.18 28 11 1.98 0.0508 1.98 0.0508 4-1 0.722-0.784 1.44-1.57 2.19-2.38 5.04-4.7 10.7-5.86 17.5-5.7 1.96 0.111 3.92 0.24 5.87 0.387 1.51 0.0918 1.51 0.0918 3.06 0.186 2.46 0.152 4.92 0.325 7.38 0.502-0.33 2.97-0.66 5.94-1 9l-2-1c-0.99 0.66-1.98 1.32-3 2-2.38-0.0234-2.38-0.0234-5-0.375-2.72-0.348-5.25-0.625-8-0.625-0.647-0.211-1.29-0.423-1.96-0.641-2.07-0.568-2.07-0.568-3.89 0.531-0.585 0.449-1.17 0.897-1.77 1.36-0.59 0.438-1.18 0.877-1.79 1.33-1.84 1.53-1.84 1.53-3.59 4.42-3.83 1.85-7.16 0.257-11-1v-2c-1.05-0.268-2.1-0.536-3.19-0.812-3.81-1.19-3.81-1.19-6.19-2.69-3.14-1.79-6-2.29-9.54-2.88-2.48-0.744-3.5-1.59-5.09-3.62-0.688-3.19-0.688-3.19-1-6z" fill="#1F3775"/>
<path transform="translate(220,59)" d="m0 0c20.5-0.635 40.2 2.06 57 15 0.66 0.99 1.32 1.98 2 3 0.99 0.33 1.98 0.66 3 1 1.05 1.64 2.04 3.31 3 5 1.29 1.64 2.6 3.27 3.94 4.88 3.15 3.91 6.03 7.52 8.06 12.1-0.75 2.44-0.75 2.44-2 4-2-3-2-3-2-6h-2c-0.495-1.98-0.495-1.98-1-4-0.598-0.0412-1.2-0.0825-1.81-0.125-3.27-1.31-3.71-3.79-5.19-6.88-0.99-0.33-1.98-0.66-3-1l-1-2c-0.99-0.309-1.98-0.619-3-0.938-0.99-0.351-1.98-0.701-3-1.06-0.495-1.48-0.495-1.48-1-3-1.66-1.01-3.33-2.01-5-3v-2c-1.98-0.33-3.96-0.66-6-1v-2h-9v-2c-1.07-0.124-2.15-0.248-3.25-0.375-3.13-0.521-5.08-1.03-7.75-2.62-0.33 1.65-0.66 3.3-1 5-4.29-1.32-8.58-2.64-13-4v-1c1.65-0.33 3.3-0.66 5-1-2.64-0.66-5.28-1.32-8-2v-2c-1.32-0.66-2.64-1.32-4-2z" fill="#213A7B"/>
<path transform="translate(517,40)" d="m0 0h1c0.66 2.31 1.32 4.62 2 7 0.268-0.639 0.536-1.28 0.812-1.94 1.19-2.06 1.19-2.06 4.19-3.06v70c-1.98 0.495-1.98 0.495-4 1-2.57-2.57-1.94-8.57-2-12 0.362-2.41 0.889-4.69 1.52-7.05 0.58-2.35 0.636-4.54 0.48-6.95h-4c-0.819-3.63-1.17-7.07-1.28-10.8-0.0374-1.09-0.0748-2.18-0.113-3.3-0.0703-2.28-0.141-4.56-0.211-6.84-0.0561-1.63-0.0561-1.63-0.113-3.3-0.0303-0.989-0.0606-1.98-0.0918-3-0.126-2.78-0.126-2.78-0.742-5.45-0.612-3.19 0.135-5.53 0.99-8.65 0.287-1.07 0.575-2.14 0.871-3.24 0.228-0.808 0.456-1.62 0.691-2.45z" fill="#223A7C"/>
<path transform="translate(114 102)" d="m0 0c9.71 4.66 16.6 13.9 21.1 23.5 1.38 4.17 0.935 7.74 0.0703 12-2-3-2-3-3-6-0.66 0.99-1.32 1.98-2 3-1.49-3.47-1.49-3.47-3-7-0.454 0.66-0.907 1.32-1.38 2-0.536 0.66-1.07 1.32-1.62 2h-2v-9c-1.32-0.33-2.64-0.66-4-1-0.33 0.99-0.66 1.98-1 3 0.33-2.31 0.66-4.62 1-7-1.32 1.32-2.64 2.64-4 4-2.46-0.955-4.84-1.92-7.19-3.12-1.78-1.02-1.78-1.02-3.81-0.875v-11c2.31 0.33 4.62 0.66 7 1v-2c-0.99-0.33-1.98-0.66-3-1 2.48-2.48 3.34-3.11 6.88-2.5z" fill="#213A7B"/>
<path transform="translate(384,59)" d="m0 0c20.8-0.644 39.8 2.39 57 15v2c0.874 0.0947 0.874 0.0947 1.77 0.191 3.16 1.14 4.13 2.99 5.98 5.75 0.614 0.896 1.23 1.79 1.86 2.71 1.39 2.35 1.39 2.35 1.39 4.35-4.75-1.88-4.75-1.88-7-3v-3c-1.98-0.33-3.96-0.66-6-1v-3c-0.928-0.217-0.928-0.217-1.88-0.438-2.12-0.562-2.12-0.562-4.12-1.56v-2c-1.07-0.124-2.14-0.248-3.25-0.375-3.75-0.625-3.75-0.625-5.69-1.66-2.44-1.15-4.13-1.17-6.81-1.09-1.2 0.0271-1.2 0.0271-2.42 0.0547-0.905 0.0348-0.905 0.0348-1.83 0.0703-0.33-0.99-0.66-1.98-1-3-0.887-0.124-1.77-0.248-2.69-0.375-3.08-0.581-5.56-1.13-8.31-2.62-0.637-2.07-0.637-2.07-1-4-1.07-0.049-2.14-0.098-3.25-0.148-1.4-0.075-2.79-0.151-4.19-0.227-0.707-0.0309-1.41-0.0619-2.14-0.0938-1.81-0.104-3.62-0.31-5.42-0.531-0.33-0.66-0.66-1.32-1-2z" fill="#203979"/>
<path transform="translate(555,88)" d="m0 0c0.99 1.32 1.98 2.64 3 4 1.32-0.33 2.64-0.66 4-1 1 3 1 3 1 7h-2v5c-0.99 0.33-1.98 0.66-3 1v2h-4c-0.247 0.578-0.495 1.16-0.75 1.75-1.78 3.21-3.95 5.6-7.25 7.25-2.67 0.134-5.32 0.0432-8 0v4c-3.96 0.495-3.96 0.495-8 1-0.99-1.98-1.98-3.96-3-6 1.32-0.33 2.64-0.66 4-1-1.65-0.33-3.3-0.66-5-1v-1c1.07-0.121 2.14-0.242 3.25-0.367 1.4-0.169 2.79-0.338 4.19-0.508 0.707-0.0786 1.41-0.157 2.14-0.238 1.82-0.226 3.62-0.55 5.42-0.887 0.33-0.66 0.66-1.32 1-2h2c0.227-0.681 0.454-1.36 0.688-2.06 1.36-3.05 3.02-5.42 5-8.09 2-2.83 3.64-5.81 5.31-8.85z" fill="#213A7C"/>
<path transform="translate(705,172)" d="m0 0c0.33 0.99 0.66 1.98 1 3-0.33 0.66-0.66 1.32-1 2 1.32 0.33 2.64 0.66 4 1 1.26 5.46 1.57 11.9-1 17 0.281 2.01 0.611 4.01 1 6h-2c0.206 0.598 0.413 1.2 0.625 1.81 0.375 2.19 0.375 2.19-1.62 5.19-3 0.312-3 0.312-6 0-3.44-3.44-2.3-8.4-2.32-13 0.00218-0.72 0.00435-1.44 0.00659-2.18 0.00316-2.2-0.0203-4.39-0.0457-6.58-0.00227-1.39-0.00298-2.79-0.00195-4.18-0.00298-1.27-0.00596-2.54-0.00903-3.85 0.372-3.15 0.372-3.15 1.65-5.09 1.73-1.06 1.73-1.06 5.73-1.06z" fill="#223B7E"/>
<path transform="translate(735,138)" d="m0 0c1.32 0.66 2.64 1.32 4 2 0.0697 7.33 0.123 14.7 0.155 22 0.0156 3.4 0.0368 6.81 0.0709 10.2 0.039 3.92 0.0534 7.83 0.0667 11.8 0.0232 1.82 0.0232 1.82 0.0469 3.68 0.00207 10.4 0.00207 10.4-3.34 15.4h-2c-0.33-1.65-0.66-3.3-1-5h-2c-0.896-6.05-1.11-11.9-1-18 0.33 0.99 0.66 1.98 1 3h3c0.905-5.38 1.13-10.5 1.1-16-0.00141-0.834-0.00283-1.67-0.00429-2.53-0.00556-2.64-0.0181-5.28-0.0309-7.92-0.00502-1.8-0.00958-3.6-0.0137-5.4-0.011-4.39-0.0282-8.78-0.0488-13.2z" fill="#243A7E"/>
<path transform="translate(607,63)" d="m0 0c1.32 0.66 2.64 1.32 4 2-0.33 0.66-0.66 1.32-1 2 0.894 2.61 0.894 2.61 2 5-1.67 0.217-1.67 0.217-3.38 0.438-3.45 0.346-3.45 0.346-5.62 1.56-1.5 0.072-3 0.0839-4.5 0.0625-0.887-0.00773-1.77-0.0155-2.69-0.0234-1.88-0.026-3.75-0.0521-5.62-0.0781-0.887-0.00773-1.77-0.0155-2.69-0.0234-0.815-0.0116-1.63-0.0232-2.47-0.0352-2.1-0.036-2.1-0.036-4.03 1.1-0.33 0.99-0.66 1.98-1 3-2.17-0.506-4-1-6-2 1.49-4.61 3.79-7.46 7-11 3.07-1.53 6.27-1.1 9.62-1.06 1.06 0.00677 1.06 0.00677 2.14 0.0137 1.74 0.0118 3.49 0.0297 5.23 0.0488v3c2.31 0.33 4.62 0.66 7 1 0.144-0.639 0.289-1.28 0.438-1.94 0.562-2.06 0.562-2.06 1.56-3.06z" fill="#243A7E"/>
<path transform="translate(210,64)" d="m0 0v3h-2v2h-2v3c-0.759 0.133-1.52 0.266-2.3 0.402-0.994 0.177-1.99 0.353-3.01 0.535-0.986 0.174-1.97 0.348-2.99 0.527-2.78 0.493-2.78 0.493-5.7 1.54v2c-3.2 4.27-6.93 5.25-12 6h-4c0.375-1.94 0.375-1.94 1-4 0.66-0.33 1.32-0.66 2-1 0.0851-0.598 0.17-1.2 0.258-1.81 1.71-5.03 9.14-7.8 13.7-10.2 6.73-3.03 9.97-4.34 17-2z" fill="#20397A"/>
<path transform="translate(993,100)" d="m0 0h1v56h-1c-0.049-1.05-0.098-2.1-0.148-3.18-0.075-1.38-0.151-2.76-0.227-4.14-0.0309-0.69-0.0619-1.38-0.0938-2.09-0.212-3.67-0.451-5.47-2.53-8.6h-4v-28h3v2c0.99-0.33 1.98-0.66 3-1 0.33-3.63 0.66-7.26 1-11z" fill="#223C7F"/>
<path transform="translate(455,92)" d="m0 0c5.29 4.31 8.19 10.9 9.88 17.4 0.118 2.48-0.066 4.29-0.875 6.62h-2c-0.33 1.32-0.66 2.64-1 4-0.66-0.33-1.32-0.66-2-1v-2h-4v-2c-0.99-0.33-1.98-0.66-3-1-2.68-6.1-0.831-14.6 0-21 0.99-0.33 1.98-0.66 3-1z" fill="#223A7C"/>
<path transform="translate(899,157)" d="m0 0c3.17 1.06 3.73 1.73 6 4 6.79 4.98 12.7 6.29 20.9 6.62 1.18 0.058 1.18 0.058 2.38 0.117 1.92 0.0935 3.83 0.177 5.75 0.258v2c-0.99 0.66-1.98 1.32-3 2-0.25 2.58-0.25 2.58 0 5-5.74 1.91-12.6-0.499-18-3v-2h-4v-2c-0.577-0.268-1.15-0.536-1.75-0.812-3.94-2.08-6.69-3.89-8.25-8.19v-4z" fill="#233A7D"/>
<path transform="translate(786,96)" d="m0 0c2.48 0.495 2.48 0.495 5 1v3h2v2h2c0.66-0.99 1.32-1.98 2-3 1.56 1.5 1.56 1.5 3 4-0.0318 2.77-0.496 5.25-1 8h3c-0.33-2.31-0.66-4.62-1-7 0.33 0.99 0.66 1.98 1 3h2v9h3c0.33 1.65 0.66 3.3 1 5-1.32-0.33-2.64-0.66-4-1v9h-1c-0.0825-1.11-0.165-2.23-0.25-3.38-0.329-3.68-0.329-3.68-2.81-5.06-0.639-0.186-1.28-0.371-1.94-0.562-0.99 2.47-0.99 2.47-2 5h-1c-0.17-1.13-0.34-2.27-0.516-3.44-1.69-11.3-1.69-11.3-6.48-21.6-0.66-0.33-1.32-0.66-2-1v-3z" fill="#223B7E"/>
<path transform="translate(784 59.4)" d="m0 0c0.922 0.0522 1.84 0.104 2.79 0.158 2.26 0.129 4.51 0.264 6.77 0.404v1h-16v3c-0.603 0.0258-1.21 0.0516-1.83 0.0781-5.22 0.325-5.22 0.325-9.67 2.86-1.53 1.98-1.53 1.98-2.5 4.06h-4v2h-2v2c-1.65 0.33-3.3 0.66-5 1 0.33-0.66 0.66-1.32 1-2-1.65-0.33-3.3-0.66-5-1 0.33 1.32 0.66 2.64 1 4-1.32-0.33-2.64-0.66-4-1-0.33 0.66-0.66 1.32-1 2h-3c3.94-8.74 12.7-12.1 21-16 0.636-0.366 1.27-0.732 1.93-1.11 6.19-2.66 13-1.86 19.5-1.45z" fill="#20397A"/>
<path transform="translate(655,32)" d="m0 0c0.66 0.66 1.32 1.32 2 2 2.11-0.319 2.11-0.319 4-1-0.66 1.98-1.32 3.96-2 6 1.98-0.33 3.96-0.66 6-1v-2h3c0.375 2.75 0.375 2.75 0 6-4.86 4.27-10.2 5.8-16.6 6.25-3.47-0.252-6.21-0.991-9.44-2.25 0.33-0.99 0.66-1.98 1-3 0.99 0.33 1.98 0.66 3 1v-2c-0.66-0.33-1.32-0.66-2-1 2.76-0.597 5.16-1 8-1 0.124-0.949 0.247-1.9 0.375-2.88 0.625-3.12 0.625-3.12 2.62-5.12z" fill="#223A7C"/>
<path transform="translate(985,95)" d="m0 0h6v17h-2v-2h-3v13c-2-3-2-3-2-5h-2c-0.0606-0.831-0.121-1.66-0.184-2.52-0.0838-1.09-0.168-2.17-0.254-3.29-0.0812-1.08-0.162-2.16-0.246-3.27-0.219-2.98-0.219-2.98-1.32-5.92 0.276-2.01 0.602-4.01 1-6h4v-2z" fill="#223A7C"/>
<path transform="translate(40,87)" d="m0 0h19c0.33 0.99 0.66 1.98 1 3h-2v3h2v2c2.31 0.33 4.62 0.66 7 1-2.65 1.46-3.89 2-7 2v2c1.32 0.33 2.64 0.66 4 1-0.33 0.66-0.66 1.32-1 2-1.62 0.054-3.25 0.0928-4.88 0.125l-2.74 0.0703c-2.38-0.195-2.38-0.195-4.38-2.2 1.32-0.33 2.64-0.66 4-1v-2c-1.67 0.0619-1.67 0.0619-3.38 0.125-3.62-0.125-3.62-0.125-5.62-2.12 1.32-0.33 2.64-0.66 4-1v-5c-3.3-0.66-6.6-1.32-10-2v-1z" fill="#213776"/>
<path transform="translate(797,60)" d="m0 0c6.45 0 10.9 1.65 16.4 4.75 0.615 0.335 1.23 0.67 1.86 1.02 3.78 2.22 5.57 3.96 6.7 8.23-3.97 1.32-6.12 0.366-10-1-0.33-0.66-0.66-1.32-1-2-2.35-0.958-4.66-1.82-7.06-2.62-0.663-0.229-1.33-0.459-2.01-0.695-1.64-0.566-3.28-1.12-4.93-1.68v-6z" fill="#213A7B"/>
<path transform="translate(359,158)" d="m0 0c3 0 3 0 4.5 1.46 0.743 0.947 0.743 0.947 1.5 1.91 1.97 2.49 3.29 3.82 6 5.62v2c5.29 1.81 10.6 3.41 16 5-0.66 1.32-1.32 2.64-2 4-12.2-0.433-12.2-0.433-17-5-0.875-2.75-0.875-2.75-1-5h-2v-2c-0.99-0.33-1.98-0.66-3-1-2.32-2.58-3-3.45-3-7z" fill="#1F3876"/>
<path transform="translate(404,174)" d="m0 0c-0.5 2.38-0.5 2.38-2 5-5.86 2.16-13.4 3.63-19.3 0.984-0.572-0.325-1.14-0.65-1.73-0.984 1.32-0.66 2.64-1.32 4-2-0.33-0.66-0.66-1.32-1-2 2.21-0.169 4.42-0.335 6.62-0.5 1.23-0.0928 2.46-0.186 3.73-0.281 3.23-0.194 6.42-0.259 9.65-0.219z" fill="#243A7D"/>
<path transform="translate(893,121)" d="m0 0h1c-0.0116 0.837-0.0232 1.67-0.0352 2.54-0.0688 8.88 0.341 17.6 1.04 26.5h-3c-3.9-7.28-4.08-15.6-2.12-23.6 1.12-2.44 1.12-2.44 3.12-5.44z" fill="#223A7C"/>
<path transform="translate(832,161)" d="m0 0 4 1v41h-1c-0.495-7.43-0.495-7.43-1-15-0.66 0.33-1.32 0.66-2 1v-28z" fill="#253A7E"/>
<path transform="translate(220,59)" d="m0 0h18c-0.66 1.32-1.32 2.64-2 4-0.33 0.99-0.66 1.98-1 3 2.47 0.495 2.47 0.495 5 1-0.33 1.32-0.66 2.64-1 4-3.96-1.32-7.92-2.64-12-4v-1c1.65-0.33 3.3-0.66 5-1-2.64-0.66-5.28-1.32-8-2v-2c-1.32-0.66-2.64-1.32-4-2z" fill="#213472"/>
<path transform="translate(198,74)" d="m0 0c0.33 0.66 0.66 1.32 1 2h8c-2.95 2.95-5.96 3.09-10 4v2c-3.2 4.27-6.93 5.25-12 6h-4c0.312-1.88 0.312-1.88 1-4 3.23-2.15 4.28-2.2 8-2v-3c1.13-0.268 2.27-0.536 3.44-0.812 1.18-0.392 2.35-0.784 3.56-1.19 0.33-0.99 0.66-1.98 1-3z" fill="#253A7E"/>
<path transform="translate(825,78)" d="m0 0c1.32 0.99 2.64 1.98 4 3-0.66 2.97-1.32 5.94-2 9-1.32-0.33-2.64-0.66-4-1 1.05 1.16 1.05 1.16 3 2v3h-3v-2h-3c-0.749-3.66-1.24-6.42 0-10h2c0.33-0.99 0.66-1.98 1-3 0.66-0.33 1.32-0.66 2-1z" fill="#233A7C"/>
<path transform="translate(488,44)" d="m0 0c0.99 0.33 1.98 0.66 3 1 0.966 2.9 1.1 4.57 1.02 7.56-0.0201 0.921-0.0402 1.84-0.0609 2.79-0.027 0.991-0.0541 1.98-0.0819 3-0.0236 1.02-0.0472 2.03-0.0715 3.08-0.0766 3.25-0.161 6.5-0.245 9.75-0.0532 2.2-0.106 4.4-0.158 6.61-0.129 5.4-0.264 10.8-0.404 16.2h-1c-0.171-3.92-0.336-7.83-0.5-11.8-0.0477-1.09-0.0954-2.18-0.145-3.31-0.272-6.57-0.383-13.1-0.275-19.7 0.178-2.23 0.178-2.23-1.08-3.26-0.0724-2.02-0.0838-4.04-0.0625-6.06 0.00902-1.1 0.018-2.21 0.0273-3.35 0.0116-0.855 0.0232-1.71 0.0352-2.59z" fill="#223C7E"/>
<path transform="translate(413,168)" d="m0 0 2 1c-0.33 0.33-0.66 0.66-1 1 0.66 0.33 1.32 0.66 2 1v4h-2v2c-3.4 2.09-6.05 2.18-10 2-0.33-1.65-0.66-3.3-1-5 3.28-2.19 6.51-4.16 10-6z" fill="#203877"/>
<path transform="translate(41.9 87.7)" d="m0 0c0.701 0.00516 1.4 0.0103 2.12 0.0156 0.701-0.00516 1.4-0.0103 2.12-0.0156 1.88 0.266 1.88 0.266 3.88 2.27 0.125 2.62 0.125 2.62 0 5-2.64 1.32-4.68 1.1-7.62 1.06-1-0.00902-2.01-0.018-3.04-0.0273-0.771-0.0116-1.54-0.0232-2.34-0.0352 1.01-7.72 1.01-7.72 4.88-8.27z" fill="#223B7E"/>
<path transform="translate(177,76)" d="m0 0h3c-0.66 1.32-1.32 2.64-2 4-0.66-0.66-1.32-1.32-2-2 0.33-0.66 0.66-1.32 1-2zm-1 3c0.352 10.4 0.352 10.4-3.62 14.8-0.454 0.392-0.907 0.784-1.38 1.19-0.99-0.99-1.98-1.98-3-3 0.33-0.33 0.66-0.66 1-1-0.0619-0.907-0.124-1.81-0.188-2.75 0.232-4.02 1.42-5.41 4.19-8.25 2-1 2-1 3-1z" fill="#223B7E"/>
<path transform="translate(899,157)" d="m0 0c3.17 1.06 3.73 1.73 6 4 3 2.13 5.5 3.83 9 5-0.33 1.32-0.66 2.64-1 4-1.74 0.668-1.74 0.668-4 1-2.07-1.07-2.07-1.07-4.12-2.69-0.683-0.519-1.37-1.04-2.07-1.57-1.92-1.85-2.88-3.24-3.8-5.74v-4z" fill="#1F3775"/>
<path transform="translate(555,88)" d="m0 0c0.99 1.32 1.98 2.64 3 4 1.32-0.33 2.64-0.66 4-1 1 3 1 3 1 7h-2v5h-3c-1.46-2.65-2-3.89-2-7-0.66-0.33-1.32-0.66-2-1 0.33-0.99 0.66-1.98 1-3-0.66-0.33-1.32-0.66-2-1 0.66-0.99 1.32-1.98 2-3z" fill="#22397A"/>
<path transform="translate(37,140)" d="m0 0h2c-0.33 10.2-0.66 20.5-1 31-0.99-0.33-1.98-0.66-3-1-0.125-7.62-0.125-7.62 1-11 0.0453-2.49 0.0477-4.95 0-7.44-0.127-8.12-0.127-8.12 1-11.6z" fill="#223A7C"/>
<path transform="translate(784 59.4)" d="m0 0c0.922 0.0522 1.84 0.104 2.79 0.158 2.26 0.129 4.51 0.264 6.77 0.404v1h-16v3c-1.96 0.221-3.92 0.427-5.88 0.625-1.64 0.174-1.64 0.174-3.3 0.352-1.4 0.0116-1.4 0.0116-2.82 0.0234-0.66-0.66-1.32-1.32-2-2 1.82-2.47 2.92-2.98 5.97-3.62 4.83-0.601 9.62-0.241 14.5 0.0625z" fill="#213878"/>
<path transform="translate(795,128)" d="m0 0h3v20h-2c0.33 1.65 0.66 3.3 1 5-0.99-0.33-1.98-0.66-3-1 0.33-7.92 0.66-15.8 1-24z" fill="#223B7D"/>
<path transform="translate(964,127)" d="m0 0h3v14h-3v3h-3c-0.66-1.65-1.32-3.3-2-5h3c0.66-3.96 1.32-7.92 2-12z" fill="#233A7C"/>
<path transform="translate(938,234)" d="m0 0c0.33 0.99 0.66 1.98 1 3 1.98-0.348 1.98-0.348 4-1 0.33-0.66 0.66-1.32 1-2v10h-12v-2c1.46-0.168 2.92-0.334 4.38-0.5 0.812-0.0928 1.62-0.186 2.46-0.281 2.16-0.219 2.16-0.219 4.16-0.219v-2h-11v-2c1.98-0.33 3.96-0.66 6-1v-2z" fill="#253A7E"/>
<path transform="translate(518,152)" d="m0 0h3c-0.33 8.25-0.66 16.5-1 25h-2c-0.197-3.6-0.381-7.21-0.562-10.8-0.0561-1.02-0.112-2.05-0.17-3.1-0.0483-0.983-0.0967-1.97-0.146-2.98-0.0471-0.906-0.0943-1.81-0.143-2.75 0.0217-2.36 0.0217-2.36 1.02-5.36z" fill="#223B7E"/>
<path transform="translate(797,192)" d="m0 0c0.33 0.99 0.66 1.98 1 3 0.99 0.33 1.98 0.66 3 1 0.454 0.825 0.908 1.65 1.38 2.5 1.4 2.75 1.4 2.75 4.31 3.31 0.763 0.0619 1.53 0.124 2.31 0.188-0.99 0.495-0.99 0.495-2 1v2h2v2c-5.81-1.49-9.06-4.08-12.4-9.06-0.759-2.35-0.446-3.64 0.375-5.94z" fill="#223B7D"/>
<path transform="translate(452,87)" d="m0 0c0.66 0.33 1.32 0.66 2 1-0.33 0.99-0.66 1.98-1 3h-1c-0.33 2.64-0.66 5.28-1 8h-7v-3h3c0.33-1.65 0.66-3.3 1-5-0.66-0.33-1.32-0.66-2-1v-2c2.97 0.495 2.97 0.495 6 1v-2z" fill="#223A7C"/>
<path transform="translate(990,118)" d="m0 0h3c0.0538 2.63 0.0936 5.25 0.125 7.88 0.0168 0.746 0.0335 1.49 0.0508 2.26 0.0176 1.96-0.0726 3.91-0.176 5.86-0.66 0.66-1.32 1.32-2 2-1.73-6.16-3.09-11.7-1-18z" fill="#233A7C"/>
<path transform="translate(40,97)" d="m0 0c2.12-0.0269 4.25-0.0464 6.38-0.0625 1.18-0.0116 2.37-0.0232 3.59-0.0352 3.04 0.0977 3.04 0.0977 5.04 1.1v2c-2.83 1.42-5.47 1.35-8.62 1.56-1.19 0.0838-2.38 0.168-3.6 0.254-0.915 0.0606-1.83 0.121-2.77 0.184v-5z" fill="#253A7E"/>
<path transform="translate(655 5.88)" d="m0 0c1.17-0.00387 1.17-0.00387 2.37-0.00781 2.19 0.133 2.19 0.133 5.19 1.13v2c0.66 0.33 1.32 0.66 2 1-1.28-0.0206-2.56-0.0412-3.88-0.0625-5.09-0.00809-10.1 0.472-15.1 1.06 0.66-0.33 1.32-0.66 2-1 0.33-0.99 0.66-1.98 1-3 2.35-1.18 3.82-1.13 6.44-1.12z" fill="#253A7E"/>
<path transform="translate(921,171)" d="m0 0h7c-0.33 0.66-0.66 1.32-1 2 0.66 0.33 1.32 0.66 2 1 0.33-0.66 0.66-1.32 1-2 0.33 1.65 0.66 3.3 1 5-3.32 1.11-4.7 0.877-8.06 0.188-1.32-0.257-1.32-0.257-2.66-0.52-2.28-0.668-2.28-0.668-4.28-2.67 1.7 0.278 1.7 0.278 3.44 0.562 1.18 0.144 2.35 0.289 3.56 0.438 0.33-0.33 0.66-0.66 1-1h-3v-3z" fill="#253A7E"/>
<path transform="translate(401,204)" d="m0 0c2.97 0.33 5.94 0.66 9 1v3c-1.54 1.54-3.18 1.42-5.31 1.69-1.17 0.16-1.17 0.16-2.36 0.324-2.64-0.0133-4.08-0.67-6.32-2.01 0.959-0.155 0.959-0.155 1.94-0.312 0.681-0.227 1.36-0.454 2.06-0.688 0.33-0.99 0.66-1.98 1-3z" fill="#223B7D"/>
<path transform="translate(19,165)" d="m0 0h2c-0.144 0.617-0.289 1.23-0.438 1.87-1.28 5.85-1.76 11.1-1.56 17.1-0.99-0.33-1.98-0.66-3-1v-16h3v-2z" fill="#223C7F"/>
<path transform="translate(385 206)" d="m0 0c0.697 0.00902 1.39 0.018 2.11 0.0273 1.71 0.0235 3.42 0.0593 5.14 0.0977 0.33 0.99 0.66 1.98 1 3-7.23 0.999-13 0.963-20-1 3.74-2.45 7.44-2.23 11.8-2.12z" fill="#223C7E"/>
<path transform="translate(749 76.2)" d="m0 0c0.701 0.248 1.4 0.495 2.12 0.75-0.562 1.88-0.562 1.88-2 4-2.33 0.694-4.66 1.36-7 2-0.33 0.99-0.66 1.98-1 3-0.33-1.98-0.66-3.96-1-6 5.29-4.06 5.29-4.06 8.88-3.75z" fill="#223B7E"/>
<path transform="translate(703,69)" d="m0 0c0.66 0.33 1.32 0.66 2 1v7h2c0.054 1.46 0.0928 2.92 0.125 4.38 0.0232 0.812 0.0464 1.62 0.0703 2.46-0.195 2.16-0.195 2.16-2.2 4.16-2.02-4.16-2.08-7.42-2-12-0.186-1.11-0.371-2.23-0.562-3.38-0.144-0.866-0.289-1.73-0.438-2.62 0.33-0.33 0.66-0.66 1-1z" fill="#233A7C"/>
<path transform="translate(899,64)" d="m0 0h3v2h5c0.33 0.66 0.66 1.32 1 2-2.31 0.33-4.62 0.66-7 1v4h-7c1.32-0.33 2.64-0.66 4-1 0.33-2.64 0.66-5.28 1-8z" fill="#253A7E"/>
<path transform="translate(751,80)" d="m0 0h10c-0.33 0.66-0.66 1.32-1 2h-4c-0.33 0.99-0.66 1.98-1 3-0.66 0.66-1.32 1.32-2 2h-4c0.875-4.75 0.875-4.75 2-7z" fill="#253A7E"/>
<path transform="translate(828,192)" d="m0 0c1.32 0.66 2.64 1.32 4 2 0.839 2.68 0.818 5.17 1 8-2.31-0.33-4.62-0.66-7-1 0.66-2.97 1.32-5.94 2-9z" fill="#253A7E"/>
<path transform="translate(808,128)" d="m0 0c0.961 2.6 1.13 3.67 0.0625 6.28-1.15 2.94-1.46 5.39-1.69 8.53-0.0748 0.976-0.15 1.95-0.227 2.96-0.049 0.736-0.098 1.47-0.148 2.23h-2c-0.0271-1.92-0.0465-3.83-0.0625-5.75-0.0116-1.07-0.0232-2.13-0.0352-3.23 0.0826-2.55 0.351-4.59 1.1-7.02h2c0.33-1.32 0.66-2.64 1-4z" fill="#223C7F"/>
<path transform="translate(455,92)" d="m0 0c3.82 3.27 6.41 7.24 8 12-0.33 0.99-0.66 1.98-1 3-0.33-0.99-0.66-1.98-1-3h-2c-0.124-0.639-0.248-1.28-0.375-1.94-0.206-0.681-0.413-1.36-0.625-2.06-0.66-0.33-1.32-0.66-2-1-0.33 1.32-0.66 2.64-1 4v-11z" fill="#223B7E"/>
<path transform="translate(223,206)" d="m0 0-2 4c-1.63-0.114-3.25-0.242-4.88-0.375-0.905-0.0696-1.81-0.139-2.74-0.211-2.38-0.414-2.38-0.414-4.38-2.41 4.78-2.62 8.84-1.83 14-1z" fill="#223C7E"/>
<path transform="translate(654,177)" d="m0 0c2.48 0.495 2.48 0.495 5 1-0.508 4.32-1.2 8.03-3 12h-2v-13z" fill="#253A7E"/>
<path transform="translate(869,168)" d="m0 0h3c1.36 2.73 1.06 4.97 1 8v4c0.99-0.33 1.98-0.66 3-1v2h-5c-1.38-4.58-2-8.24-2-13z" fill="#233A7C"/>
<path transform="translate(699,62)" d="m0 0c2.97 0.33 5.94 0.66 9 1l-3 6c-3.37-1.12-4.53-2.53-7-5 0.33-0.66 0.66-1.32 1-2z" fill="#223879"/>
<path transform="translate(97,47)" d="m0 0c1.32 0.33 2.64 0.66 4 1 1.23 6.07 2.28 11.8 2 18h-2c-0.182-1.18-0.182-1.18-0.367-2.38-0.905-5.67-1.89-11.1-3.63-16.6z" fill="#223C7F"/>
<path transform="translate(21,48)" d="m0 0c0 3.2-0.743 5.09-2 8-1.32-0.66-2.64-1.32-4-2v-6c2.49-1.25 3.41-0.777 6 0z" fill="#233A7C"/>
<path transform="translate(801,122)" d="m0 0h1c1.33 16.9 1.33 16.9 0 24h-1c-0.698-8.15-1.28-15.9 0-24z" fill="#223C7E"/>
<path transform="translate(864,85)" d="m0 0h3v2h-2c0.0232 0.843 0.0464 1.69 0.0703 2.55 0.018 1.1 0.0361 2.19 0.0547 3.32 0.0232 1.09 0.0464 2.18 0.0703 3.3-0.195 2.82-0.195 2.82-2.2 4.82-0.0606-0.615-0.121-1.23-0.184-1.86-0.0838-0.808-0.168-1.62-0.254-2.45-0.0812-0.801-0.162-1.6-0.246-2.43-0.269-2.42-0.269-2.42-1.32-5.26 1.25-2.19 1.25-2.19 3-4z" fill="#223A7C"/>
<path transform="translate(951,169)" d="m0 0c0.33 0.99 0.66 1.98 1 3 1.32-0.66 2.64-1.32 4-2-0.312 1.94-0.312 1.94-1 4-2.88 0.961-4.7 1.11-7.69 1.06-1.21-0.0135-1.21-0.0135-2.45-0.0273-0.922-0.0174-0.922-0.0174-1.86-0.0352 0.99-0.33 1.98-0.66 3-1v-2c2.5-1.62 2.5-1.62 5-3z" fill="#253A7E"/>
<path transform="translate(662,103)" d="m0 0c2.03 3.35 2.22 5.87 2.12 9.75-0.018 0.985-0.0361 1.97-0.0547 2.98-0.0232 0.748-0.0464 1.5-0.0703 2.27h-2c-1.04-3.12-1.13-5.36-1.12-8.62-0.00258-0.982-0.00516-1.96-0.00781-2.98 0.133-2.4 0.133-2.4 1.13-3.4z" fill="#223C7F"/>
<path transform="translate(41.9 37.8)" d="m0 0c3.06 0.188 3.06 0.188 5.06 2.19-0.784 0.248-1.57 0.495-2.38 0.75-2.95 1.4-3.53 2.26-4.62 5.25h-3c1.01-7.94 1.01-7.94 4.94-8.19z" fill="#223A7C"/>
<path transform="translate(87,37)" d="m0 0c0.33 0.66 0.66 1.32 1 2h-2v2h2c0.33 1.65 0.66 3.3 1 5-0.99 0.495-0.99 0.495-2 1-0.897-1.21-0.897-1.21-1.81-2.44-2-2.79-2-2.79-5.19-3.56v-2c2.31-0.66 4.62-1.32 7-2z" fill="#223B7D"/>
<path transform="translate(486,6)" d="m0 0c7.26 0.33 14.5 0.66 22 1v1c-2.54 0.196-5.08 0.382-7.62 0.562-0.713 0.0561-1.43 0.112-2.16 0.17-4.25 0.293-8.01 0.163-12.2-0.732v-2z" fill="#243A7E"/>
<path transform="translate(644,169)" d="m0 0h1c0.0273 1.73 0.0465 3.46 0.0625 5.19 0.0116 0.963 0.0232 1.93 0.0352 2.92-0.0928 2.75-0.477 5.22-1.1 7.89h-2c-1.44-6.14-0.326-10.2 2-16z" fill="#223C7E"/>
<path transform="translate(967,76)" d="m0 0h5c0.33 0.66 0.66 1.32 1 2-3.49 4-5.65 5.63-11 6 0.33-0.66 0.66-1.32 1-2h3c0.33-1.98 0.66-3.96 1-6z" fill="#253A7E"/>
<path transform="translate(666,107)" d="m0 0h3v11h-3v-11z" fill="#223B7E"/>
<path transform="translate(117,54)" d="m0 0c0.99 0.33 1.98 0.66 3 1 0.348 4.88-0.583 7.77-3 12h-1c-0.027-1.79-0.0464-3.58-0.0625-5.38-0.0116-0.998-0.0232-2-0.0352-3.02 0.0977-2.6 0.0977-2.6 1.1-4.6z" fill="#253A7E"/>
<path transform="translate(184,195)" d="m0 0c6.75-0.125 6.75-0.125 9 1-0.33 1.65-0.66 3.3-1 5-3.44-1.31-3.44-1.31-7-3-0.33-0.99-0.66-1.98-1-3z" fill="#223C7E"/>
<path transform="translate(66,173)" d="m0 0c1.42-0.0272 2.83-0.0465 4.25-0.0625 1.18-0.0174 1.18-0.0174 2.39-0.0352 2.27 0.0938 4.19 0.465 6.36 1.1-0.33 0.66-0.66 1.32-1 2h-13c0.33-0.99 0.66-1.98 1-3z" fill="#233A7D"/>
<path transform="translate(394,80)" d="m0 0h8v4h-8v-4z" fill="#253A7E"/>
<path transform="translate(962,137)" d="m0 0c1.65 0.33 3.3 0.66 5 1v3h-3v3h-3c-0.66-1.65-1.32-3.3-2-5h3v-2z" fill="#253A7E"/>
<path transform="translate(213,60)" d="m0 0c1.46-0.027 2.92-0.0464 4.38-0.0625 0.812-0.0116 1.62-0.0232 2.46-0.0352 2.16 0.0977 2.16 0.0977 4.16 1.1v3h-7c-0.33-0.66-0.66-1.32-1-2-0.99-0.66-1.98-1.32-3-2z" fill="#223C7F"/>
<path transform="translate(887,77)" d="m0 0c1.68 0.286 3.34 0.618 5 1l-2 1c-0.656 2.53-0.656 2.53-1 5h-4c0.875-5.88 0.875-5.88 2-7z" fill="#253A7E"/>
<path transform="translate(165,132)" d="m0 0h3v3h-2c0.33 5.28 0.66 10.6 1 16-2-2-2-2-2.2-5.91 0.0133-1.57 0.0372-3.14 0.0703-4.71 0.00902-0.802 0.018-1.6 0.0273-2.43 0.0236-1.98 0.0595-3.96 0.0977-5.95z" fill="#223C7E"/>
<path transform="translate(598,64)" d="m0 0h8c-0.33 1.32-0.66 2.64-1 4h-7c-0.33-0.66-0.66-1.32-1-2 0.33-0.66 0.66-1.32 1-2z" fill="#223C7F"/>
<path transform="translate(633,62)" d="m0 0c1.65 0.33 3.3 0.66 5 1 0.33 1.98 0.66 3.96 1 6h-2v-2c-1.65-0.33-3.3-0.66-5-1 0.33-1.32 0.66-2.64 1-4z" fill="#213878"/>
<path transform="translate(38,125)" d="m0 0h1c0.0545 2.04 0.093 4.08 0.125 6.12 0.0232 1.14 0.0464 2.27 0.0703 3.45-0.199 3.49-0.943 6.19-2.2 9.43h-1c-0.0977-6.15-0.0977-6.15 0-8 0.33-0.33 0.66-0.66 1-1 0-2.03-0.00358-4.06-0.0625-6.09 0.0625-1.91 0.0625-1.91 1.06-3.91z" fill="#223B7E"/>
<path transform="translate(16,92)" d="m0 0c2.48 0.495 2.48 0.495 5 1-0.99 0.495-0.99 0.495-2 1v8c-1.5-1.06-1.5-1.06-3-3-0.188-3.69-0.188-3.69 0-7z" fill="#253A7E"/>
<path transform="translate(27,62)" d="m0 0c2.62 9.75 2.62 9.75 0 15h-1c-0.0269-2.31-0.0463-4.62-0.0625-6.94-0.0116-1.29-0.0232-2.58-0.0352-3.9 0.0977-3.16 0.0977-3.16 1.1-4.16z" fill="#223C7F"/>
<path transform="translate(771,64)" d="m0 0v3c1.32 0.33 2.64 0.66 4 1-3.3 0.33-6.6 0.66-10 1 2.5-5 2.5-5 6-5z" fill="#253A7E"/>
<path transform="translate(932,170)" d="m0 0h4v5h-6c0.875-3.88 0.875-3.88 2-5z" fill="#223C7F"/>
<path transform="translate(746,72)" d="m0 0c0.99 0.33 1.98 0.66 3 1 0.688 2.06 0.688 2.06 1 4-1.32-0.33-2.64-0.66-4-1-0.33 0.66-0.66 1.32-1 2h-3c1.15-2.47 2.05-4.05 4-6z" fill="#1F3775"/>
<path transform="translate(1065,133)" d="m0 0h1v6h-1v-6z" fill="#48A0DE"/>
<path transform="translate(617,62)" d="m0 0h2c-0.33 0.66-0.66 1.32-1 2-0.33-0.66-0.66-1.32-1-2z" fill="#000102"/>
<path transform="translate(925,204)" d="m0 0 2 1z" fill="#000102"/>
<path transform="translate(908,204)" d="m0 0 2 1z" fill="#000102"/>
<path transform="translate(81,6)" d="m0 0 2 1z" fill="#223C7F"/>
</svg>
