<?xml version="1.0" encoding="UTF-8"?>
<svg version="1.1" viewBox="0 0 1600 720" width="1280" height="1280" xmlns="http://www.w3.org/2000/svg">
<path transform="translate(0,47)" d="m0 0h36c3.21 4.01 5.62 7.74 7.94 12.2 0.703 1.34 1.41 2.68 2.11 4.02 0.336 0.643 0.672 1.29 1.02 1.95 1.91 3.63 3.93 7.2 5.94 10.8 0.834 1.5 1.67 3 2.5 4.5 1.22 2.2 2.44 4.4 3.67 6.59 2.95 5.28 5.79 10.6 8.58 16 3.57 6.83 7.25 13.6 11.1 20.3 2.33 4.1 4.59 8.23 6.81 12.4 2.2 4.12 4.49 8.17 6.88 12.2 3.26 5.52 6.12 11.2 8.92 16.9 1.41 2.8 2.94 5.45 4.58 8.13 0.669 1.25 1.34 2.5 2 3.75 1.67 3.5 1.67 3.5 5 4.25l1.69-3.44c1.44-2.87 2.93-5.7 4.5-8.5 2.52-4.48 4.92-9.02 7.31-13.6 3.1-5.87 6.24-11.7 9.5-17.5 3.41-6.07 6.72-12.2 9.99-18.3 2.48-4.67 5-9.32 7.54-14 1.54-2.83 3.07-5.67 4.6-8.51 2.2-4.09 4.41-8.17 6.64-12.2 0.496-0.907 0.992-1.81 1.5-2.75 1.03-1.89 2.07-3.77 3.1-5.66 2.56-4.67 5.06-9.35 7.45-14.1 0.664-1.31 0.664-1.31 1.34-2.65 0.831-1.65 1.65-3.31 2.45-4.97 0.373-0.738 0.747-1.48 1.13-2.24 0.316-0.645 0.633-1.29 0.959-1.96 1.3-1.62 1.3-1.62 6.3-3.62 16.3 0.495 16.3 0.495 33 1v176h-27c-2-2-2-2-2.25-4.32 0.00184-0.979 0.00369-1.96 0.00559-2.97-0.00412-1.68-0.00412-1.68-0.00833-3.4 0.0108-1.85 0.0108-1.85 0.0218-3.75-2.92e-4 -1.3-5.84e-4 -2.6-8.85e-4 -3.93-5.75e-4 -3.56 0.0112-7.13 0.0251-10.7 0.0125-3.72 0.0137-7.44 0.0161-11.2 0.00622-7.05 0.0226-14.1 0.0427-21.2 0.0223-8.03 0.0333-16.1 0.0434-24.1 0.0209-16.5 0.0561-33 0.101-49.5-1.12 1.57-2.24 3.14-3.35 4.72-0.623 0.876-1.25 1.75-1.89 2.65-2.44 3.64-4.25 7.44-6.01 11.4-2.04 4.56-4.06 8.96-6.75 13.2-0.423 0.669-0.846 1.34-1.28 2.03-0.603 0.946-0.603 0.946-1.22 1.91-2.05 3.27-3.8 6.6-5.5 10.1-1.64 3.02-3.32 6.01-5 9-3.58 6.42-7.11 12.9-10.6 19.3-3.12 5.72-6.23 11.4-9.39 17.1-4.43 8-8.83 16-12.8 24.2-1.22 2.31-2.63 4.25-4.22 6.31l-1.31 2.62c-5.69 11.4-5.69 11.4-9.69 15.4-4.45-0.24-6.81-2.01-10-5-1.55-2.44-2.74-5-3.94-7.62-0.692-1.45-1.39-2.9-2.09-4.34l-1.02-2.11c-1.21-2.43-2.58-4.74-4.02-7.04-2.23-3.6-4.15-7.25-6-11.1-3.82-7.79-8.1-15.3-12.4-22.8-2.64-4.61-5.18-9.23-7.53-14-1.35-2.47-2.74-4.92-4.12-7.38-0.39-0.692-0.781-1.38-1.18-2.1-2.02-3.57-4.04-7.14-6.07-10.7-3.98-7.01-7.81-14.1-11.4-21.3-1.28-2.57-2.67-5.06-4.12-7.54-1.65-2.87-3.24-5.77-4.83-8.67-0.602-1.1-1.2-2.19-1.82-3.32-1.2-2.41-2.01-4.37-2.49-6.99h-2v137c-9.57 0.33-19.1 0.66-29 1v-178z" fill="#525351"/>
<path transform="translate(1255 45.9)" d="m0 0c1.03 0.00222 2.06 0.00444 3.12 0.00673 1.74 1.13e-4 1.74 1.13e-4 3.52 2.29e-4 1.9 0.00774 1.9 0.00774 3.83 0.0156 1.93 0.00212 1.93 0.00212 3.9 0.00429 3.42 0.00382 6.85 0.0137 10.3 0.0247 3.49 0.0102 6.98 0.0148 10.5 0.0198 6.86 0.0107 13.7 0.0278 20.6 0.0488v2c1.02-0.0522 1.02-0.0522 2.06-0.105 16.9-0.472 31.2 3.02 43.7 14.8 12.3 12.1 15.1 27 15.3 43.8 0.0134 4.22 0.0134 4.22-1.12 6.5-0.154 1.35-0.275 2.71-0.375 4.06-0.889 8.41-3.83 15-8.62 21.9-0.442 0.682-0.884 1.36-1.34 2.07-3.65 5.32-7.94 8.91-13.7 11.9h-2c2.6 7.24 5.41 14.1 9.21 20.8 2.28 4.06 4.44 8.19 6.6 12.3 0.863 1.64 1.73 3.29 2.59 4.93 0.43 0.82 0.861 1.64 1.3 2.48 1.26 2.4 2.53 4.79 3.8 7.18 0.399 0.752 0.798 1.5 1.21 2.28 0.747 1.41 1.49 2.81 2.24 4.22 1.02 1.92 2.03 3.85 3.04 5.78 0.567 1.07 0.567 1.07 1.15 2.16 0.367 0.707 0.734 1.41 1.11 2.14 0.334 0.637 0.668 1.27 1.01 1.93 0.73 1.77 0.73 1.77 0.73 4.77-3.5 0.199-7 0.382-10.5 0.562-0.982 0.0561-1.96 0.112-2.98 0.17-14.3 0.717-14.3 0.717-19.5-2.73-1.33-2.36-2.53-4.69-3.69-7.12-0.713-1.46-1.43-2.92-2.14-4.39-0.362-0.748-0.723-1.5-1.1-2.27-1.65-3.4-3.33-6.78-5.01-10.2-0.325-0.652-0.65-1.3-0.984-1.98-2.86-5.71-5.83-11.4-8.85-17-2.01-3.76-3.96-7.55-5.87-11.4-0.667-1.34-0.667-1.34-1.35-2.7-0.336-0.674-0.671-1.35-1.02-2.04-7.24-0.0253-14.5-0.0428-21.7-0.0549-2.47-0.00504-4.93-0.0119-7.4-0.0205-3.54-0.0121-7.07-0.0178-10.6-0.0222-1.11-0.00516-2.22-0.0103-3.36-0.0156-1.02-7.55e-5 -2.04-1.51e-4 -3.09-2.29e-4 -0.904-0.00222-1.81-0.00444-2.74-0.00673-2.05-0.109-2.05-0.109-3.06 1.12-0.124 1.9-0.178 3.81-0.205 5.71-0.0199 1.22-0.0399 2.44-0.0604 3.7-0.017 1.34-0.0339 2.69-0.0506 4.03-0.0206 1.37-0.0416 2.73-0.063 4.1-0.0553 3.6-0.105 7.2-0.153 10.8-0.0502 3.67-0.106 7.35-0.161 11-0.108 7.21-0.207 14.4-0.307 21.6-9.24-0.33-18.5-0.66-28-1-1.46-2.92-1.13-5.49-1.13-8.76-0.00234-1.05-0.00234-1.05-0.00473-2.13-4e-3 -2.37-8.23e-4 -4.73 0.00232-7.1-0.00135-1.69-0.00313-3.38-0.00531-5.07-0.00457-4.6-0.00279-9.21 3.79e-4 -13.8 0.00253-4.81 1.86e-4 -9.62-0.00139-14.4-0.00182-8.08 5.83e-4 -16.2 0.00534-24.2 0.00544-9.35 0.00368-18.7-0.00183-28-0.00453-8.02-0.00518-16-0.00256-24 0.00156-4.79 0.00176-9.58-0.00154-14.4-0.00288-4.5-8.99e-4 -9.01 0.00489-13.5 0.00133-1.66 9.35e-4 -3.31-0.00126-4.97-0.00272-2.25 6.75e-4 -4.51 0.00568-6.76 3.77e-4 -1.26 7.54e-4 -2.53 0.00114-3.83 0.126-2.93 0.126-2.93 1.13-4.93 1.82-0.0909 1.82-0.0909 3.68-0.184 1.58-0.0844 3.17-0.169 4.75-0.254 0.802-0.0393 1.6-0.0786 2.43-0.119 3.49-0.191 6.29-1.4 9.45-1.56zm-2.32 1.12v1h57v-1h-57zm10 27c-0.307 2.66-0.307 2.66-0.259 5.79-0.0063 1.21-0.0126 2.43-0.0191 3.68 0.00405 1.32 0.0081 2.64 0.0123 3.99-0.00135 1.36-0.00329 2.72-0.0058 4.08-0.00295 2.85 0.00134 5.7 0.0107 8.55 0.0114 3.66 0.00483 7.32-0.00714 11-0.00722 2.81-0.00493 5.62 2.56e-4 8.43 0.00199 2.01-0.0041 4.01-0.0103 6.02 0.0063 1.21 0.0126 2.43 0.0191 3.68 0.00159 1.07 0.00318 2.15 0.00482 3.25-3.52e-4 2.71-3.52e-4 2.71 2.25 4.54 3.04 0.201 5.99 0.28 9.04 0.266 0.914 0.00191 1.83 0.00383 2.77 0.0058 1.95 0.00136 3.89-0.00235 5.84-0.0107 2.92-0.0105 5.84-2.04e-4 8.76 0.0127 22.1 0.919 22.1 0.919 41.6-7.27 0.33-0.99 0.66-1.98 1-3 0.625-0.141 1.25-0.281 1.89-0.426 2.26-0.391 2.26-0.391 3.55-2.43 4.52-8.51 4.8-15.6 4.55-25.1-0.0206-1.16-0.0412-2.31-0.0625-3.5-1.92-7.17-5.63-14.5-12-18.6-5.05-2.75-10.1-4.11-15.8-4.23-1.7-0.0395-1.7-0.0395-3.44-0.0798-1.21-0.0178-2.42-0.0357-3.67-0.054-1.25-0.0241-2.5-0.0482-3.79-0.0731-2.64-0.0482-5.28-0.0926-7.92-0.131-3.39-0.0493-6.77-0.116-10.2-0.189-3.23-0.0665-6.46-0.118-9.7-0.17-1.22-0.0259-2.44-0.0518-3.69-0.0786-1.12-0.0137-2.24-0.0274-3.4-0.0416-0.99-0.0162-1.98-0.0323-3-0.049-2.55-0.0209-2.55-0.0209-4.36 2.22z" fill="#525351"/>
<path transform="translate(598 47.2)" d="m0 0c2.42 0.0356 4.84 0.0667 7.27 0.093 22.9 0.264 41.8 0.748 58.8 17.7 0.589 0.554 1.18 1.11 1.79 1.68 9.66 9.93 10.4 24.1 10.4 37.1 0.0122 1.14 0.0245 2.28 0.0371 3.45 0.0273 15.8-4.46 27.3-15.3 39-1.95 1.77-1.95 1.77-3.95 1.77-0.495 1.49-0.495 1.49-1 3-2.56 1.69-2.56 1.69-5 3 0.621 4.39 2.3 7.98 4.31 11.9 0.347 0.682 0.694 1.36 1.05 2.07 1.2 2.36 2.42 4.71 3.64 7.06 0.464 0.897 0.929 1.79 1.41 2.72 5.52 10.7 11.1 21.3 16.7 31.9 0.956 1.8 1.91 3.6 2.85 5.4 0.576 1.08 1.15 2.16 1.75 3.28 1.25 2.72 1.25 2.72 1.25 5.72-4.16 0.199-8.32 0.343-12.5 0.439-1.41 0.0401-2.83 0.0946-4.24 0.164-11.7 0.559-11.7 0.559-15.4-2.17-1.6-2.07-2.73-4.06-3.83-6.43-0.632-1.15-1.26-2.29-1.91-3.47-0.565-1.18-1.13-2.37-1.71-3.59-0.676-1.4-1.35-2.79-2.04-4.18-0.368-0.754-0.735-1.51-1.11-2.28-2.82-5.67-5.8-11.3-8.75-16.9-3.93-7.48-7.72-15-11.5-22.6-7.24-0.0253-14.5-0.0428-21.7-0.0549-2.47-0.00504-4.93-0.0119-7.4-0.0205-3.54-0.0121-7.07-0.0178-10.6-0.0222-1.11-0.00516-2.22-0.0103-3.36-0.0156-1.02-7.55e-5 -2.04-1.51e-4 -3.09-2.29e-4 -0.904-0.00222-1.81-0.00444-2.74-0.00673-2.05-0.109-2.05-0.109-3.06 1.12-0.124 1.9-0.178 3.81-0.205 5.71-0.0199 1.22-0.0399 2.44-0.0604 3.7-0.017 1.34-0.0339 2.69-0.0506 4.03-0.0206 1.37-0.0416 2.73-0.063 4.1-0.0553 3.6-0.105 7.2-0.153 10.8-0.0502 3.67-0.106 7.35-0.161 11-0.108 7.21-0.209 14.4-0.307 21.6-4.46 0.0867-8.92 0.14-13.4 0.188-1.27 0.0251-2.54 0.0503-3.85 0.0762-1.82 0.0145-1.82 0.0145-3.67 0.0293-1.68 0.0236-1.68 0.0236-3.4 0.0476-0.893-0.112-1.79-0.225-2.71-0.341-2.46-3.69-2.25-5.48-2.25-9.88-0.00241-0.704-0.00483-1.41-0.00732-2.13-0.00565-2.36 0.00303-4.73 0.0116-7.09-0.00107-1.69-0.00301-3.38-0.00575-5.08-0.00485-4.6 0.00281-9.2 0.013-13.8 0.00877-4.81 0.00702-9.61 0.00664-14.4 9.37e-4 -8.07 0.00963-16.1 0.0233-24.2 0.0157-9.34 0.021-18.7 0.0203-28-6.1e-4 -8.97 0.00449-17.9 0.0128-26.9 0.00354-3.82 0.00536-7.65 0.00589-11.5 1e-3 -4.5 0.00709-9 0.0172-13.5 0.00293-1.66 0.00415-3.31 0.00357-4.97-4.88e-4 -2.25 0.00514-4.5 0.0124-6.76 0.00168-1.26 0.00335-2.53 0.00508-3.83 0.129-2.92 0.129-2.92 1.13-4.92 19.3-0.964 38.6-1.09 57.9-0.804zm-29.9 26.8c-0.307 2.66-0.307 2.66-0.259 5.79-0.0063 1.21-0.0126 2.43-0.0191 3.68 0.00405 1.32 0.0081 2.64 0.0123 3.99-0.00135 1.36-0.00329 2.72-0.0058 4.08-0.00295 2.85 0.00134 5.7 0.0107 8.55 0.0114 3.66 0.00483 7.32-0.00714 11-0.00722 2.81-0.00493 5.62 2.56e-4 8.43 0.00199 2.01-0.0041 4.01-0.0103 6.02 0.0063 1.21 0.0126 2.43 0.0191 3.68 0.00159 1.07 0.00318 2.15 0.00482 3.25-3.52e-4 2.71-3.52e-4 2.71 2.25 4.54 1.94 0.298 1.94 0.298 4.18 0.243 0.865 0.00308 1.73 0.00615 2.62 0.00932 0.939-0.00719 1.88-0.0144 2.85-0.0218 0.97-4.58e-4 1.94-9.16e-4 2.94-0.00139 2.06-0.00303 4.12-0.0109 6.18-0.0233 3.12-0.0181 6.24-0.0205 9.36-0.0203 2.01-0.00492 4.01-0.0108 6.02-0.0176 0.921-0.00111 1.84-0.00223 2.79-0.00337 13.3-0.0947 23.6-1.42 34.6-9.54 7.13-7.49 7.88-15.8 7.71-25.8-0.489-8.73-3.39-17.2-9.81-23.4-6.32-4.94-13.9-5.75-21.7-6.08-0.771-0.0373-1.54-0.0747-2.34-0.113-8.3-0.369-16.6-0.46-24.9-0.459-2.57-0.00224-5.14-0.0207-7.71-0.0393-1.64-0.00292-3.29-0.00492-4.93-0.00586-0.764-0.00719-1.53-0.0144-2.32-0.0218-4.24-0.131-4.24-0.131-7.56 2.25z" fill="#525351"/>
<path transform="translate(1495 45.9)" d="m0 0c0.819 0.0036 1.64 0.00719 2.48 0.0109 0.858-1.46e-4 1.72-2.92e-4 2.6-4.43e-4 2.85 6.99e-4 5.7 0.00849 8.55 0.0163 1.97 0.00186 3.94 0.00329 5.91 0.00429 5.2 0.00383 10.4 0.0137 15.6 0.0247 5.3 0.0102 10.6 0.0148 15.9 0.0198 10.4 0.0107 20.8 0.0278 31.2 0.0488v2c1.29-0.0838 2.58-0.168 3.9-0.254 1.68-0.103 3.36-0.206 5.04-0.309 0.85-0.0561 1.7-0.112 2.58-0.17 0.809-0.0483 1.62-0.0967 2.45-0.146 0.749-0.0471 1.5-0.0943 2.27-0.143 1.77 0.0217 1.77 0.0217 2.77 1.02 0.087 1.63 0.107 3.27 0.0977 4.91-0.00322 0.989-0.00645 1.98-0.00977 3-0.00838 1.04-0.0168 2.08-0.0254 3.15-0.00451 1.04-0.00902 2.09-0.0137 3.17-0.0118 2.59-0.0283 5.18-0.0488 7.77-5 1.32-9.98 1.13-15.1 1.11-1.02 1.46e-4 -2.03 2.92e-4 -3.08 4.43e-4 -3.35-6.96e-4 -6.7-0.00847-10-0.0163-2.32-0.00187-4.65-0.00329-6.97-0.00429-6.11-0.00382-12.2-0.0136-18.3-0.0247-6.24-0.0102-12.5-0.0148-18.7-0.0198-12.2-0.0107-24.5-0.0278-36.7-0.0488-0.0253 6.68-0.0428 13.4-0.0549 20-0.00504 2.27-0.0119 4.55-0.0205 6.82-0.0121 3.26-0.0178 6.52-0.0222 9.78-0.00516 1.02-0.0103 2.05-0.0156 3.1-7.55e-5 0.941-1.51e-4 1.88-2.29e-4 2.85-0.00333 1.25-0.00333 1.25-0.00673 2.52-0.0898 1.91-0.0898 1.91 1.12 2.9 2.56 0.0951 5.08 0.126 7.64 0.114 0.8 1.46e-4 1.6 2.92e-4 2.42 4.43e-4 2.66-6.99e-4 5.31-0.00849 7.97-0.0163 1.84-0.00186 3.67-0.00329 5.51-0.00429 4.84-0.00383 9.69-0.0137 14.5-0.0247 4.94-0.0102 9.88-0.0148 14.8-0.0198 9.7-0.0107 19.4-0.0283 29.1-0.0488 0.495 11.4 0.495 11.4 1 23-19.1 0.853-38.1 1.13-57.2 1.06-8.85-0.0206-17.7-0.0412-26.8-0.0625v56c3.23 0.807 5.39 1.12 8.62 1.12 0.923 0.00137 1.85 0.00275 2.8 0.00417 1-0.0036 2.01-0.00719 3.04-0.0109 1.06 1.46e-4 2.13 2.92e-4 3.22 4.43e-4 3.52-6.97e-4 7.03-0.00848 10.6-0.0163 2.44-0.00186 4.88-0.00329 7.31-0.00429 6.42-0.00382 12.8-0.0136 19.3-0.0247 6.55-0.0102 13.1-0.0148 19.6-0.0198 12.9-0.0107 25.7-0.0283 38.6-0.0488v25c-15.3 0.0227-30.6 0.0411-45.9 0.0518-7.1 0.00512-14.2 0.0121-21.3 0.0236-6.2 0.0101-12.4 0.0164-18.6 0.0186-3.27 0.00129-6.54 0.00479-9.82 0.0116-12.2 0.0245-24.4 0.00794-36.6-0.487-1.31-0.0457-1.31-0.0457-2.66-0.0924-5.96-0.287-5.96-0.287-8.2-2.53-0.249-2.93-0.249-2.93-0.247-6.76-0.00241-0.703-0.00483-1.41-0.00732-2.13-0.00566-2.37 0.00304-4.73 0.0116-7.1-0.00107-1.69-0.00301-3.38-0.00575-5.07-0.00486-4.6 0.00282-9.21 0.013-13.8 0.00876-4.81 0.00702-9.62 0.00664-14.4 9.37e-4 -8.08 0.00963-16.2 0.0233-24.2 0.0157-9.35 0.021-18.7 0.0203-28-6.1e-4 -8.98 0.00449-18 0.0128-26.9 0.00354-3.83 0.00536-7.66 0.00589-11.5 1e-3 -4.5 0.00709-9.01 0.0172-13.5 0.00293-1.66 0.00415-3.31 0.00357-4.97-4.88e-4 -2.25 0.00514-4.51 0.0124-6.76 0.00168-1.26 0.00335-2.53 0.00508-3.83 0.129-2.93 0.129-2.93 1.13-4.93 0.904-0.0251 1.81-0.0501 2.74-0.0759 3.34-0.0949 6.68-0.194 10-0.296 1.45-0.0434 2.9-0.0851 4.34-0.125 2.08-0.0576 4.16-0.121 6.23-0.186 1.25-0.0367 2.5-0.0733 3.79-0.111 3.4-0.244 5.88-1.32 9.58-1.33zm-5.71 1.12v1h87v-1h-87z" fill="#525351"/>
<path transform="translate(360 47.1)" d="m0 0c2.59 0.0244 5.19 0.0482 7.78 0.0715 6.07 0.0559 12.1 0.117 18.2 0.181 6.92 0.0725 13.8 0.138 20.8 0.203 14.2 0.134 28.4 0.277 42.6 0.424v22c-13.2 0.856-26.4 1.13-39.7 1.1-2.01-0.00187-4.03-0.00329-6.04-0.00429-5.24-0.00377-10.5-0.0136-15.7-0.0247-6.32-0.0122-12.6-0.0166-19-0.0225-9.54-0.00961-19.1-0.0288-28.6-0.0462v47c3.63 1.21 6.99 1.18 10.8 1.21 0.79 0.0099 1.58 0.0198 2.4 0.03 2.61 0.0316 5.23 0.0564 7.84 0.0811 1.81 0.0206 3.62 0.0416 5.44 0.063 4.77 0.0552 9.54 0.105 14.3 0.153 4.87 0.0502 9.73 0.106 14.6 0.161 9.55 0.108 19.1 0.209 28.6 0.307v22c-14 0.581-28 1.02-42.1 1.25-1.24 0.0207-2.47 0.0415-3.75 0.0629-6.32 0.104-12.6 0.201-19 0.29-2.36 0.0371-4.72 0.0743-7.09 0.112-1.11 0.0135-2.22 0.0271-3.36 0.041-1.52 0.0251-1.52 0.0251-3.07 0.0508-0.89 0.0125-1.78 0.0251-2.7 0.038-2.02-0.0696-2.02-0.0696-3.02 1.15-0.0935 1.69-0.117 3.38-0.114 5.07 1.13e-4 1.62 1.13e-4 1.62 2.29e-4 3.28 0.00516 1.18 0.0103 2.35 0.0156 3.56 0.00141 1.2 0.00283 2.39 0.00429 3.63 0.00562 3.84 0.0182 7.68 0.0309 11.5 0.00501 2.6 0.00958 5.19 0.0137 7.79 0.0111 6.38 0.0278 12.8 0.0488 19.1 2.35 1.17 3.71 1.12 6.33 1.11 0.909-7.05e-5 1.82-1.41e-4 2.75-2.14e-4 1-0.00517 2-0.0103 3.03-0.0157 1.05-0.00146 2.1-0.00292 3.18-0.00443 2.29-0.00381 4.57-0.00994 6.86-0.0181 3.61-0.0127 7.23-0.0193 10.8-0.0241 7.67-0.0115 15.3-0.0307 23-0.051 8.88-0.0235 17.8-0.044 26.7-0.0559 3.57-0.00651 7.14-0.019 10.7-0.0317 2.18-0.00363 4.35-0.00698 6.53-0.01 1-0.00517 2-0.0103 3.03-0.0157 0.909-7.05e-5 1.82-1.41e-4 2.75-2.14e-4 0.792-0.00222 1.58-0.00444 2.4-0.00673 1.93 0.12 1.93 0.12 3.93 1.12v23c-23.1 0.904-46.3 1.16-69.4 1.13-4.68-0.00573-9.35-0.00229-14 0.00345-19.2 0.0199-38.4-0.0439-57.6-1.13-1.46-2.92-1.13-5.49-1.13-8.76-0.00234-1.05-0.00234-1.05-0.00473-2.13-4e-3 -2.37-8.23e-4 -4.73 0.00232-7.1-0.00135-1.69-0.00313-3.38-0.00531-5.07-0.00457-4.6-0.00279-9.21 3.79e-4 -13.8 0.00253-4.81 1.86e-4 -9.62-0.00139-14.4-0.00182-8.08 5.83e-4 -16.2 0.00534-24.2 0.00544-9.35 0.00368-18.7-0.00183-28-0.00453-8.02-0.00518-16-0.00256-24 0.00156-4.79 0.00176-9.58-0.00154-14.4-0.00288-4.5-8.99e-4 -9.01 0.00489-13.5 0.00133-1.66 9.35e-4 -3.31-0.00126-4.97-0.00272-2.25 6.75e-4 -4.51 0.00568-6.76 3.77e-4 -1.26 7.54e-4 -2.53 0.00114-3.83 0.126-2.93 0.126-2.93 1.13-4.93 16.2-1 32.4-1.06 48.6-0.879z" fill="#525351"/>
<path transform="translate(1130 45.5)" d="m0 0c1.59-0.00773 1.59-0.00773 3.21-0.0156 1.11 0.0155 2.21 0.0309 3.35 0.0469 1.11-0.0155 2.21-0.0309 3.35-0.0469 1.06 0.00516 2.12 0.0103 3.21 0.0156 0.971 0.00451 1.94 0.00902 2.94 0.0137 2.5 0.518 2.5 0.518 4.13 2.26 1.55 2.56 1.73 3.87 1.71 6.83 4.53e-5 0.914 9.06e-5 1.83 1.37e-4 2.77-0.0154 0.995-0.0308 1.99-0.0467 3.02-0.0045 1.05-0.00899 2.11-0.0136 3.19-0.0191 3.49-0.0604 6.98-0.103 10.5-0.0204 2.43-0.0399 4.86-0.0586 7.3-0.0426 5.1-0.0961 10.2-0.157 15.3-0.0773 6.52-0.128 13-0.171 19.6-0.0358 5.03-0.0855 10.1-0.139 15.1-0.0241 2.4-0.044 4.8-0.0595 7.2-0.024 3.37-0.0667 6.75-0.114 10.1-0.00492 1.47-0.00492 1.47-0.00993 2.97-0.259 14.4-5.26 27.2-12.5 39.4h-2c-0.389 1.11-0.389 1.11-0.785 2.23-4.36 9.93-15.8 18.8-25.2 23.8h-3v2c-2.48 0.966-4.96 1.92-7.44 2.88-0.688 0.269-1.38 0.539-2.08 0.816-9.63 3.67-18.4 4.67-28.7 4.62-1.2-0.00491-2.4-0.00983-3.63-0.0149-12.9-0.171-23.6-2.29-35.2-8.3-0.757-0.369-1.51-0.737-2.29-1.12-9.62-4.94-18.8-12.6-25.7-20.9v-2h-2c-18.2-21.2-17.2-49.4-17.1-75.5-6.75e-4 -2.01-0.00165-4.02-0.0029-6.03-0.00146-4.17 6.28e-4 -8.35 0.00534-12.5 0.00575-5.36 0.00237-10.7-0.00357-16.1-0.0036-4.13-0.00247-8.27 1.28e-4 -12.4 6.67e-4 -1.98-1.52e-4 -3.95-0.00248-5.93-0.00253-2.74 0.00131-5.49 0.0069-8.23-0.00202-0.817-0.00405-1.63-0.00613-2.48 0.0213-5.61 0.0213-5.61 1.14-7.83 2.77-0.198 5.54-0.384 8.31-0.562 1.15-0.0841 1.15-0.0841 2.32-0.17 4.46-0.277 8.73-0.211 13.2 0.225 0.976 0.0939 1.95 0.188 2.96 0.285 1.1 0.11 1.1 0.11 2.23 0.223 0.00809 1.21 0.0162 2.42 0.0245 3.67 0.0777 11.5 0.166 22.9 0.263 34.4 0.0498 5.89 0.0961 11.8 0.134 17.7 0.0371 5.69 0.0835 11.4 0.136 17.1 0.0184 2.16 0.0336 4.33 0.0453 6.49-0.452 21.1-0.452 21.1 6.4 40.7 0.464 0.888 0.464 0.888 0.938 1.79 6.64 12.5 18.8 21 32.2 25.2 13.1 3.34 26.4 3.05 38.6-3.43 2.16-1.43 4.21-2.95 6.25-4.54 1.09-0.701 2.19-1.4 3.31-2.12 4.52-3.15 7.06-6.24 9.69-11.1 1-1.77 1-1.77 3-4.52 4.91-7.98 6.59-15.8 6.5-25.1 0.00552-1.02 0.011-2.04 0.0167-3.09 0.00926-2.19 0.00948-4.38 0.00141-6.57-0.0127-3.47-0.00128-6.93 0.016-10.4 0.0266-6.1 0.0323-12.2 0.0309-18.3-0.00224-9.79 0.0118-19.6 0.0556-29.4 0.00985-3.42 0.00112-6.83-0.0087-10.3 0.00614-2.09 0.0131-4.17 0.0209-6.26-0.00772-0.95-0.0154-1.9-0.0234-2.88 0.0495-6.39 0.0495-6.39 1.76-9.63 2.34-2.03 4-1.93 7.07-1.94z" fill="#525351"/>
<path transform="translate(895,60)" d="m0 0c11.9 9.73 11.9 9.73 15 15-0.33 0.99-0.66 1.98-1 3-0.969 0.309-1.94 0.619-2.94 0.938-3.17 0.717-3.17 0.717-4.19 3.12-0.289 0.639-0.577 1.28-0.875 1.94-2.12 0.75-2.12 0.75-4 1v2c-6.36 4.04-6.36 4.04-9.25 3.88-1.75-0.875-1.75-0.875-4.75-2.88v-2c-0.535-0.25-1.07-0.5-1.62-0.758-2.94-1.53-5.66-3.32-8.44-5.12-13.4-8.42-28.6-11.5-44.3-8.34-16.1 3.74-30.6 12.1-39.6 26.3-0.754 1.28-1.46 2.59-2.13 3.92h-2c-0.125 0.724-0.25 1.45-0.379 2.2-0.607 2.74-1.49 5.09-2.56 7.68-4.34 11.8-4.53 23.8-3.06 36.1 0.0902 0.808 0.18 1.62 0.273 2.45 1.32 7.92 5.66 16.5 10.4 22.8 1.28 1.71 1.28 1.71 1.28 3.71 0.99 0.33 1.98 0.66 3 1 1.67 1.67 3.33 3.33 5 5 15.1 12.4 30.8 16.1 50 15 12.8-1.62 24.5-7.92 33.8-16.6 2.18-1.41 2.18-1.41 4.65-1.38 3.09 1.18 5.05 2.8 7.54 4.97 0.848 0.66 1.7 1.32 2.57 2 0.843 0.66 1.69 1.32 2.55 2 0.848 0.66 1.7 1.32 2.57 2 2.14 1.86 3.71 3.66 5.3 6-13.9 17.2-34.4 27.4-56.4 29.8-12.5 0.808-28.9 1.5-40.5-3.86-4.97-2.2-10.1-4.03-15.2-5.96v-2c-1-0.202-2-0.405-3.03-0.613-4.77-1.37-7.87-4.28-11.5-7.57-0.938-0.829-0.938-0.829-1.89-1.67-9.4-8.38-9.4-8.38-12.6-12.1v-2h-2c-1.56-2.01-2.94-3.99-4.31-6.12-0.402-0.624-0.805-1.25-1.22-1.89-3.38-5.45-5.54-10.9-7.5-17-0.86-2.87-0.86-2.87-2.03-5.05-6.83-13.9-4.28-38.8 0.316-52.9 2.81-8.08 6.35-15.6 10.7-23 0.523-0.892 1.05-1.78 1.59-2.7 1.33-2.15 2.57-3.6 4.41-5.3 3.22-3.01 3.22-3.01 5-7 1.32-0.684 2.66-1.35 4-2 1.53-1.61 1.53-1.61 2.88-3.44 2.67-3.28 5.22-4.84 9.12-6.56 0.33-0.66 0.66-1.32 1-2 2.3-1.2 4.58-2.31 6.94-3.38 0.688-0.312 1.38-0.623 2.08-0.944 1.38-0.62 2.75-1.24 4.13-1.85 1.48-0.665 2.94-1.36 4.4-2.07 28.1-12.9 64.5-6.06 88.4 12.2z" fill="#525351"/>
<path transform="translate(683 378)" d="m0 0c13.2 0.202 21.3 3.53 31.1 12.8 7.99 8.87 12.2 19.7 12.6 31.7-0.846 13.3-6.02 23.3-15.2 32.9-2.52 2.13-5.02 3.6-8 5-0.74 0.389-1.48 0.779-2.24 1.18-6.22 2.81-12.2 3.21-18.9 3.26-1.25 0.0151-1.25 0.0151-2.53 0.0305-14.9-0.207-26.5-8.42-36.6-18.8-6.67-10.2-8.03-21.7-6.12-33.6 2.28-10.1 7.53-20.2 16.2-26 4.61-2.75 9.14-5.13 14.1-7.09 2.89-2.89 11.7-1.37 15.6-1.38zm-24.6 22.4c-5.17 7.45-7.18 12.8-7.25 21.8-0.0206 0.686-0.0412 1.37-0.0625 2.08-0.0592 7.82 3 13.5 8.23 19.2 6.3 5.84 12.5 8.8 21.1 8.93 1.95 0.186 1.95 0.186 3.94 0.375 7.5-0.105 15-5.2 20.1-10.4 4.52-6.73 7.19-11.6 7.25-19.7 0.0206-0.695 0.0412-1.39 0.0625-2.11 0.0499-6.68-2.25-11.8-5.81-17.5-0.402-0.645-0.804-1.29-1.22-1.95-1.3-1.82-2.58-3.33-4.28-4.8h-2v-2c-5.64-2.85-10.2-3.49-16.4-3.44-0.808-0.02-1.62-0.04-2.45-0.0605-8.21 0.00662-15.6 3.3-21.1 9.5z" fill="#525351"/>
<path transform="translate(915 378)" d="m0 0c1.12-0.00315 2.24-0.0063 3.39-0.00955 1.8 0.00304 1.8 0.00304 3.64 0.00613 1.85-0.00144 1.85-0.00144 3.74-0.0029 3.28-8.54e-4 6.55 0.00317 9.83 0.00876 2.01 0.00196 4.03 1.27e-6 6.04-0.00342 3.86-0.00615 7.72-0.00544 11.6-0.00244 1.81-0.00304 1.81-0.00304 3.66-0.00613 1.66 0.00473 1.66 0.00473 3.36 0.00955 0.981 7.96e-4 1.96 0.00159 2.97 0.00241 2.22 0.127 2.22 0.127 3.22 1.13 0.0723 1.85 0.0838 3.71 0.0625 5.56-0.00902 1.01-0.018 2.02-0.0273 3.07-0.0116 0.782-0.0232 1.56-0.0352 2.37-15.3 0.97-30.6 1.12-46 1-0.93 2.79-1.19 4.77-1.32 7.67-0.0381 0.805-0.0762 1.61-0.115 2.44-0.0431 1.02-0.0862 2.03-0.131 3.08-0.0778 1.75-0.156 3.5-0.234 5.25-0.0384 0.861-0.0768 1.72-0.116 2.61-0.0431 0.966-0.0431 0.966-0.0871 1.95 1.2-0.00524 2.4-0.0105 3.64-0.0159 4.45-0.0181 8.89-0.0296 13.3-0.0391 1.93-0.00504 3.85-0.0119 5.78-0.0205 2.77-0.0121 5.53-0.0178 8.3-0.0222 1.3-0.00774 1.3-0.00774 2.62-0.0156 6.1-5.75e-4 6.1-5.75e-4 8.33 1.11v11c-3.88 1.29-7.56 1.12-11.6 1.1-0.839-0.00141-1.68-0.00283-2.54-0.00429-2.68-0.0056-5.36-0.0181-8.04-0.0309-1.82-0.00502-3.63-0.00958-5.45-0.0137-4.45-0.011-8.91-0.0283-13.4-0.0488-0.0289 3.81-0.0468 7.62-0.0625 11.4-0.00838 1.09-0.0168 2.18-0.0254 3.3-0.00322 1.03-0.00645 2.07-0.00977 3.13-0.00524 0.958-0.0105 1.92-0.0159 2.9-0.137 2.2-0.137 2.2 1.11 3.22 1.41 0.117 2.82 0.167 4.23 0.189 0.898 0.0167 1.8 0.0334 2.72 0.0507 0.976 0.0136 1.95 0.0272 2.96 0.0411 0.995 0.0184 1.99 0.0368 3.02 0.0558 3.19 0.059 6.39 0.112 9.58 0.163 4.2 0.0674 8.4 0.141 12.6 0.219 0.976 0.0136 1.95 0.0272 2.96 0.0411 0.898 0.0167 1.8 0.0334 2.72 0.0507 0.794 0.0125 1.59 0.0251 2.41 0.038 1.82 0.151 1.82 0.151 2.82 1.15 0.0718 1.52 0.0839 3.04 0.0625 4.56-0.00902 0.826-0.018 1.65-0.0273 2.5-0.0116 0.638-0.0232 1.28-0.0352 1.93-13 0.813-26.1 1.13-39.2 1.18-1.68 0.00684-3.37 0.0171-5.05 0.0308-2.39 0.0179-4.78 0.0222-7.17 0.0225-1.09 0.0107-1.09 0.0107-2.19 0.0217-3.7-0.0168-5.25-0.142-8.42-2.25-0.292-2.59-0.389-4.95-0.356-7.54-0.00204-0.777-0.00409-1.55-0.0062-2.36-0.00302-2.58 0.0155-5.15 0.0345-7.73 0.00306-1.79 0.00493-3.57 0.00568-5.36 0.00461-3.75 0.0191-7.49 0.0412-11.2 0.0283-4.81 0.0392-9.62 0.0437-14.4 0.00415-3.69 0.014-7.38 0.0259-11.1 0.00571-1.77 0.0105-3.55 0.0143-5.32 0.00685-2.48 0.0205-4.95 0.0363-7.43 0.00112-0.738 0.00224-1.48 0.00339-2.24 0.0431-5.07 0.0431-5.07 1.16-7.3 3.17-1.14 6.24-1.13 9.58-1.13z" fill="#525351"/>
<path transform="translate(510 378)" d="m0 0c0.896 0.0142 1.79 0.0284 2.71 0.043 1.35 0.00967 1.35 0.00967 2.72 0.0195 2.21 0.168 2.21 0.168 3.21 1.17 0.0885 2.59 0.115 5.16 0.0977 7.75-0.00141 0.775-0.00283 1.55-0.00429 2.35-0.00562 2.49-0.0182 4.97-0.0309 7.46-0.00501 1.68-0.00958 3.36-0.0137 5.04-0.011 4.13-0.0283 8.26-0.0488 12.4 0.972-0.00524 1.94-0.0105 2.95-0.0159 3.66-0.0183 7.32-0.0297 11-0.0391 1.57-0.00498 3.15-0.0118 4.72-0.0205 8.84-0.0478 17.6 0.0081 26.4 1.08-0.00524-1.02-0.0105-2.04-0.0159-3.09-0.0181-3.78-0.0296-7.55-0.0391-11.3-0.00503-1.64-0.0119-3.27-0.0205-4.91-0.0121-2.35-0.0178-4.7-0.0222-7.04-0.00516-0.733-0.0103-1.47-0.0156-2.22-5.75e-4 -5.18-5.75e-4 -5.18 1.11-7.41 2.43-0.484 2.43-0.484 5.44-0.75 1.48-0.147 1.48-0.147 3-0.297 2.57 0.0469 2.57 0.0469 4.57 2.05 0.188 2.62 0.252 5.13 0.227 7.75 2.92e-4 0.8 5.84e-4 1.6 8.85e-4 2.42-0.0014 2.65-0.017 5.3-0.0326 7.95-0.00373 1.84-0.00658 3.67-0.00858 5.51-0.00764 4.84-0.0273 9.67-0.0494 14.5-0.0204 4.93-0.0296 9.87-0.0397 14.8-0.0215 9.68-0.0556 19.4-0.0977 29.1-8.82 1.28-8.82 1.28-13-1-1-1-1-1-1.11-4.14 1.59e-4 -1.39 0.00585-2.78 0.0159-4.17 0.00141-0.731 0.00283-1.46 0.00429-2.22 0.00561-2.34 0.0182-4.69 0.0309-7.03 0.00501-1.59 0.00958-3.17 0.0137-4.76 0.011-3.89 0.0283-7.79 0.0488-11.7-6.11-0.0246-12.2-0.0428-18.3-0.0549-2.08-0.00504-4.16-0.0119-6.24-0.0205-2.98-0.0121-5.96-0.0178-8.94-0.0222-0.935-0.00516-1.87-0.0103-2.83-0.0156-0.861-7.55e-5 -1.72-1.51e-4 -2.61-2.29e-4 -0.762-0.00222-1.52-0.00444-2.31-0.00673-1.78-0.0707-1.78-0.0707-2.75 1.12-0.16 2.52-0.259 5.01-0.316 7.54-0.0208 0.753-0.0416 1.51-0.063 2.28-0.0656 2.41-0.124 4.83-0.183 7.24-0.0432 1.63-0.0868 3.27-0.131 4.9-0.107 4.01-0.209 8.02-0.307 12-1.79 0.222-3.58 0.427-5.38 0.625-0.998 0.116-2 0.232-3.02 0.352-1.29 0.0116-1.29 0.0116-2.6 0.0234-2.49-2.49-2.24-3.97-2.27-7.37 0.00405-0.747 0.0081-1.49 0.0123-2.26-0.0035-0.787-0.00701-1.57-0.0106-2.39-0.00882-2.61-0.00297-5.22 0.00378-7.83-0.00135-1.81-0.00329-3.62-0.0058-5.43-0.00295-3.79 0.00135-7.59 0.0107-11.4 0.0114-4.87 0.00484-9.74-0.00714-14.6-0.00722-3.74-0.00493-7.47 2.56e-4 -11.2 0.00134-1.8-3.13e-4 -3.59-0.00496-5.39-0.00506-2.51 0.00264-5.01 0.0138-7.52-0.00405-0.747-0.0081-1.49-0.0123-2.26 0.0592-7.15 0.0592-7.15 4.62-7.6z" fill="#525351"/>
<path transform="translate(779 378)" d="m0 0c1.18 0.00143 2.37 0.00285 3.58 0.00432 0.652-0.0019 1.3-0.0038 1.98-0.00575 2.16-0.00371 4.32 7e-3 6.48 0.0182 1.5 0.00119 2.99 0.00164 4.49 0.00139 3.14 0.00157 6.28 0.00986 9.41 0.0233 4.03 0.017 8.06 0.0208 12.1 0.0201 3.09 2.71e-4 6.18 0.00575 9.27 0.013 1.49 0.00319 2.97 0.00516 4.46 0.00589 2.07 0.00216 4.15 0.0109 6.22 0.0216 1.18 0.00381 2.36 0.00762 3.58 0.0116 2.65 0.134 2.65 0.134 3.65 1.13 0.0723 1.85 0.0838 3.71 0.0625 5.56-0.00902 1.01-0.018 2.02-0.0273 3.07-0.0116 0.782-0.0232 1.56-0.0352 2.37-1.87 0.174-3.75 0.339-5.62 0.5-1.04 0.0928-2.09 0.186-3.16 0.281-6.06 0.315-12.1 0.219-18.2 0.219-0.33 23.4-0.66 46.9-1 71-5.94 0.495-5.94 0.495-12 1-2-2-2-2-2.24-4.94 0.00666-1.89 0.00666-1.89 0.0135-3.81-2.92e-4 -0.693-5.84e-4 -1.39-8.85e-4 -2.1 0.0014-2.29 0.017-4.59 0.0326-6.88 0.00373-1.59 0.00658-3.18 0.00858-4.77 0.00764-4.19 0.0273-8.37 0.0494-12.6 0.0204-4.27 0.0296-8.54 0.0397-12.8 0.0215-8.38 0.0556-16.8 0.0977-25.1l-2 1c-4 0.242-8 0.185-12 0.188-1.12 0.0122-2.24 0.0245-3.39 0.0371-1.6 0.0029-1.6 0.0029-3.23 0.00586-0.982 0.00411-1.96 0.00822-2.98 0.0125-2.4-0.243-2.4-0.243-4.4-2.24-0.266-2.09-0.266-2.09-0.25-4.5-0.00516-0.794-0.0103-1.59-0.0156-2.41 0.438-3.45 1.7-4.04 5.04-4.34z" fill="#525351"/>
<path transform="translate(1041 378)" d="m0 0c1.33 0.00773 1.33 0.00773 2.69 0.0156 0.887-0.00516 1.77-0.0103 2.69-0.0156 2.31 0.266 2.31 0.266 4.31 2.27 0.241 2.86 0.241 2.86 0.227 6.56 2.92e-4 0.673 5.84e-4 1.35 8.85e-4 2.04-0.0014 2.23-0.017 4.46-0.0326 6.69-0.00373 1.54-0.00658 3.09-0.00858 4.63-0.00764 4.07-0.0273 8.13-0.0494 12.2-0.0204 4.15-0.0296 8.3-0.0397 12.4-0.0215 8.14-0.0556 16.3-0.0977 24.4 3.15 1.67 5.16 2.23 8.75 2.16 0.914-0.0117 1.83-0.0234 2.77-0.0354 0.964-0.0205 1.93-0.0411 2.92-0.0623 22.2-0.246 22.2-0.246 26.6 1.94v9c-11.2 0.778-22.3 1.19-33.6 1.19-2.43 0.00224-4.87 0.0207-7.3 0.0393-1.56 0.00293-3.11 0.00492-4.67 0.00586-0.724 0.00719-1.45 0.0144-2.19 0.0218-5.05-0.0233-5.05-0.0233-7.28-2.25-0.198-2.58-0.273-5.05-0.259-7.63-0.0035-0.787-0.00701-1.57-0.0106-2.39-0.00882-2.61-0.00297-5.22 0.00378-7.83-0.00135-1.81-0.00329-3.62-0.0058-5.43-0.00295-3.79 0.00135-7.59 0.0107-11.4 0.0114-4.87 0.00484-9.74-0.00714-14.6-0.00722-3.74-0.00493-7.47 2.56e-4 -11.2 0.00134-1.8-3.13e-4 -3.59-0.00496-5.39-0.00506-2.51 0.00264-5.01 0.0138-7.52-0.00405-0.747-0.0081-1.49-0.0123-2.26 0.0589-7.11 0.0589-7.11 4.58-7.63z" fill="#525351"/>
<path transform="translate(648,396)" d="m0 0c1.65 0.33 3.3 0.66 5 1 0.225 1.71 0.429 3.42 0.625 5.12 0.174 1.43 0.174 1.43 0.352 2.88 0.0267 3.41-0.901 5.77-1.98 8.99-0.211 2.69-0.325 5.25-0.312 7.94-0.0161 0.677-0.0322 1.35-0.0488 2.05-0.00706 7.37 2.58 12.9 7.5 18.3 5.39 4.95 11.1 8.21 18.4 8.56 3.05 0.18 6 0.688 9.01 1.21 1.03 0.177 2.07 0.353 3.13 0.535 0.762 0.133 1.52 0.266 2.31 0.402-0.66 0.598-1.32 1.2-2 1.81-2.34 2.06-2.34 2.06-2 5.19-9.79 1.53-23.4 2.73-32.2-2.63-10.4-7.89-17.7-16.1-19.8-29.4-0.627-9.49 0.166-18.7 5-27 0.99 1.49 0.99 1.49 2 3 0.268-0.577 0.536-1.15 0.812-1.75 1.2-2.28 2.6-4.22 4.19-6.25z" fill="#525351"/>
<path transform="translate(1079,617)" d="m0 0h4c0.268 0.804 0.536 1.61 0.812 2.44 0.392 0.846 0.784 1.69 1.19 2.56 0.99 0.33 1.98 0.66 3 1 1.9 2.21 3.68 4.43 5.44 6.75 0.957 1.24 1.91 2.49 2.87 3.73 0.455 0.599 0.91 1.2 1.38 1.81 1.19 1.54 2.42 3.04 3.66 4.53 1.65 2.17 1.65 2.17 1.65 4.17 0.557 0.186 1.11 0.371 1.69 0.562 2.31 1.44 2.31 1.44 7.31 8.44v-35c4-1 4-1 6 0 0.0247 6.09 0.0428 12.2 0.0549 18.3 0.00504 2.07 0.0119 4.14 0.0205 6.22 0.0121 2.97 0.0178 5.95 0.0222 8.92 0.00516 0.93 0.0103 1.86 0.0156 2.82 7.55e-5 0.861 1.51e-4 1.72 2.29e-4 2.61 0.00222 0.759 0.00444 1.52 0.00673 2.3-0.12 1.87-0.12 1.87-1.12 3.87-5.02-1.43-7.01-3.91-10-8v-2c-1.48-0.495-1.48-0.495-3-1-1.19-2.56-1.19-2.56-2-5h-2c-0.951-1.37-1.89-2.76-2.79-4.17-2.26-3.41-4.89-6.53-7.46-9.71-1.9-2.35-3.8-4.7-5.75-7.12-0.33 11.9-0.66 23.8-1 36h-4c-1.14-2.28-1.13-3.54-1.13-6.07-0.00315-0.837-0.0063-1.67-0.00955-2.54 0.00202-0.905 0.00405-1.81 0.00613-2.74-9.57e-4 -0.927-0.00191-1.85-0.0029-2.81-6.81e-4 -1.96 0.00117-3.92 0.00534-5.88 0.00536-3.01 4.95e-5 -6.03-0.00635-9.04 6.61e-4 -1.9 0.00194-3.8 0.00391-5.71-0.00202-0.907-0.00405-1.81-0.00613-2.75 0.024-6.35 0.024-6.35 1.14-7.47z" fill="#4D504F"/>
<path transform="translate(671 616)" d="m0 0c1.19-0.0329 2.38-0.0657 3.6-0.0996 8.79-0.0543 8.79-0.0543 12.8 2.92 0.903 1.3 0.903 1.3 1.82 2.62 0.784 0.784 1.57 1.57 2.38 2.38 1.62 2.62 1.62 2.62 1.69 6.12-1.23 4.05-2.86 5.79-6.06 8.5l4 4c0.557 0.536 1.11 1.07 1.69 1.62 2.21 2.32 2.32 3.46 2.5 6.75-0.269 5.21-0.269 5.21-2.19 7.62-7.45 5.26-14.2 5.18-23.1 5.19-1.11 0.0122-2.22 0.0245-3.36 0.0371-1.59 0.0029-1.59 0.0029-3.21 0.00586-1.45 0.00616-1.45 0.00616-2.94 0.0125-2.37-0.243-2.37-0.243-4.37-2.24-0.254-1.86-0.254-1.86-0.259-4.14-0.0063-0.854-0.0126-1.71-0.0191-2.59 0.00405-0.924 0.0081-1.85 0.0123-2.8-0.00191-0.947-0.00383-1.89-0.0058-2.87-0.00136-2 0.00234-4.01 0.0107-6.01 0.0107-3.07 1.06e-4 -6.15-0.0127-9.22 0.00132-1.94 0.00388-3.89 0.00781-5.83-0.00607-1.39-0.00607-1.39-0.0123-2.8 0.0063-0.854 0.0126-1.71 0.0191-2.59 0.00159-0.753 0.00318-1.51 0.00482-2.28 0.866-6.34 10.4-4.27 15.1-4.3zm-10.8 5.44c-0.145 2.58-0.187 5.05-0.125 7.62 0.00902 0.706 0.018 1.41 0.0273 2.14 0.0236 1.74 0.0595 3.49 0.0977 5.23h5v2c11.4 0.658 11.4 0.658 22-3 0.28-1.37 0.522-2.75 0.75-4.12 0.139-0.766 0.278-1.53 0.422-2.32-0.271-4.03-1.34-5.67-4.17-8.55-3.7-0.943-7.32-0.976-11.1-1-1.01-0.0374-2.03-0.0748-3.07-0.113-5.45-0.494-5.45-0.494-9.8 2.11zm0 21c-0.145 2.74-0.187 5.38-0.125 8.12 0.00902 0.754 0.018 1.51 0.0273 2.29 0.0236 1.86 0.0595 3.73 0.0977 5.59 4.09 2.04 9.4 0.966 13.9 0.812 1.65-0.028 1.65-0.028 3.34-0.0566 1.06-0.0367 2.12-0.0735 3.21-0.111 1.46-0.041 1.46-0.041 2.94-0.0828 3.35-0.717 4.56-1.86 6.63-4.56 0.455-3.18 0.706-4.99 0-8-2.53-3.22-4.11-4.7-8-6-3.35-0.227-6.71-0.185-10.1-0.188-0.924-0.0122-1.85-0.0245-2.8-0.0371-0.882-0.00193-1.76-0.00387-2.67-0.00586-0.808-0.00411-1.62-0.00822-2.45-0.0125-2.24 0.0601-2.24 0.0601-4.02 2.24z" fill="#4C4E4D"/>
<path transform="translate(488 616)" d="m0 0c1.36-0.00387 1.36-0.00387 2.76-0.00781 0.953 0.00773 1.91 0.0155 2.89 0.0234 0.934-0.00773 1.87-0.0155 2.83-0.0234 8.98 0.0253 15.7 1.78 23 7.27 5.9 6.37 6.62 11.8 6.38 20.3-0.515 5.05-1.94 8.05-5.38 11.7-0.469 0.5-0.938 1-1.42 1.52-3.5 3.27-6.98 4.44-11.6 5.48-1.49 0.495-1.49 0.495-3 1-3.33 0.252-6.66 0.231-10 0.25-0.915 0.0206-1.83 0.0412-2.77 0.0625-0.879 0.00516-1.76 0.0103-2.66 0.0156-0.803 0.00935-1.61 0.0187-2.43 0.0283-2.7-0.453-3.43-1.24-5.13-3.36-0.374-1.94-0.374-1.94-0.372-4.16-0.00623-0.834-0.0125-1.67-0.0189-2.53 0.00921-0.897 0.0184-1.79 0.0279-2.72-4.99e-4 -0.923-9.97e-4 -1.85-0.00151-2.8 0.00234-1.95 0.0121-3.9 0.0286-5.85 0.0236-2.99 0.0206-5.99 0.0139-8.98 0.00558-1.89 0.0127-3.79 0.0215-5.68-9.11e-4 -0.899-0.00182-1.8-0.00276-2.72 0.00953-0.831 0.0191-1.66 0.0289-2.52 0.00461-0.733 0.00921-1.47 0.014-2.22 0.593-4.13 3.3-4.07 6.8-4.08zm-1.54 5.27v37c3.84 0.0619 7.67 0.124 11.6 0.188 1.2 0.0273 2.4 0.0546 3.63 0.0828 5.64 0.0441 9.92 0.0374 14.7-3.27 4.16-4.16 4.45-9.1 4.5-14.8-6.95e-4 -6.11-0.648-10.8-4.63-15.6-6.4-5.62-22.1-7.5-29.9-3.64z" fill="#4C4F4E"/>
<path transform="translate(757 615)" d="m0 0c1.07-0.0496 2.14-0.0993 3.24-0.15 5.73-0.074 9.34 0.246 13.8 4.06 4.42 4.44 6.25 8.35 6.35 14.7-0.902 4.92-2.04 7.88-6 11-0.99 0.33-1.98 0.66-3 1 2.17 6.13 5.15 12.6 10 17-4.38-0.457-6.23-1.12-9.18-4.51-1.4-1.96-2.78-3.95-4.12-5.96-1.6-2.56-1.6-2.56-3.7-4.53-3.32-0.282-3.32-0.282-7.06-0.188-1.9 0.00967-1.9 0.00967-3.85 0.0195-2.96-0.184-2.96-0.184-4.09 1.17-0.0725 3.08 0.00385 6.14 0.0625 9.21-0.0625 2.79-0.0625 2.79-1.06 4.79-1.65-0.66-3.3-1.32-5-2-0.0493-6.09-0.0857-12.2-0.11-18.3-0.0101-2.07-0.0237-4.14-0.041-6.22-0.0242-2.97-0.0356-5.95-0.0444-8.92-0.0103-0.93-0.0206-1.86-0.0313-2.82-1.51e-4 -0.861-3.02e-4 -1.72-4.58e-4 -2.61-0.00444-0.759-0.00888-1.52-0.0135-2.3 0.788-6.13 9.29-4.37 13.9-4.44zm-8.62 6.56c-0.294 2.21-0.294 2.21-0.23 4.75 0.00193 0.937 0.00387 1.87 0.00586 2.84 0.0122 0.98 0.0245 1.96 0.0371 2.97 6.45e-4 0.984 0.00129 1.97 0.00195 2.98-0.396 4.57-0.396 4.57 1.19 8.46 7.4 0.48 16 0.859 23-2 2.08-2.11 2.91-3.44 3.4-6.37-0.0484-5.18-0.101-9.38-3.4-13.6-5.01-1.83-9.5-2.27-14.8-2.25-1.31-0.00516-2.61-0.0103-3.96-0.0156-3.32-0.0777-3.32-0.0777-5.23 2.27z" fill="#515251"/>
<path transform="translate(834 616)" d="m0 0c1.11 0.00411 2.22 0.00822 3.36 0.0125 1.8 0.0029 1.8 0.0029 3.64 0.00586 1.26 0.0122 2.52 0.0245 3.82 0.0371 1.26 6.45e-4 2.52 0.00129 3.82 0.00195 9.4 0.0453 9.4 0.0453 11.7 1.19-0.33 0.99-0.66 1.98-1 3-12.4 0.495-12.4 0.495-25 1 0.33 5.28 0.66 10.6 1 16 7.92 0.33 15.8 0.66 24 1v3h-4l-1-1v1h-20v17c2.67-0.0174 2.67-0.0174 5.4-0.0352 2.33-0.00938 4.65-0.0185 6.98-0.0273 1.76-0.0126 1.76-0.0126 3.56-0.0254 1.12-0.00322 2.24-0.00645 3.4-0.00977 1.56-0.00786 1.56-0.00786 3.14-0.0159 2.52 0.114 2.52 0.114 4.52 1.11-0.33 1.32-0.66 2.64-1 4-4.09 0.0494-8.19 0.0857-12.3 0.11-1.39 0.0101-2.79 0.0237-4.18 0.041-2 0.0242-4 0.0345-6 0.0444-1.2 0.0105-2.41 0.0209-3.65 0.0317-2.89-0.227-2.89-0.227-4.89-2.23-0.254-1.86-0.254-1.86-0.259-4.14-0.0063-0.854-0.0126-1.71-0.0191-2.59 0.00405-0.924 0.0081-1.85 0.0123-2.8-0.00191-0.947-0.00383-1.89-0.0058-2.87-0.00136-2 0.00234-4.01 0.0107-6.01 0.0107-3.07 1.06e-4 -6.15-0.0127-9.22 0.00132-1.94 0.00388-3.89 0.00781-5.83-0.00607-1.39-0.00607-1.39-0.0123-2.8 0.0063-0.854 0.0126-1.71 0.0191-2.59 0.00159-0.753 0.00318-1.51 0.00482-2.28 0.445-3.26 1.81-3.82 4.93-4.1z" fill="#4D504F"/>
<path transform="translate(1046,449)" d="m0 0c4.53-0.252 4.53-0.252 6.88 0.998 2.49 1.17 4.13 1.22 6.87 1.16 0.914-0.0117 1.83-0.0234 2.77-0.0354 0.964-0.0205 1.93-0.0411 2.92-0.0623 22.2-0.246 22.2-0.246 26.6 1.94v9c-10.7 0.853-21.3 1.11-32 1.12-1.26 0.00451-2.52 0.00902-3.82 0.0137-1.17-0.00193-2.35-0.00387-3.56-0.00586-1.59-0.00169-1.59-0.00169-3.21-0.00342-2.41-0.129-2.41-0.129-3.41-1.13-0.0726-2.19-0.0837-4.38-0.0625-6.56 0.00902-1.2 0.018-2.4 0.0273-3.63 0.0116-0.927 0.0232-1.85 0.0352-2.81z" fill="#4D504F"/>
<path transform="translate(586 616)" d="m0 0c1.26 0.00322 2.52 0.00645 3.82 0.00977 1.26-0.0161 2.52-0.0322 3.82-0.0488 1.2-6.45e-4 2.41-0.00129 3.64-0.00195 1.66-0.00447 1.66-0.00447 3.36-0.00903 0.882 0.123 1.76 0.246 2.67 0.372 0.66 0.99 1.32 1.98 2 3-2.52 1.26-4.41 1.21-7.23 1.32-1.03 0.0419-2.06 0.0838-3.12 0.127-1.08 0.0393-2.16 0.0786-3.27 0.119-1.09 0.0432-2.18 0.0864-3.3 0.131-2.69 0.106-5.39 0.207-8.08 0.307-0.33 5.28-0.66 10.6-1 16 5.28 0.66 10.6 1.32 16 2v1c-4.95 0.33-9.9 0.66-15 1-0.33 5.61-0.66 11.2-1 17 2.67-0.0174 2.67-0.0174 5.4-0.0352 2.33-0.00938 4.65-0.0185 6.98-0.0273 1.76-0.0126 1.76-0.0126 3.56-0.0254 1.12-0.00322 2.24-0.00645 3.4-0.00977 1.56-0.00786 1.56-0.00786 3.14-0.0159 2.52 0.114 2.52 0.114 4.52 1.11v4c-4.24 0.0494-8.47 0.0857-12.7 0.11-1.44 0.0101-2.88 0.0237-4.32 0.041-2.07 0.0242-4.14 0.0356-6.21 0.0444-1.87 0.0157-1.87 0.0157-3.78 0.0317-2.98-0.227-2.98-0.227-4.98-2.23-0.254-1.86-0.254-1.86-0.259-4.14-0.0063-0.854-0.0126-1.71-0.0191-2.59 0.00405-0.924 0.0081-1.85 0.0123-2.8-0.00191-0.947-0.00383-1.89-0.0058-2.87-0.00136-2 0.00234-4.01 0.0107-6.01 0.0107-3.07 1.06e-4 -6.15-0.0127-9.22 0.00132-1.94 0.00388-3.89 0.00781-5.83-0.00607-1.39-0.00607-1.39-0.0123-2.8 0.0063-0.854 0.0126-1.71 0.0191-2.59 0.00159-0.753 0.00318-1.51 0.00482-2.28 0.791-5.79 7.55-4.16 11.9-4.18z" fill="#515251"/>
<path transform="translate(1e3 616)" d="m0 0c1.72 0.00616 1.72 0.00616 3.48 0.0125 1.25 0.00193 2.5 0.00387 3.78 0.00586 1.96 0.0184 1.96 0.0184 3.97 0.0371 1.31 6.45e-4 2.62 0.00129 3.97 0.00195 9.75 0.0453 9.75 0.0453 12 1.19v2c-2.63 1.31-4.73 1.21-7.66 1.32-1.12 0.0419-2.24 0.0838-3.4 0.127-1.18 0.0393-2.35 0.0786-3.56 0.119-1.18 0.0432-2.37 0.0864-3.59 0.131-2.93 0.106-5.86 0.207-8.79 0.307v16c1.32 0.33 2.64 0.66 4 1 1.35 0.637 2.69 1.3 4 2-2.31 0.33-4.62 0.66-7 1-0.168 2.1-0.334 4.21-0.5 6.31-0.139 1.76-0.139 1.76-0.281 3.55-0.142 2.04-0.219 4.09-0.219 6.14 1.17 0.0376 1.17 0.0376 2.35 0.0759 3.51 0.116 7.01 0.239 10.5 0.362 1.83 0.059 1.83 0.059 3.71 0.119 1.75 0.0628 1.75 0.0628 3.54 0.127 1.08 0.0367 2.16 0.0733 3.27 0.111 2.61 0.205 2.61 0.205 4.61 1.21v4c-4.38 0.0741-8.76 0.129-13.1 0.165-1.49 0.0151-2.98 0.0356-4.47 0.0615-2.14 0.0363-4.28 0.0534-6.42 0.0667-1.29 0.0157-2.58 0.0314-3.9 0.0476-1.01-0.112-2.03-0.225-3.07-0.341-2.05-3.07-2.25-3.7-2.26-7.16-0.0063-0.834-0.0126-1.67-0.0191-2.53 0.00405-0.897 0.0081-1.79 0.0123-2.72-0.00191-0.923-0.00383-1.85-0.0058-2.8-0.00136-1.95 0.00233-3.9 0.0107-5.85 0.0107-2.99 9.47e-5 -5.99-0.0127-8.98 0.00132-1.89 0.00388-3.79 0.00781-5.68-0.00405-0.899-0.0081-1.8-0.0123-2.72 0.0063-0.831 0.0126-1.66 0.0191-2.52 0.00159-0.733 0.00318-1.47 0.00482-2.22 0.461-3.29 1.89-3.78 5.02-4.06z" fill="#505250"/>
<path transform="translate(720,437)" d="m0 0c0.66 1.32 1.32 2.64 2 4-1.98 2.68-3.99 5.34-6 8-0.784 1.05-1.57 2.1-2.38 3.19-3.24 3.47-6.43 5.64-10.6 7.81-0.745 0.396-1.49 0.791-2.26 1.2-6.23 2.78-12.1 3.19-18.9 3.24-1.25 0.0151-1.25 0.0151-2.53 0.0305-5.91-0.0821-10.9-1.3-16.3-3.47v-1c1.83 0.0174 1.83 0.0174 3.69 0.0352 1.62 0.00939 3.25 0.0185 4.87 0.0273 0.8 0.00838 1.6 0.0168 2.42 0.0254 4.79 0.0195 9.3-0.284 14-1.09v-3c0.99-0.66 1.98-1.32 3-2-0.99-0.33-1.98-0.66-3-1v-2c0.664-0.315 1.33-0.629 2.01-0.953 8.24-3.95 8.24-3.95 14.7-10.3 0.433-0.577 0.866-1.15 1.31-1.75h2v10h5c0.227-0.701 0.454-1.4 0.688-2.12 1.63-3.57 3.72-5.94 6.31-8.88z" fill="#4C4F4E"/>
<path transform="translate(925,615)" d="m0 0c8.11-0.396 14-0.381 20.4 5.06 1.56 1.94 1.56 1.94 1.56 3.94-2.22-0.494-4.17-1.08-6.25-2.01-5.68-2.04-12.6-2.21-18.3-0.00781-4.27 2.57-7.6 5.29-9.17 10.1-0.705 6.48-1.1 12.8 1.69 18.9 0.66 0.33 1.32 0.66 2 1v2c1.32 0.33 2.64 0.66 4 1v2c3.44 0.255 6.87 0.474 10.3 0.688 0.976 0.0728 1.95 0.146 2.96 0.221 0.938 0.0548 1.88 0.11 2.84 0.166 0.864 0.0576 1.73 0.115 2.62 0.175 2.79-0.306 3.46-1.19 5.27-3.25h2v2c-4.36 4.25-8.85 6.44-14.9 6.69-7.6-0.407-13.3-3.31-19-8.19-5.84-7.08-6.42-12.2-5.63-21.2 1.04-5.95 3.78-9.61 8.13-13.6 5.44-3.62 5.44-3.62 9.44-3.62v-2zm1 1 4 1z" fill="#4C4F4E"/>
<path transform="translate(940 414)" d="m0 0c1.02 0.00193 2.04 0.00387 3.09 0.00586 1.06 0.0122 2.13 0.0245 3.22 0.0371 1.07 6.45e-4 2.13 0.00129 3.23 0.00195 7.92 0.0452 7.92 0.0452 10.2 1.19v11c-2.93 0.978-4.88 1.13-7.94 1.12-1.28 0.00387-1.28 0.00387-2.59 0.00781-2.47-0.133-2.47-0.133-4.36-0.608-2.16-0.536-4.23-0.824-6.44-1.06-0.799-0.087-1.6-0.174-2.42-0.264-0.825-0.087-1.65-0.174-2.5-0.264-0.84-0.0909-1.68-0.182-2.55-0.275-2.07-0.223-4.14-0.443-6.2-0.662 0.33-1.32 0.66-2.64 1-4h-3c-0.33-0.99-0.66-1.98-1-3 1.03-0.0735 1.03-0.0735 2.08-0.148 1.35-0.112 1.35-0.112 2.73-0.227 0.893-0.0696 1.79-0.139 2.71-0.211 4.15-0.693 6.26-2.66 10.7-2.64z" fill="#535452"/>
<path transform="translate(817,378)" d="m0 0c4.31-0.0289 8.62-0.0468 12.9-0.0625 1.85-0.0126 1.85-0.0126 3.73-0.0254 1.17-0.00322 2.34-0.00645 3.54-0.00977 1.63-0.00786 1.63-0.00786 3.28-0.0159 2.5 0.114 2.5 0.114 3.5 1.11 0.0723 1.85 0.0838 3.71 0.0625 5.56-0.00902 1.01-0.018 2.02-0.0273 3.07-0.0116 0.782-0.0232 1.56-0.0352 2.37-9.02 0.839-17.9 1.12-27 1-0.33 1.32-0.66 2.64-1 4-3-1-3-1-5-2 0.33-0.99 0.66-1.98 1-3 1.99-0.693 3.99-1.36 6-2 1.84-1.5 1.84-1.5 3-3-1.32-0.33-2.64-0.66-4-1 0.66-0.33 1.32-0.66 2-1v-4l-2-1z" fill="#4D504F"/>
<path transform="translate(671 616)" d="m0 0c1.19-0.0329 2.38-0.0657 3.6-0.0996 8.79-0.0543 8.79-0.0543 12.8 2.92 0.903 1.3 0.903 1.3 1.82 2.62 0.784 0.784 1.57 1.57 2.38 2.38 1.62 2.62 1.62 2.62 1.69 6.25-1.06 3.38-1.06 3.38-3.62 5.31-0.804 0.351-1.61 0.701-2.44 1.06-1-3-1-3-0.375-6.38 0.593-3.5 0.593-3.5-0.406-6.3-3.15-3.31-5.81-3.02-10.3-3.17-1.53-0.0155-1.53-0.0155-3.09-0.0312-1.54-0.0503-1.54-0.0503-3.11-0.102-3.88-0.109-3.88-0.109-7.76-0.0234-2 2-1.41 5.82-1.56 8.56-0.0432 0.711-0.0864 1.42-0.131 2.15-0.106 1.76-0.207 3.52-0.307 5.28 0.99 0.33 1.98 0.66 3 1-0.99 2.48-0.99 2.48-2 5-0.99-0.33-1.98-0.66-3-1v9h-1c-0.854-7.18-1.18-14.3-1.19-21.5-0.0122-0.987-0.0245-1.97-0.0371-2.99-0.00193-0.941-0.00387-1.88-0.00586-2.85-0.00411-0.848-0.00822-1.7-0.0125-2.57 0.769-6.61 10.2-4.5 15.1-4.53z" fill="#4D504F"/>
<path transform="translate(488 616)" d="m0 0c1.36-0.00387 1.36-0.00387 2.76-0.00781 0.953 0.00773 1.91 0.0155 2.89 0.0234 0.934-0.00773 1.87-0.0155 2.83-0.0234 8.98 0.0253 15.7 1.78 23 7.27 5.03 5.43 6.31 9.41 6.12 16.8-0.00902 0.697-0.018 1.39-0.0273 2.11-0.0235 1.71-0.0593 3.42-0.0977 5.14-0.99-0.33-1.98-0.66-3-1-0.33 1.32-0.66 2.64-1 4h-1c-0.0142-1.21-0.0284-2.41-0.043-3.66 0.167-11.1 0.167-11.1-4.27-20.8-5.59-5.01-13.7-4.91-20.7-4.69-0.866 0.0135-1.73 0.0271-2.62 0.041-2.11 0.0349-4.21 0.0887-6.31 0.146v5c-0.66-0.66-1.32-1.32-2-2-0.33 1.98-0.66 3.96-1 6h-1c-0.221-1.96-0.427-3.92-0.625-5.88-0.116-1.09-0.232-2.18-0.352-3.3-0.00773-0.931-0.0155-1.86-0.0234-2.82 2.46-2.46 3.16-2.26 6.54-2.27z" fill="#4D504E"/>
<path transform="translate(657,386)" d="m0 0c-0.33 1.32-0.66 2.64-1 4h-2c0.66 1.65 1.32 3.3 2 5h3v-3h3v-2c0.58-0.0374 1.16-0.0748 1.76-0.113 3.91-0.329 6.7-0.587 10.2-2.51 4.46-2 8.33-1.15 13.1-0.375 0.495 1.98 0.495 1.98 1 4-1.06 0.0258-2.12 0.0516-3.22 0.0781-11 0.384-11 0.384-20.8 4.92-0.908 0.598-1.82 1.2-2.75 1.81-2.88 2.8-4.4 5.63-6.25 9.19-2.76-2.76-2.58-5.21-3-9-1.32-0.33-2.64-0.66-4-1-2.68 3.9-2.68 3.9-5 8h-2c0-7.31 4-11.9 9-17 2.7-1.68 3.76-2 7-2z" fill="#4D504F"/>
<path transform="translate(779 378)" d="m0 0c1.38 0.0133 2.77 0.0372 4.15 0.0703 0.706 0.00902 1.41 0.018 2.14 0.0273 1.74 0.0236 3.49 0.0595 5.23 0.0977 0.66 1.32 1.32 2.64 2 4h2c0.33 2.31 0.66 4.62 1 7h5c-0.33 0.66-0.66 1.32-1 2-3.96 0.0579-7.92 0.0935-11.9 0.125-1.13 0.0168-2.26 0.0335-3.42 0.0508-1.61 0.00967-1.61 0.00967-3.26 0.0195-1.49 0.0157-1.49 0.0157-3.02 0.0317-2.43-0.227-2.43-0.227-4.43-2.23-0.266-2.09-0.266-2.09-0.25-4.5-0.00516-0.794-0.0103-1.59-0.0156-2.41 0.494-3.89 2.03-4.08 5.74-4.29z" fill="#4D504F"/>
<path transform="translate(996,640)" d="m0 0 2 2c0.66-0.33 1.32-0.66 2-1 0.33 5.28 0.66 10.6 1 16 2.78 0.0909 2.78 0.0909 5.62 0.184 2.42 0.0844 4.84 0.169 7.26 0.254 1.22 0.0393 2.45 0.0786 3.71 0.119 1.17 0.0419 2.33 0.0838 3.54 0.127 1.08 0.0367 2.16 0.0733 3.27 0.111 2.61 0.205 2.61 0.205 4.61 1.21v4c-4.38 0.0741-8.76 0.129-13.1 0.165-1.49 0.0151-2.98 0.0356-4.47 0.0615-2.14 0.0363-4.28 0.0534-6.42 0.0667-1.29 0.0157-2.58 0.0314-3.9 0.0476-1.52-0.169-1.52-0.169-3.07-0.341-2.14-3.2-2.24-4-2.2-7.67 0.00967-1.34 0.00967-1.34 0.0195-2.71 0.0168-0.929 0.0335-1.86 0.0508-2.81 0.00902-0.94 0.018-1.88 0.0273-2.85 0.0236-2.32 0.0565-4.64 0.0977-6.96z" fill="#4D504F"/>
<path transform="translate(574,640)" d="m0 0 2 2c0.66-0.33 1.32-0.66 2-1 0.33 5.61 0.66 11.2 1 17 1.78-0.0116 3.56-0.0232 5.4-0.0352 2.33-0.00938 4.65-0.0185 6.98-0.0273 1.76-0.0126 1.76-0.0126 3.56-0.0254 1.68-0.00483 1.68-0.00483 3.4-0.00977 1.56-0.00786 1.56-0.00786 3.14-0.0159 2.52 0.114 2.52 0.114 4.52 1.11v4c-4.24 0.0494-8.47 0.0857-12.7 0.11-1.44 0.0101-2.88 0.0237-4.32 0.041-2.07 0.0242-4.14 0.0356-6.21 0.0444-1.87 0.0157-1.87 0.0157-3.78 0.0317-2.98-0.227-2.98-0.227-4.98-2.23-0.227-2.15-0.227-2.15-0.195-4.79 0.00645-0.941 0.0129-1.88 0.0195-2.85 0.0168-0.985 0.0335-1.97 0.0508-2.98 0.00902-0.993 0.018-1.99 0.0273-3.01 0.0236-2.46 0.0565-4.91 0.0977-7.37z" fill="#4D504F"/>
<path transform="translate(834 616)" d="m0 0c1.11 0.00411 2.22 0.00822 3.36 0.0125 1.8 0.0029 1.8 0.0029 3.64 0.00586 1.26 0.0122 2.52 0.0245 3.82 0.0371 1.26 6.45e-4 2.52 0.00129 3.82 0.00195 9.4 0.0453 9.4 0.0453 11.7 1.19-0.33 0.99-0.66 1.98-1 3-12.4 0.495-12.4 0.495-25 1v16c-0.66 0.33-1.32 0.66-2 1-3.06-3.08-3.37-5.67-3.36-9.94 0.0161-0.721 0.0322-1.44 0.0488-2.18-0.00322-0.728-0.00645-1.46-0.00977-2.21 0.0759-7.46 0.0759-7.46 5-7.91z" fill="#525351"/>
<path transform="translate(919,414)" d="m0 0h13c0.33 0.99 0.66 1.98 1 3-3.3 0.33-6.6 0.66-10 1h3v2c1.32 0.33 2.64 0.66 4 1h-5v3c5.94 0.33 11.9 0.66 18 1-0.33 0.66-0.66 1.32-1 2-3.77 0.116-7.54 0.187-11.3 0.25-1.07 0.0335-2.14 0.067-3.25 0.102-1.54 0.0193-1.54 0.0193-3.12 0.0391-0.948 0.0209-1.9 0.0419-2.87 0.0635-2.45-0.454-2.45-0.454-4.28-2.48-0.578-0.978-0.578-0.978-1.17-1.98-0.99 0.33-1.98 0.66-3 1v-8h6v-2z" fill="#4D504F"/>
<path transform="translate(775,635)" d="m0 0c0.33 1.32 0.66 2.64 1 4h2c-0.688 2.38-0.688 2.38-2 5-2.62 1.31-2.62 1.31-5 2 2.17 6.13 5.15 12.6 10 17-4.38-0.457-6.23-1.12-9.18-4.51-1.4-1.96-2.78-3.95-4.12-5.96-1.6-2.56-1.6-2.56-3.7-4.53-2.57-0.306-5.05-0.511-7.62-0.625-0.706-0.0387-1.41-0.0773-2.14-0.117-1.74-0.0943-3.49-0.177-5.23-0.258v-3c0.615-0.0396 1.23-0.0793 1.86-0.12 2.8-0.191 5.59-0.41 8.39-0.63 1.45-0.0928 1.45-0.0928 2.93-0.188 5.58-0.403 5.58-0.403 10.4-2.95 1.55-2.15 1.55-2.15 2.39-5.11z" fill="#4B4E4D"/>
<path transform="translate(748,616)" d="m0 0c18.6-1.14 18.6-1.14 24.1 1.45 1.96 1.75 3.45 3.36 4.89 5.55 0.99 1.49 0.99 1.49 2 3 0.908 5.04 1.14 8.95 0 14-1.32 0.33-2.64 0.66-4 1-0.0735-1.3-0.0735-1.3-0.148-2.63-0.0748-1.15-0.15-2.3-0.227-3.49-0.0696-1.14-0.139-2.27-0.211-3.45-0.358-3.93-0.358-3.93-2.41-9.43-7.59-0.66-15.2-1.32-23-2 0.33-0.66 0.66-1.32 1-2l-2-2z" fill="#4D504F"/>
<path transform="translate(1077,452)" d="m0 0c2.12-0.0269 4.25-0.0464 6.38-0.0625 1.18-0.0116 2.37-0.0232 3.59-0.0352 3.04 0.0977 3.04 0.0977 5.04 1.1v9c-1.94 0.0541-3.87 0.0928-5.81 0.125-1.08 0.0232-2.16 0.0464-3.27 0.0703-2.92-0.195-2.92-0.195-5.92-2.2-0.33-0.99-0.66-1.98-1-3-2.97-0.495-2.97-0.495-6-1 2.35-1.43 3.48-2.09 6.25-1.62 0.866 0.309 0.866 0.309 1.75 0.625-0.33-0.99-0.66-1.98-1-3z" fill="#535452"/>
<path transform="translate(843,378)" d="m0 0c1 1 1 1 1.1 3.5-0.0116 1.01-0.0232 2.02-0.0352 3.06-0.00902 1.01-0.018 2.02-0.0273 3.07-0.0116 0.782-0.0232 1.56-0.0352 2.37-1.94 0.0811-3.87 0.139-5.81 0.188-1.08 0.0348-2.16 0.0696-3.27 0.105-2.92-0.293-2.92-0.293-4.86-1.54-1.06-1.75-1.06-1.75-0.918-3.79 0.618-1.99 1.24-3.97 1.86-5.96 4.05-0.982 7.84-1.16 12-1z" fill="#535452"/>
<path transform="translate(1040,434)" d="m0 0c0.33 5.28 0.66 10.6 1 16 1.32-0.33 2.64-0.66 4-1v14h-6c-2-2-2-2-2.23-4.61 0.0105-1.08 0.0209-2.16 0.0317-3.27 0.00645-1.17 0.0129-2.33 0.0195-3.54 0.0168-1.22 0.0335-2.45 0.0508-3.71 0.00902-1.23 0.018-2.46 0.0273-3.73 0.0236-3.05 0.0566-6.1 0.0977-9.14 2-1 2-1 3-1z" fill="#4D504F"/>
<path transform="translate(917,652)" d="m0 0v2c1.32 0.33 2.64 0.66 4 1v2c3.44 0.255 6.87 0.474 10.3 0.688 0.976 0.0728 1.95 0.146 2.96 0.221 0.938 0.0548 1.88 0.11 2.84 0.166 0.864 0.0576 1.73 0.115 2.62 0.175 2.79-0.306 3.46-1.19 5.27-3.25h2v2c-4.36 4.25-8.85 6.44-14.9 6.69-7.7-0.393-14.2-3.74-20.1-8.69v-2c3-1 3-1 5-1z" fill="#494C4B"/>
<path transform="translate(1135,188)" d="m0 0c2.47 0.495 2.47 0.495 5 1-0.33 0.66-0.66 1.32-1 2h-2c-0.259 0.737-0.518 1.47-0.785 2.23-4.54 10.3-16.3 19.1-26.2 23.8-0.33-0.99-0.66-1.98-1-3 0.99-0.33 1.98-0.66 3-1 1.37-1.64 2.7-3.31 4-5 2.12-2.31 2.12-2.31 4-4h2c0.33-0.99 0.66-1.98 1-3h2c0.186-0.619 0.371-1.24 0.562-1.88 2.15-3.18 4.81-3.32 8.44-4.12 0.33-2.31 0.66-4.62 1-7z" fill="#4D504F"/>
<path transform="translate(916,378)" d="m0 0c1.94 1.5 1.94 1.5 3 3-1.36 0.371-1.36 0.371-2.75 0.75-3.6 1.38-5.1 2.06-7.25 5.25-0.622 3.33-0.871 6.62-1 10l-4-2c-0.0269-2.29-0.0464-4.58-0.0625-6.88-0.0116-1.28-0.0232-2.55-0.0352-3.87 0.0977-3.26 0.0977-3.26 1.1-5.26 3.57-1.37 7.23-1.27 11-1z" fill="#4D504F"/>
<path transform="translate(333,46)" d="m0 0h114v1h-114v-1z" fill="#464948"/>
<path transform="translate(928,386)" d="m0 0c0.607 0.162 1.21 0.325 1.84 0.492 2.63 0.617 5.11 0.724 7.8 0.824 1.07 0.0419 2.14 0.0838 3.24 0.127 1.11 0.0393 2.22 0.0786 3.37 0.119 1.69 0.0648 1.69 0.0648 3.41 0.131 2.78 0.106 5.56 0.208 8.34 0.307-0.33 0.66-0.66 1.32-1 2-7.65 1.29-15.3 1.12-23.1 1.06-1.25-0.00451-2.49-0.00902-3.78-0.0137-3.05-0.0117-6.11-0.0281-9.16-0.0488v-3c3.49-2.33 4.9-2.25 9-2z" fill="#4D504F"/>
<path transform="translate(1039,378)" d="m0 0c2.06 0.188 2.06 0.188 4 1 1 3 1 3 0 6h-2c0.0116 0.929 0.0232 1.86 0.0352 2.82 0.0896 12.3 0.0896 12.3-1.04 18.2-2.73-3.1-3.38-5.03-3.36-9.13 6.45e-4 -0.971 0.00129-1.94 0.00195-2.94 0.0161-1.01 0.0322-2.01 0.0488-3.05-0.00322-1.01-0.00645-2.03-0.00977-3.07 0.0552-7.53 0.0552-7.53 2.32-9.8z" fill="#4D504F"/>
<path transform="translate(1079,617)" d="m0 0h4c0.268 0.804 0.536 1.61 0.812 2.44 0.392 0.846 0.784 1.69 1.19 2.56 0.99 0.33 1.98 0.66 3 1 0.33 1.65 0.66 3.3 1 5-3.88-0.875-3.88-0.875-5-2-0.33 2.31-0.66 4.62-1 7-0.66-0.66-1.32-1.32-2-2-0.33 1.98-0.66 3.96-1 6h-1c-0.816-6.32-1.43-12.6-1-19 0.33-0.33 0.66-0.66 1-1z" fill="#525351"/>
<path transform="translate(830,632)" d="m0 0c0.268 0.639 0.536 1.28 0.812 1.94 1.07 2.39 1.07 2.39 4.19 3.06 1.84 0.149 3.69 0.248 5.54 0.316 1.61 0.0628 1.61 0.0628 3.25 0.127 1.12 0.0393 2.24 0.0786 3.39 0.119 1.13 0.0432 2.26 0.0864 3.43 0.131 2.79 0.106 5.59 0.208 8.38 0.307v3h-4c-0.33-0.33-0.66-0.66-1-1v1h-20v5c-2.5-0.938-2.5-0.938-5-3-0.646-3.75-0.721-7.56 1-11z" fill="#505250"/>
<path transform="translate(1e3 616)" d="m0 0c4.12-0.0289 8.25-0.0468 12.4-0.0625 1.76-0.0126 1.76-0.0126 3.56-0.0254 1.68-0.00483 1.68-0.00483 3.4-0.00977 1.56-0.00786 1.56-0.00786 3.14-0.0159 2.52 0.114 2.52 0.114 4.52 1.11v2c-2.61 1.3-4.53 1.11-7.45 1.1-1.61-0.00483-1.61-0.00483-3.26-0.00977-1.13-0.00838-2.26-0.0168-3.42-0.0254-1.14-0.00451-2.27-0.00902-3.44-0.0137-2.81-0.0118-5.62-0.0283-8.43-0.0488 0.33-0.66 0.66-1.32 1-2l-2-2z" fill="#4D504F"/>
<path transform="translate(899,198)" d="m0 0c1.32 0.66 2.64 1.32 4 2-0.339 2.97-0.957 3.96-3.14 6.07-0.88 0.678-1.76 1.36-2.67 2.05-0.873 0.683-1.75 1.37-2.64 2.07-2.14 1.52-4.16 2.73-6.54 3.8v-2c-0.99-0.33-1.98-0.66-3-1 1.18-0.619 1.18-0.619 2.38-1.25 2.69-1.47 2.69-1.47 3.56-3.66 1.23-2.42 2.59-3.64 4.69-5.34 0.632-0.521 1.26-1.04 1.91-1.58 0.723-0.58 0.723-0.58 1.46-1.17z" fill="#4D504F"/>
<path transform="translate(578,616)" d="m0 0c4.12-0.0868 8.25-0.14 12.4-0.188 1.18-0.0251 2.35-0.0503 3.56-0.0762 1.68-0.0145 1.68-0.0145 3.4-0.0293 1.04-0.0157 2.07-0.0314 3.14-0.0476 0.832 0.112 1.66 0.225 2.52 0.341 0.66 0.99 1.32 1.98 2 3-2.57 1.29-4.57 1.21-7.45 1.32-1.08 0.0419-2.15 0.0838-3.26 0.127-1.13 0.0393-2.26 0.0786-3.42 0.119-1.14 0.0432-2.27 0.0864-3.44 0.131-2.81 0.106-5.62 0.208-8.43 0.307 0.33-0.99 0.66-1.98 1-3l-2-2z" fill="#4D504F"/>
<path transform="translate(834,616)" d="m0 0c3.96-0.0289 7.92-0.0468 11.9-0.0625 1.69-0.0126 1.69-0.0126 3.42-0.0254 1.08-0.00322 2.15-0.00645 3.26-0.00977 0.995-0.00524 1.99-0.0105 3.02-0.0159 2.43 0.114 2.43 0.114 4.43 1.11-0.33 0.99-0.66 1.98-1 3h-25c0.66-0.66 1.32-1.32 2-2l-2-2z" fill="#4D504F"/>
<path transform="translate(908,631)" d="m0 0c0.66 0.99 1.32 1.98 2 3 0.99-0.33 1.98-0.66 3-1-0.0348 1.16-0.0348 1.16-0.0703 2.34-0.109 6.29 0.219 11.6 2.07 17.7-2.31 0-2.31 0-5-1-3.96-6.87-2.97-13.3-2-21z" fill="#4D504F"/>
<path transform="translate(686,635)" d="m0 0c0.0412 0.577 0.0825 1.15 0.125 1.75 1.32 3.38 3.84 4.44 6.88 6.25l-3 3c-0.66-0.33-1.32-0.66-2-1v-2c-5.45-2.23-10.6-2.43-16.4-2.62-1.39-0.058-1.39-0.058-2.81-0.117-2.27-0.0937-4.54-0.179-6.82-0.258 0.33-1.32 0.66-2.64 1-4h2v2c2.38-0.115 4.75-0.242 7.12-0.375 0.665-0.0309 1.33-0.0619 2.02-0.0938 4.26-0.25 7.88-1.01 11.9-2.53z" fill="#454847"/>
<path transform="translate(998,616)" d="m0 0c2.16 0.0234 2.16 0.0234 4.62 0.375 1.23 0.166 1.23 0.166 2.48 0.336 0.626 0.0954 1.25 0.191 1.9 0.289l-4 2 2 2h-4v14h-1c-0.33-3.63-0.66-7.26-1-11-0.124 1.46-0.247 2.93-0.375 4.44-0.211 2.5-0.211 2.5-0.625 4.56-0.66 0.33-1.32 0.66-2 1-0.0538-2.63-0.0936-5.25-0.125-7.88-0.0168-0.746-0.0335-1.49-0.0508-2.26-0.0176-1.96 0.0726-3.91 0.176-5.86l2-2z" fill="#525351"/>
<path transform="translate(522,414)" d="m0 0c2.38-0.293 2.38-0.293 5.12-0.188 0.91 0.0271 1.82 0.0541 2.76 0.082 0.699 0.0348 1.4 0.0696 2.12 0.105 0.33 0.99 0.66 1.98 1 3-2.48 1.49-2.48 1.49-5 3h5v1c-1.46 0.222-2.92 0.427-4.38 0.625-0.812 0.116-1.62 0.232-2.46 0.352-0.714 0.00773-1.43 0.0155-2.16 0.0234-2-2-2-2-4-5 0.66-0.99 1.32-1.98 2-3z" fill="#4D504F"/>
<path transform="translate(942 460)" d="m0 0c1.21-0.0142 2.43-0.0284 3.68-0.043 3.01 0.23 3.01 0.23 6.01 2.23-5.9 0.853-11.6 1.15-17.6 1.12-0.811 0.00387-1.62 0.00773-2.46 0.0117-4.76-0.00769-9.28-0.342-14-1.14v-1c8.1-0.596 16.2-1.11 24.3-1.19z" fill="#4D504F"/>
<path transform="translate(521,631)" d="m0 0c0.66 1.32 1.32 2.64 2 4 0.66-0.99 1.32-1.98 2-3v15c-0.99-0.33-1.98-0.66-3-1-0.33 1.32-0.66 2.64-1 4h-1c-0.027-2.6-0.0468-5.21-0.0625-7.81-0.00838-0.738-0.0168-1.48-0.0254-2.24-0.0147-3.25 0.0526-5.85 1.09-8.95z" fill="#525351"/>
<path transform="translate(777 624)" d="m0 0c1.94 1.56 1.94 1.56 2.75 5.31 0.285 3.55-0.0272 6.76-0.812 10.2-1.32 0.33-2.64 0.66-4 1-0.0606-0.904-0.121-1.81-0.184-2.74-0.0838-1.18-0.168-2.36-0.254-3.57-0.0812-1.17-0.162-2.34-0.246-3.55-0.203-3.16-0.203-3.16-1.32-6.14 2-1 2-1 4.06-0.562z" fill="#515251"/>
<path transform="translate(1364,131)" d="m0 0c0.33 0.99 0.66 1.98 1 3-1.19 2.31-1.19 2.31-3 5-0.722 1.09-1.44 2.19-2.19 3.31-0.598 0.887-1.2 1.77-1.81 2.69-0.99-0.33-1.98-0.66-3-1v-5h2c1.03-1.31 2.02-2.65 3-4 1.31-1.35 2.64-2.69 4-4z" fill="#4D504F"/>
<path transform="translate(483,616)" d="m0 0c2.73 0.0329 5.3 0.564 8 1-1.63 1.71-2.87 2.93-5 4v5c-0.66-0.66-1.32-1.32-2-2-0.33 1.98-0.66 3.96-1 6h-1c-0.221-1.96-0.427-3.92-0.625-5.88-0.116-1.09-0.232-2.18-0.352-3.3-0.00773-0.931-0.0155-1.86-0.0234-2.82 0.66-0.66 1.32-1.32 2-2z" fill="#525351"/>
<path transform="translate(907,414)" d="m0 0h1c0.054 2.92 0.0937 5.83 0.125 8.75 0.0251 1.24 0.0251 1.24 0.0508 2.5 0.00645 0.799 0.0129 1.6 0.0195 2.42 0.0105 0.733 0.0209 1.47 0.0317 2.22-0.259 2.41-1.03 4.02-2.23 6.11v-4h-2v-12c0.66 1.32 1.32 2.64 2 4 0.33-3.3 0.66-6.6 1-10z" fill="#4D504F"/>
<path transform="translate(832,621)" d="m0 0h1v17c-4-4-4-4-4.39-7.02 0.0464-1.07 0.0928-2.13 0.141-3.23 0.0361-1.08 0.0722-2.16 0.109-3.27 0.0464-0.82 0.0928-1.64 0.141-2.48 0.66 0.66 1.32 1.32 2 2 0.33-0.99 0.66-1.98 1-3z" fill="#4D504F"/>
<path transform="translate(576,616)" d="m0 0c2.16 0.0234 2.16 0.0234 4.62 0.375 1.23 0.166 1.23 0.166 2.48 0.336 0.626 0.0954 1.25 0.191 1.9 0.289v1c-1.65 0.33-3.3 0.66-5 1-0.33 5.94-0.66 11.9-1 18h-1c-0.33-4.95-0.66-9.9-1-15-0.66 0.99-1.32 1.98-2 3-0.625-3.38-0.625-3.38-1-7l2-2z" fill="#525351"/>
<path transform="translate(574,620)" d="m0 0 2 2c0.66-0.33 1.32-0.66 2-1v17c-0.66-0.99-1.32-1.98-2-3-0.66-0.66-1.32-1.32-2-2-0.195-3.04-0.195-3.04-0.125-6.62 0.018-1.19 0.0361-2.38 0.0547-3.6 0.0232-0.915 0.0464-1.83 0.0703-2.77z" fill="#4D504F"/>
<path transform="translate(690,623)" d="m0 0c1.56 1.06 1.56 1.06 3 3 0 3.5 0 3.5-1 7-2.56 1.94-2.56 1.94-5 3-0.33-0.99-0.66-1.98-1-3l2-2c0.673-1.97 0.673-1.97 1.12-4.12 0.289-1.28 0.577-2.56 0.875-3.88z" fill="#4F5150"/>
<path transform="translate(574,46)" d="m0 0h43v1h-43v-1z" fill="#4E504F"/>
<path transform="translate(1e3 192)" d="m0 0c2.81 0.358 3.84 0.825 5.78 2.96 0.851 1.19 0.851 1.19 1.72 2.41 1.79 2.5 3.25 4.44 5.72 6.29 0.588 0.441 1.18 0.882 1.78 1.34v2c-3.4-1.47-5.65-3.38-8.25-6-0.706-0.701-1.41-1.4-2.14-2.12-1.61-1.88-1.61-1.88-1.61-3.88h-2c-0.33-0.99-0.66-1.98-1-3z" fill="#4D504F"/>
<path transform="translate(746,649)" d="m0 0h1v5h2c0.125 6.75 0.125 6.75-1 9-0.99-0.33-1.98-0.66-3-1-0.0272-1.42-0.0465-2.83-0.0625-4.25-0.0116-0.789-0.0232-1.58-0.0352-2.39 0.0938-2.27 0.465-4.19 1.1-6.36z" fill="#4E504F"/>
<path transform="translate(854,223)" d="m0 0c0.33 0.99 0.66 1.98 1 3-6.58 0.955-12.4 0.893-19 0 3.04-1.73 5.52-2.34 9-2.62 0.846-0.0748 1.69-0.15 2.56-0.227 2.14-0.13 4.29-0.148 6.44-0.148z" fill="#4D504F"/>
<path transform="translate(766,188)" d="m0 0c1.14 1.14 2.28 2.28 3.42 3.43 1.15 1.14 2.3 2.27 3.47 3.39 0.634 0.616 1.27 1.23 1.92 1.87 0.605 0.581 1.21 1.16 1.83 1.76 1.36 1.55 1.36 1.55 1.36 3.55-3.16-1.4-5.32-3.05-7.75-5.5-0.92-0.913-0.92-0.913-1.86-1.84-1.39-1.66-1.39-1.66-1.39-3.66h-2c0.33-0.99 0.66-1.98 1-3z" fill="#4D504F"/>
<path transform="translate(657,633)" d="m0 0c2.01 2.56 3.63 5.05 5 8-0.99 0.495-0.99 0.495-2 1-0.66-0.33-1.32-0.66-2-1v9h-1c-0.194-2.46-0.381-4.92-0.562-7.38-0.0561-0.699-0.112-1.4-0.17-2.12-0.381-5.28-0.381-5.28 0.732-7.51z" fill="#535452"/>
<path transform="translate(1594,213)" d="m0 0c0.625 3.44 1 6.49 1 10h-2c-0.66-0.66-1.32-1.32-2-2h-1v-7c2-1 2-1 4-1z" fill="#4D504F"/>
<path transform="translate(836,638)" d="m0 0h23v3h-4v-2h-19v-1z" fill="#000202"/>
<path transform="translate(1483,222)" d="m0 0c-0.33 0.99-0.66 1.98-1 3-5.61-0.33-11.2-0.66-17-1v-1c6.03-1.07 11.9-1.1 18-1z" fill="#4D504F"/>
<path transform="translate(668,136)" d="m0 0c-1.17 3.32-2.15 5.83-5 8h-3c2.81-8 2.81-8 8-8z" fill="#4D504F"/>
<path transform="translate(189,46)" d="m0 0h31v1h-31v-1z" fill="#393C3B"/>
<path transform="translate(522,646)" d="m0 0h2c-0.645 3.48-1.98 6.09-4 9h-2c-0.688-1.81-0.688-1.81-1-4 1.44-1.75 1.44-1.75 3-3 0.33 0.33 0.66 0.66 1 1 0.33-0.99 0.66-1.98 1-3z" fill="#4E504F"/>
<path transform="translate(797,84)" d="m0 0c2.16 0.371 2.16 0.371 4 1-0.459 0.387-0.918 0.773-1.39 1.17-3.33 2.83-6.57 5.67-9.61 8.83 1.26-4.94 2.96-7.83 7-11z" fill="#4D504F"/>
<path transform="translate(1041,451)" d="m0 0c1.48 0.99 1.48 0.99 3 2v9c-0.99-0.33-1.98-0.66-3-1v-10z" fill="#535452"/>
<path transform="translate(646,445)" d="m0 0c5.88 4.62 5.88 4.62 7 8-3.8-0.542-5.47-2.2-8-5 0.33-0.99 0.66-1.98 1-3z" fill="#4D504F"/>
<path transform="translate(1009,638)" d="m0 0h17v3h-3v-2h-14v-1z" fill="#000202"/>
<path transform="translate(595,638)" d="m0 0h8v3h-8v-3z" fill="#0E1110"/>
<path transform="translate(1571,120)" d="m0 0h1v21h-1v-21z" fill="#000302"/>
<path transform="translate(1009,640)" d="m0 0h13v1h-13v-1z" fill="#4D504F"/>
<path transform="translate(22,46)" d="m0 0h13v1h-13v-1z" fill="#1F2220"/>
<path transform="translate(834,41)" d="m0 0h13v1h-13v-1z" fill="#4E514F"/>
<path transform="translate(835,227)" d="m0 0h9v1h-9v-1z" fill="#000302"/>
<path transform="translate(1e3 46)" d="m0 0h9v1h-9v-1z" fill="#535452"/>
<path transform="translate(1051,440)" d="m0 0h1v5h-1v-5z" fill="#000302"/>
</svg>
