<?xml version="1.0" encoding="utf-8"?>
<!-- Generator: Adobe Illustrator 16.0.0, SVG Export Plug-In . SVG Version: 6.00 Build 0)  -->
<!DOCTYPE svg PUBLIC "-//W3C//DTD SVG 1.1//EN" "http://www.w3.org/Graphics/SVG/1.1/DTD/svg11.dtd">
<svg version="1.1" xmlns="http://www.w3.org/2000/svg" xmlns:xlink="http://www.w3.org/1999/xlink" x="0px" y="0px"
	 width="325.984px" height="121.89px" viewBox="0 0 325.984 121.89" enable-background="new 0 0 325.984 121.89"
	 xml:space="preserve">
<g id="bg">
</g>
<g id="flekk">
	<g>
		<path fill="#FFFFFF" d="M325.056,93.393c1.009,5.725-2.848,11.232-8.571,12.242l-83.244,14.678
			c-5.725,1.009-11.232-2.848-12.241-8.572l-14.678-83.244c-1.009-5.724,2.848-11.232,8.571-12.24l83.243-14.678
			c5.726-1.01,11.232,2.848,12.243,8.571L325.056,93.393z"/>
	</g>
</g>
<g id="logo_harmadlagos">
	<g>
		<g>
			<g>
				<path fill="#58585A" d="M12.273,62.731c3.303,0,5.315-2.62,5.315-6.91c0-3.912-2.089-6.304-5.468-6.304H8.323v13.214H12.273z
					 M0.769,42.758H12.12c8.353,0,13.481,4.443,13.481,13.063c0,8.507-4.557,13.707-13.441,13.707H0.769V42.758z"/>
			</g>
			<path fill="#58585A" d="M36.729,59.845h5.695l-2.848-7.367L36.729,59.845z M44.664,65.693H34.489l-1.671,3.836h-8.24
				l12.91-26.847h4.175l12.949,26.847h-8.276L44.664,65.693z"/>
			<polygon fill="#58585A" points="82.292,42.758 82.292,69.528 78.648,69.528 64.636,56.503 64.636,69.528 57.005,69.528 
				57.005,42.758 60.648,42.758 74.698,55.744 74.698,42.758 			"/>
			<g>
				<path fill="#58585A" d="M86.544,59.01V42.758h7.708V57.15c0,4.443,1.672,5.999,4.406,5.999c2.811,0,4.479-1.556,4.479-5.999
					V42.758h7.708V59.01c0,7.33-4.328,11.126-12.187,11.126C91.14,70.137,86.544,66.34,86.544,59.01"/>
				<path fill="#58585A" d="M131.088,60.605c0-1.367-0.685-2.354-3.343-2.354h-4.974v5.049h4.974
					C130.403,63.301,131.088,62.39,131.088,60.605 M122.581,53.428h4.442c2.052,0,2.885-0.759,2.885-2.201
					c0-1.519-0.833-2.202-2.885-2.202h-4.442V53.428z M139.137,61.479c0,5.163-3.303,8.05-9.683,8.05H115.1V42.758h14.393
					c4.744,0,7.214,2.089,7.214,6.189c0,2.696-1.254,4.594-3.229,5.507C136.553,55.061,139.137,57.491,139.137,61.479"/>
			</g>
			<rect x="142.439" y="42.758" fill="#58585A" width="7.785" height="26.771"/>
			<g>
				<path fill="#58585A" d="M154.894,59.01V42.758h7.708V57.15c0,4.443,1.672,5.999,4.406,5.999c2.811,0,4.479-1.556,4.479-5.999
					V42.757l7.709,0.001V59.01c0,7.33-4.33,11.126-12.188,11.126C159.49,70.137,154.894,66.34,154.894,59.01"/>
				<path fill="#58585A" d="M182.196,67.555l2.849-6.153c2.276,1.253,5.886,2.317,8.544,2.317c1.936,0,3.15-0.493,3.111-1.86
					c-0.036-1.253-1.063-1.823-3.834-2.355c-6.037-1.177-10.215-3.037-10.215-8.581c0-5.391,3.533-8.732,10.746-8.732
					c4.252,0,7.596,0.72,10.403,2.087l-3.112,6c-2.166-0.799-4.783-1.557-7.215-1.557c-1.746,0-2.886,0.379-2.886,1.557
					c0,1.404,1.823,1.861,5.545,2.62c5.164,1.025,8.617,2.886,8.617,8.353c0,5.659-3.188,8.886-10.82,8.886
					C189.146,70.137,185.69,69.263,182.196,67.555"/>
			</g>
		</g>
		<g>
			<polygon fill="#007DA5" points="75.304,82.973 75.304,96.945 58.787,96.945 58.787,82.973 56.624,82.973 56.624,109.741 
				58.787,109.741 58.787,98.881 75.304,98.881 75.304,109.741 77.468,109.741 77.468,82.973 			"/>
			<g>
				<path fill="#007DA5" d="M109.061,96.376c0-6.759-4.481-11.657-11.809-11.657c-6.873,0-11.81,4.442-11.81,11.657
					c0,6.72,4.481,11.619,11.81,11.619C104.086,107.995,109.061,103.591,109.061,96.376 M83.127,96.376
					c0-7.974,5.353-13.745,14.125-13.745c8.164,0,14.087,5.202,14.087,13.745c0,7.974-5.354,13.707-14.087,13.707
					C89.05,110.083,83.127,104.881,83.127,96.376"/>
			</g>
			<polygon fill="#007DA5" points="112.707,82.973 112.707,84.947 122.2,84.947 122.2,109.741 124.403,109.741 124.403,84.947 
				133.933,84.947 133.933,82.973 			"/>
			<polygon fill="#007DA5" points="139.061,82.973 139.061,109.741 157.894,109.741 157.894,107.768 141.224,107.768 
				141.224,97.743 154.742,97.743 154.742,95.77 141.224,95.77 141.224,84.947 157.096,84.947 157.096,82.973 			"/>
			<polygon fill="#007DA5" points="163.21,82.973 163.21,109.741 181.55,109.741 181.55,107.768 165.374,107.768 165.374,82.973 			
				"/>
			<path fill="#007DA5" d="M184.701,107.729l0.874-2.126c3.189,1.633,5.846,2.353,9.682,2.353c4.441,0,7.215-1.783,7.215-5.276
				c0-3.646-3.416-4.443-7.974-5.431c-5.733-1.214-9.567-2.657-9.567-7.557c0-4.176,3.303-7.062,9.225-7.062
				c3.646,0,7.139,0.836,9.494,2.051l-0.951,1.974c-2.24-1.176-5.276-1.897-8.543-1.897c-4.555,0-6.947,2.201-6.947,4.935
				c0,3.38,3.15,4.444,7.975,5.43c5.2,1.103,9.567,2.355,9.567,7.443c0,5.126-3.722,7.518-9.379,7.518
				C190.929,110.083,188.042,109.362,184.701,107.729"/>
		</g>
		<g>
			<path fill="#007DA5" d="M228.456,53.917c-0.416,0.041-3.162,0.503-6.654,1.121l9.559,54.702
				c27.571-8.252,24.342-35.506,23.924-38.371l-0.314-1.836h-0.009C250.864,50.201,231.171,53.616,228.456,53.917"/>
			<g>
				<g>
					<path fill="#58585A" d="M292.652,12.262l-8.977,1.6l4.987,28.527l16.329-2.904L301.3,18.371
						C300.59,14.294,296.698,11.548,292.652,12.262"/>
					<path fill="#58585A" d="M290.522,53.028l3.855,22.06l-12.191,2.169l-10.704-61.229l-47.444,8.438
						c-4.047,0.722-6.775,4.645-6.06,8.725l1.055,6.035l4.931-0.876c26.633-4.735,46.603,6.257,49.588,34.477
						c1.227,11.604-0.952,22.041-6.188,30.587l39.981-7.113c4.041-0.717,6.766-4.642,6.054-8.721l-6.546-37.456L290.522,53.028z"/>
				</g>
			</g>
		</g>
	</g>
</g>
</svg>
