<?xml version="1.0" standalone="no"?>
<!DOCTYPE svg PUBLIC "-//W3C//DTD SVG 20010904//EN"
 "http://www.w3.org/TR/2001/REC-SVG-20010904/DTD/svg10.dtd">
<svg version="1.0" xmlns="http://www.w3.org/2000/svg"
 width="180.000000pt" height="180.000000pt" viewBox="0 0 512.000000 512.000000"
 preserveAspectRatio="xMidYMid meet">

<g transform="translate(0.000000,512.000000) scale(0.100000,-0.100000)"
fill="#2DAEFF" stroke="none">
<path d="M2103 4819 c-128 -24 -220 -142 -245 -317 -31 -212 79 -460 240 -539
80 -39 177 -40 243 -1 144 85 209 279 164 493 -33 157 -147 315 -250 347 -70
23 -104 26 -152 17z m79 -159 c42 -12 97 -69 132 -137 70 -140 55 -332 -33
-406 -37 -30 -57 -33 -105 -13 -98 41 -178 223 -162 366 9 77 47 155 88 180
39 23 33 23 80 10z"/>
<path d="M2920 4817 c-134 -37 -243 -174 -284 -354 -74 -330 128 -607 376
-513 267 100 367 566 167 784 -72 79 -166 109 -259 83z m104 -161 c44 -18 81
-82 96 -163 20 -113 -18 -254 -90 -336 -83 -95 -164 -87 -218 23 -24 49 -27
66 -26 155 0 79 5 112 22 156 26 66 92 146 137 165 38 17 39 17 79 0z"/>
<path d="M1532 4124 c-144 -72 -181 -288 -82 -484 152 -301 490 -270 517 48
14 172 -89 366 -232 433 -77 37 -133 38 -203 3z m156 -157 c75 -56 115 -140
116 -244 1 -93 -21 -129 -80 -127 -33 1 -46 9 -85 53 -55 59 -83 131 -83 211
1 114 59 160 132 107z"/>
<path d="M3415 4137 c-90 -37 -165 -108 -209 -200 -148 -305 35 -605 291 -477
76 38 135 101 178 191 113 237 26 486 -173 496 -31 1 -70 -3 -87 -10z m100
-153 c26 -10 48 -66 49 -124 0 -80 -28 -152 -83 -211 -39 -44 -52 -52 -85 -53
-31 -1 -42 4 -60 27 -31 42 -29 152 5 227 45 97 119 155 174 134z"/>
<path d="M2421 3895 c-96 -18 -208 -73 -266 -132 -48 -48 -110 -159 -140 -253
-49 -151 -105 -220 -251 -309 -109 -67 -177 -134 -211 -207 -113 -248 17 -508
292 -579 77 -19 237 -19 324 1 38 8 104 33 147 56 152 78 173 88 211 96 21 5
56 4 77 0 39 -9 59 -18 210 -96 98 -51 189 -72 314 -73 111 -1 172 12 256 53
195 98 281 313 205 513 -39 103 -117 178 -255 248 -64 32 -136 101 -165 158
-12 24 -36 87 -54 139 -80 238 -162 325 -352 375 -83 23 -252 28 -342 10z
m325 -170 c67 -20 127 -64 158 -117 14 -24 41 -93 60 -153 20 -61 53 -139 73
-174 49 -82 140 -166 231 -215 139 -72 186 -135 187 -246 0 -117 -71 -210
-187 -245 -68 -20 -219 -20 -289 1 -30 9 -83 32 -119 51 -250 138 -350 141
-565 14 -100 -59 -178 -81 -289 -81 -110 0 -179 18 -238 63 -61 47 -93 115
-93 197 1 112 44 167 207 267 150 92 219 184 292 394 59 167 136 233 306 263
47 9 215 -3 266 -19z"/>
<path d="M556 3530 c-36 -11 -71 -44 -85 -78 -14 -37 -47 -246 -68 -432 -24
-215 -24 -732 0 -950 21 -187 36 -241 84 -313 21 -30 189 -199 373 -376 184
-176 345 -335 358 -352 32 -46 29 -71 -14 -94 -19 -10 -46 -38 -60 -60 -23
-40 -24 -48 -24 -244 0 -148 4 -210 14 -234 17 -43 67 -84 116 -97 26 -7 207
-10 533 -8 l493 3 42 27 c71 48 77 66 80 287 4 220 -4 260 -63 308 l-33 28 -5
270 c-4 297 -9 329 -72 461 -112 234 -321 377 -597 409 l-56 6 -184 171 c-175
164 -250 218 -301 218 -13 0 -28 22 -52 74 -65 142 -66 152 -43 242 26 101 28
245 4 329 -43 147 -152 290 -281 367 -66 40 -115 52 -159 38z m110 -198 c146
-106 216 -283 179 -452 -9 -41 -21 -93 -25 -115 -12 -56 -2 -106 41 -210 l38
-90 -40 -34 c-54 -46 -81 -101 -82 -170 -1 -91 25 -150 107 -243 176 -201 390
-430 411 -440 47 -21 115 40 102 93 -4 13 -105 133 -226 267 -121 134 -223
252 -226 263 -30 95 40 155 133 112 22 -10 118 -90 212 -178 95 -88 185 -168
201 -178 16 -11 73 -25 131 -34 121 -18 184 -40 265 -92 112 -73 197 -194 233
-337 17 -66 20 -111 20 -306 l0 -228 -369 0 -368 0 -6 45 c-4 25 -15 62 -26
83 -17 33 -222 238 -668 665 -105 102 -117 131 -140 328 -24 217 -24 714 0
929 22 190 48 350 57 350 4 0 25 -13 46 -28z m1569 -2707 l0 -170 -477 -3
-478 -2 0 175 0 175 478 -2 477 -3 0 -170z"/>
<path d="M4430 3504 c-139 -70 -259 -218 -306 -379 -23 -78 -23 -229 -1 -311
25 -92 21 -128 -26 -232 -42 -94 -42 -94 -93 -111 -71 -24 -77 -28 -277 -214
-177 -165 -196 -177 -265 -177 -45 0 -155 -31 -227 -65 -145 -67 -268 -190
-340 -339 -63 -132 -68 -163 -72 -461 l-4 -270 -31 -24 c-59 -47 -68 -84 -68
-296 0 -163 3 -196 19 -230 22 -49 48 -73 98 -91 48 -17 975 -20 1035 -4 48
14 97 55 114 97 10 24 14 86 14 230 0 179 -2 200 -21 240 -14 28 -35 51 -60
66 -46 26 -50 49 -16 96 12 18 173 176 357 352 184 177 345 335 358 353 47 61
72 130 87 243 52 401 43 895 -26 1326 -29 177 -52 216 -139 232 -28 5 -49 -1
-110 -31z m94 -251 c41 -260 50 -384 50 -703 0 -356 -19 -586 -55 -670 -14
-32 -48 -74 -102 -127 -446 -427 -651 -632 -668 -665 -11 -21 -22 -58 -26 -83
l-6 -45 -368 0 -369 0 0 228 c0 195 3 240 20 306 47 187 174 331 347 396 30
11 99 27 154 34 58 8 111 22 128 33 16 10 108 91 205 181 96 89 191 169 211
178 43 18 96 10 121 -17 19 -21 21 -77 4 -110 -7 -11 -96 -114 -198 -227 -254
-281 -252 -279 -252 -308 0 -30 50 -84 78 -84 11 0 31 9 46 21 27 21 357 382
428 468 95 114 94 284 -1 364 -17 14 -35 27 -41 29 -7 2 5 43 30 107 48 119
53 179 24 276 -37 124 -15 278 54 377 42 60 139 148 163 148 4 0 14 -48 23
-107z m-686 -2625 l-3 -173 -475 0 -475 0 -3 173 -2 172 480 0 480 0 -2 -172z"/>
</g>
</svg>
