<?xml version="1.0" standalone="no"?>
<!DOCTYPE svg PUBLIC "-//W3C//DTD SVG 20010904//EN"
 "http://www.w3.org/TR/2001/REC-SVG-20010904/DTD/svg10.dtd">
<svg version="1.0" xmlns="http://www.w3.org/2000/svg"
 width="180.000000pt" height="180.000000pt" viewBox="0 0 512.000000 512.000000"
 preserveAspectRatio="xMidYMid meet">

<g transform="translate(0.000000,512.000000) scale(0.100000,-0.100000)"
fill="#2DAEFF" stroke="none">
<path d="M3685 4790 c-407 -63 -710 -401 -718 -800 -1 -52 1 -107 6 -122 9
-33 57 -61 91 -52 49 12 59 36 62 147 3 116 22 204 65 294 158 332 564 477
894 319 177 -84 301 -225 362 -411 21 -65 26 -100 27 -190 1 -122 -12 -186
-55 -283 -95 -213 -280 -356 -509 -396 -96 -17 -120 -34 -120 -87 0 -29 6 -42
28 -59 24 -19 35 -21 89 -16 120 12 281 76 385 152 25 19 81 71 122 115 59 62
87 104 126 182 74 151 93 238 88 406 -4 120 -8 147 -37 231 -114 336 -400 555
-752 574 -52 2 -121 1 -154 -4z"/>
<path d="M3700 4480 c-15 -15 -20 -33 -20 -69 0 -40 -4 -51 -19 -56 -30 -9
-92 -75 -112 -119 -27 -59 -25 -148 5 -211 39 -85 112 -134 210 -142 34 -2 74
-9 89 -15 28 -11 57 -53 57 -83 0 -31 -29 -72 -59 -85 -58 -24 -112 8 -131 79
-31 116 -175 80 -155 -39 13 -76 89 -165 162 -191 25 -8 32 -17 37 -50 8 -51
36 -79 80 -79 46 0 76 37 77 94 0 38 4 43 47 71 88 57 130 198 89 297 -40 95
-138 158 -245 158 -57 0 -67 3 -93 29 -31 31 -38 75 -19 112 12 22 60 49 89
49 31 0 76 -45 90 -89 21 -73 81 -92 132 -42 34 34 34 40 13 110 -18 63 -90
142 -146 160 -31 10 -36 17 -42 52 -3 21 -15 48 -26 59 -27 27 -84 26 -110 0z"/>
<path d="M825 3895 c-14 -13 -25 -35 -25 -48 0 -13 32 -73 71 -133 73 -113
149 -255 192 -361 l25 -61 -59 -78 c-33 -44 -82 -118 -109 -165 l-50 -86 -73
-6 c-46 -3 -92 -14 -123 -28 -62 -29 -132 -99 -164 -164 l-25 -50 0 -395 0
-395 25 -50 c32 -65 102 -135 164 -164 31 -14 77 -25 123 -28 l74 -6 46 -80
c140 -241 374 -476 610 -611 l73 -41 0 -248 0 -248 25 -24 24 -25 271 0 271 0
24 25 c24 23 25 28 25 171 l0 146 28 -6 c102 -22 413 -16 575 10 l37 7 0 -152
c0 -148 1 -153 25 -176 l24 -25 271 0 271 0 24 25 25 24 0 270 0 270 78 52
c478 322 745 819 718 1339 -4 69 -9 139 -12 155 -5 30 -4 31 45 44 195 50 327
273 277 469 -42 166 -133 246 -201 177 -32 -31 -31 -63 2 -111 37 -54 52 -100
52 -159 1 -106 -80 -207 -185 -229 -31 -7 -31 -6 -54 56 -12 35 -33 89 -47
121 l-26 57 -88 0 -88 0 39 -82 c207 -444 161 -930 -127 -1331 -108 -149 -296
-318 -465 -417 -31 -19 -61 -44 -67 -57 -7 -15 -11 -115 -11 -268 l0 -245
-160 0 -160 0 0 159 c0 145 -2 161 -21 185 -25 32 -41 32 -196 5 -155 -28
-431 -30 -576 -6 -102 18 -107 17 -144 -16 -22 -20 -23 -27 -23 -174 l0 -153
-160 0 -160 0 0 228 c0 262 2 256 -89 301 -169 86 -390 272 -509 430 -31 42
-85 126 -120 186 -34 61 -70 116 -79 123 -10 7 -49 12 -100 12 -49 0 -97 6
-116 14 -39 16 -82 61 -96 99 -15 38 -15 696 0 734 14 38 57 83 96 99 19 8 67
14 113 14 45 0 90 5 101 10 10 6 35 43 55 83 46 92 107 185 173 267 72 89 75
98 49 173 -33 97 -92 230 -145 325 -26 48 -49 90 -51 94 -2 3 12 3 30 -2 120
-28 268 -117 345 -205 74 -86 78 -86 245 0 79 40 186 89 238 108 115 42 295
84 411 94 l84 8 3 84 3 83 -68 -6 c-247 -25 -470 -89 -687 -197 l-119 -59 -48
45 c-61 57 -167 126 -246 159 -94 39 -177 56 -286 56 -91 0 -100 -2 -122 -25z"/>
<path d="M2560 3843 l0 -80 88 -7 c48 -4 102 -9 120 -12 l32 -6 0 80 c0 93 10
86 -142 97 l-98 7 0 -79z"/>
<path d="M2820 3590 c-97 -12 -147 -28 -165 -53 -27 -39 -15 -96 26 -117 15
-8 45 -7 117 5 145 25 250 10 387 -56 163 -77 265 -195 336 -384 22 -58 41
-75 84 -75 37 0 60 15 74 47 26 63 -70 261 -187 385 -174 184 -428 278 -672
248z"/>
<path d="M1305 2855 c-48 -47 -26 -145 50 -220 73 -74 151 -92 248 -59 117 40
199 213 132 279 -49 50 -135 15 -135 -55 0 -41 -39 -80 -80 -80 -41 0 -80 39
-80 80 0 41 -39 80 -80 80 -19 0 -40 -9 -55 -25z"/>
</g>
</svg>
