<?xml version="1.0" standalone="no"?>
<!DOCTYPE svg PUBLIC "-//W3C//DTD SVG 20010904//EN"
 "http://www.w3.org/TR/2001/REC-SVG-20010904/DTD/svg10.dtd">
<svg version="1.0" xmlns="http://www.w3.org/2000/svg"
 width="45.000000pt" height="45.000000pt" viewBox="0 0 512.000000 512.000000"
 preserveAspectRatio="xMidYMid meet">

<g transform="translate(0.000000,512.000000) scale(0.100000,-0.100000)"
fill="#000000" stroke="none">
<path d="M2453 5105 c-29 -8 -74 -25 -101 -39 -52 -27 -295 -234 -306 -261
-14 -37 -6 -73 22 -97 22 -18 73 -33 236 -68 l208 -43 136 -158 c75 -87 151
-164 167 -172 17 -9 114 -32 217 -54 l187 -38 28 21 c46 35 49 68 14 157 -17
43 -31 80 -31 82 0 3 24 5 53 5 123 0 235 50 325 144 84 89 270 328 277 358
12 46 -18 86 -78 102 -110 31 -359 78 -382 72 -13 -3 -47 -35 -75 -71 -28 -36
-59 -65 -69 -65 -9 0 -154 30 -321 66 -333 71 -426 82 -507 59z m501 -240
c194 -41 366 -75 381 -75 28 0 74 39 126 109 l26 35 59 -13 c104 -22 101 -14
32 -99 -159 -199 -218 -227 -398 -187 -104 23 -134 20 -164 -16 -14 -17 -26
-37 -26 -45 0 -8 14 -51 31 -95 17 -44 29 -82 27 -84 -2 -2 -36 3 -76 12 l-72
16 -137 156 c-75 86 -144 162 -154 168 -9 7 -71 24 -136 38 -156 34 -150 31
-127 56 26 29 93 74 129 87 58 21 129 11 479 -63z"/>
<path d="M1763 4748 l-82 -30 15 -37 c9 -20 23 -55 32 -78 9 -24 21 -43 27
-43 26 0 156 54 152 64 -2 6 -15 44 -28 84 -12 39 -25 72 -28 71 -4 0 -43 -14
-88 -31z"/>
<path d="M1272 4496 c-34 -24 -65 -46 -68 -49 -3 -3 18 -37 47 -75 l52 -70 69
45 c37 25 68 48 68 51 0 16 -84 142 -94 141 -6 0 -39 -20 -74 -43z"/>
<path d="M3768 4454 l-47 -74 63 -45 c35 -25 68 -45 74 -45 10 0 88 99 98 124
4 11 -72 74 -131 109 -6 3 -32 -28 -57 -69z"/>
<path d="M861 4136 c-30 -33 -56 -66 -58 -72 -2 -5 26 -34 62 -63 l65 -53 52
57 c29 32 54 61 56 64 1 4 -26 34 -60 67 l-63 61 -54 -61z"/>
<path d="M4176 4111 l-59 -60 52 -60 c29 -34 55 -61 59 -61 7 0 108 79 123 96
9 11 1 26 -46 79 -31 36 -60 65 -64 65 -3 0 -33 -27 -65 -59z"/>
<path d="M2495 4093 c-316 -18 -620 -133 -865 -328 -94 -75 -238 -231 -305
-330 -306 -455 -347 -1015 -110 -1510 202 -421 614 -733 1085 -821 143 -27
421 -25 557 4 222 48 438 143 604 267 116 87 282 261 362 382 230 345 307 760
216 1167 -125 561 -581 1015 -1142 1135 -84 18 -311 44 -342 39 -5 -1 -32 -3
-60 -5z m89 -311 l63 -126 -83 -169 c-46 -93 -84 -179 -84 -191 0 -12 7 -32
16 -45 23 -32 311 -221 337 -221 13 0 33 7 45 16 22 15 277 347 299 389 6 11
23 81 38 155 15 74 29 137 30 139 5 4 139 -90 181 -127 l32 -27 -39 -229 c-21
-126 -40 -235 -43 -241 -2 -7 -97 -49 -209 -94 -113 -45 -212 -90 -221 -100
-24 -26 -20 -77 19 -231 19 -76 35 -147 35 -157 0 -10 -36 -72 -80 -138 -111
-166 -111 -160 33 -303 l114 -112 165 0 164 0 63 -157 c34 -86 58 -159 54
-163 -147 -134 -214 -182 -351 -250 -101 -50 -254 -103 -332 -115 -25 -3 -53
-9 -62 -11 -13 -4 -18 1 -18 17 0 16 40 63 130 154 100 102 130 138 130 158 0
52 -21 76 -107 119 l-83 43 -40 121 c-56 167 -57 168 -216 173 -212 6 -195 13
-371 -163 -144 -143 -153 -155 -153 -190 0 -35 8 -47 85 -125 l85 -87 0 -92
c0 -51 -1 -92 -3 -92 -2 0 -37 11 -77 25 -442 150 -767 523 -867 995 -25 120
-25 391 1 510 10 47 20 89 23 93 3 5 14 1 24 -9 17 -16 19 -33 19 -194 l0
-177 139 -184 c76 -101 148 -193 161 -204 21 -19 36 -20 230 -20 207 0 209 0
234 24 33 32 34 74 2 169 l-25 72 174 0 c229 0 211 -16 275 240 27 107 50 203
50 213 0 10 -13 32 -29 48 l-29 29 -170 0 -169 0 -57 85 c-33 51 -54 91 -49
98 4 7 78 101 165 210 174 218 183 237 133 291 l-24 26 -283 0 -283 0 25 20
c99 79 288 165 450 206 89 23 246 45 263 36 4 -2 36 -60 71 -130z m261 107
c28 -6 92 -24 143 -41 74 -24 92 -33 88 -46 -3 -10 -17 -79 -32 -155 l-27
-138 -99 -132 c-55 -72 -104 -131 -109 -129 -20 5 -119 75 -119 84 0 4 32 71
70 148 48 97 70 151 70 176 0 26 -17 69 -55 139 -30 57 -55 106 -55 109 0 7
39 2 125 -15z m-735 -416 c0 -5 -43 -62 -96 -128 -137 -171 -154 -195 -154
-224 0 -29 193 -326 221 -342 10 -5 76 -9 148 -9 151 0 142 8 113 -105 l-18
-70 -206 -5 c-184 -4 -208 -7 -227 -24 -33 -30 -35 -72 -6 -155 14 -41 25 -78
25 -83 0 -4 -42 -8 -92 -8 l-93 1 -112 151 -113 152 0 179 0 179 -71 74 c-71
73 -72 73 -59 105 23 54 105 185 160 253 l52 66 264 0 c145 0 264 -3 264 -7z
m1565 -150 c153 -228 220 -454 219 -738 0 -221 -39 -395 -130 -577 -38 -77
-105 -188 -114 -188 -3 0 -29 62 -59 138 -32 82 -63 146 -78 160 -23 21 -32
22 -196 22 l-173 0 -52 53 -51 52 74 114 c41 62 75 122 75 133 0 10 -16 82
-36 160 -19 78 -31 144 -27 149 4 4 89 40 188 79 99 39 190 81 203 94 19 19
28 53 57 227 19 112 35 205 35 207 0 10 15 -9 65 -85z m-1042 -1557 c42 -124
46 -130 100 -158 l40 -20 -91 -91 c-49 -51 -95 -102 -101 -114 -6 -12 -11 -44
-11 -72 l0 -51 -52 0 c-29 0 -70 3 -90 6 l-38 7 0 143 0 144 -67 70 -66 71 89
90 89 90 80 -3 80 -3 38 -109z"/>
<path d="M537 3677 c-20 -39 -37 -75 -37 -79 0 -8 134 -78 147 -78 7 0 83 132
83 144 0 7 -134 86 -146 86 -5 0 -26 -33 -47 -73z"/>
<path d="M4497 3684 l-78 -45 37 -67 c20 -37 40 -70 43 -74 4 -5 41 9 83 30
l76 37 -41 82 -42 82 -78 -45z"/>
<path d="M356 3231 c-23 -77 -45 -165 -42 -169 3 -2 41 -12 86 -22 59 -13 82
-15 85 -7 11 30 44 161 42 163 -1 1 -39 13 -84 27 -74 22 -83 23 -87 8z"/>
<path d="M4690 3188 c-36 -11 -66 -21 -68 -23 -3 -3 34 -155 40 -160 3 -3 160
26 167 31 3 3 -6 44 -30 137 -11 43 -16 44 -109 15z"/>
<path d="M260 2600 l0 -90 90 0 90 0 0 84 0 83 -46 7 c-26 3 -66 6 -90 6 l-44
0 0 -90z"/>
<path d="M4773 2663 l-73 -4 0 -83 0 -84 81 -7 c44 -4 83 -4 86 -1 3 3 7 45 7
93 1 71 -2 88 -14 88 -8 1 -48 0 -87 -2z"/>
<path d="M383 2153 c-40 -9 -73 -21 -73 -27 0 -16 38 -157 43 -163 5 -4 157
35 165 42 2 2 -1 20 -7 41 -5 22 -15 58 -21 82 -6 23 -16 41 -23 41 -7 -1 -45
-8 -84 -16z"/>
<path d="M4631 2063 c-11 -42 -20 -78 -18 -79 1 -1 39 -13 85 -27 l82 -25 14
52 c37 130 36 126 13 131 -161 36 -151 40 -176 -52z"/>
<path d="M553 1643 l-73 -35 41 -79 c23 -43 45 -79 49 -79 5 0 40 18 79 41
l70 40 -37 75 c-20 41 -41 74 -47 73 -5 0 -43 -16 -82 -36z"/>
<path d="M4450 1593 c-19 -38 -36 -71 -38 -75 -3 -7 130 -88 145 -88 4 0 27
35 50 78 l42 78 -75 37 c-41 20 -78 37 -82 37 -4 0 -23 -30 -42 -67z"/>
<path d="M869 1213 c-24 -19 -55 -44 -68 -54 -27 -22 -25 -27 53 -114 l45 -50
62 61 c69 70 70 60 -7 147 l-40 46 -45 -36z"/>
<path d="M4156 1168 l-56 -62 62 -63 63 -63 62 67 62 68 -32 28 c-18 16 -48
42 -69 58 l-36 29 -56 -62z"/>
<path d="M1273 1098 c-11 -13 -23 -31 -27 -42 -8 -25 97 -426 131 -496 35 -73
123 -159 198 -195 33 -16 62 -30 64 -32 2 -2 -26 -34 -62 -72 -40 -42 -67 -78
-67 -91 0 -35 27 -76 57 -88 55 -21 376 -83 399 -78 13 4 107 45 209 93 l186
86 197 -42 c108 -23 212 -41 230 -41 43 0 82 38 82 79 0 38 -120 299 -165 361
-42 58 -101 105 -170 136 -34 16 -183 53 -388 96 -182 39 -336 74 -340 78 -5
4 -17 40 -27 80 -10 40 -28 82 -39 93 -14 14 -70 31 -193 58 -206 46 -246 48
-275 17z m275 -198 l60 -12 21 -83 c13 -46 31 -91 40 -100 12 -10 154 -45 391
-96 205 -43 387 -86 406 -95 18 -9 51 -35 73 -59 39 -43 98 -145 84 -145 -5 0
-61 11 -126 25 -64 14 -130 25 -146 25 -16 0 -116 -40 -222 -89 l-194 -89 -70
15 c-38 9 -72 17 -74 19 -2 2 26 35 62 73 71 73 78 92 52 141 -16 31 -36 39
-157 65 -94 20 -159 60 -197 120 -16 26 -42 95 -60 163 -35 134 -37 146 -17
139 8 -3 41 -11 74 -17z"/>
<path d="M3775 834 c-27 -19 -56 -39 -64 -43 -11 -7 -4 -24 33 -84 l48 -76 74
50 c41 27 74 52 74 55 0 13 -95 134 -104 133 -6 0 -33 -16 -61 -35z"/>
<path d="M3310 594 c-36 -14 -67 -27 -69 -30 -6 -6 41 -154 50 -160 10 -6 164
52 164 62 0 22 -59 154 -69 153 -6 0 -40 -12 -76 -25z"/>
</g>
</svg>
