<?xml version="1.0" standalone="no"?>
<!DOCTYPE svg PUBLIC "-//W3C//DTD SVG 20010904//EN"
 "http://www.w3.org/TR/2001/REC-SVG-20010904/DTD/svg10.dtd">
<svg version="1.0" xmlns="http://www.w3.org/2000/svg"
 width="30.000000pt" height="30.000000pt" viewBox="0 0 512.000000 512.000000"
 preserveAspectRatio="xMidYMid meet">

<g transform="translate(0.000000,512.000000) scale(0.100000,-0.100000)"
fill="#000000" stroke="none">
<path d="M400 4508 c-47 -32 -71 -68 -77 -116 -7 -54 24 -118 74 -152 l36 -25
288 -3 c260 -3 289 -5 293 -20 3 -9 116 -498 251 -1087 135 -588 252 -1093
260 -1120 19 -68 80 -160 140 -213 58 -51 153 -98 225 -112 76 -14 2182 -13
2252 1 84 17 177 68 239 130 102 102 110 126 270 824 77 341 143 648 146 681
15 178 -90 368 -253 456 -112 61 -30 58 -1641 58 l-1473 0 -5 23 c-3 12 -34
150 -70 307 -36 156 -74 298 -83 315 -10 16 -33 40 -52 52 -33 23 -35 23 -410
23 -375 0 -377 0 -410 -22z m3786 -1289 c58 -27 84 -72 84 -140 0 -66 -28
-111 -86 -139 -40 -20 -59 -20 -1162 -18 -1119 3 -1121 3 -1149 24 -89 66 -99
179 -21 251 12 12 34 26 48 32 16 6 422 10 1134 10 1103 1 1110 1 1152 -20z
m-386 -639 c132 -37 152 -230 29 -292 -31 -17 -90 -18 -795 -18 l-761 0 -34
23 c-58 39 -81 84 -77 145 6 64 29 99 88 130 l44 22 736 0 c451 0 749 -4 770
-10z"/>
<path d="M1996 1388 c-218 -28 -377 -247 -337 -465 24 -132 107 -240 229 -300
52 -26 67 -28 167 -28 105 0 114 2 177 33 175 86 266 290 212 473 -58 196
-241 313 -448 287z"/>
<path d="M3919 1389 c-129 -14 -255 -107 -313 -229 -29 -60 -31 -73 -31 -170
0 -93 3 -111 27 -163 37 -79 117 -160 196 -199 83 -41 208 -51 293 -23 192 63
309 251 278 448 -34 216 -227 361 -450 336z"/>
</g>
</svg>
