<?xml version="1.0" standalone="no"?>
<!DOCTYPE svg PUBLIC "-//W3C//DTD SVG 20010904//EN"
 "http://www.w3.org/TR/2001/REC-SVG-20010904/DTD/svg10.dtd">
<svg version="1.0" xmlns="http://www.w3.org/2000/svg"
 width="20.000000pt" height="20.000000pt" viewBox="0 0 512.000000 512.000000"
 preserveAspectRatio="xMidYMid meet">

<g transform="translate(0.000000,512.000000) scale(0.100000,-0.100000)"
fill="#000000" stroke="none">
<path d="M1210 4729 c-242 -55 -318 -106 -447 -301 -199 -302 -257 -600 -179
-916 29 -116 176 -526 243 -677 157 -356 406 -689 814 -1090 357 -350 671
-581 983 -722 163 -74 567 -220 704 -255 109 -27 145 -32 257 -32 74 -1 160 5
200 13 248 49 561 226 666 377 54 78 119 318 119 443 0 63 -1 65 -43 105 -23
23 -92 67 -152 100 -210 112 -516 287 -578 330 -196 137 -264 117 -463 -131
-181 -226 -253 -293 -315 -293 -45 0 -103 26 -241 106 -537 312 -840 609
-1145 1124 -136 228 -152 269 -127 329 20 48 105 134 234 236 58 45 135 114
171 151 131 137 131 172 5 362 -54 82 -145 241 -353 621 -20 35 -51 81 -70
102 l-35 39 -82 -1 c-44 0 -119 -9 -166 -20z"/>
</g>
</svg>
